<svg width="213" height="114" viewBox="0 0 213 114" fill="none" xmlns="http://www.w3.org/2000/svg">
<g clip-path="url(#clip0_902_35)">
<path fill-rule="evenodd" clip-rule="evenodd" d="M51.5 0H40H0V31.5001V86.0001V113.391H17.5H31.5L48.5 114.5H64H73H102.5H121H130.5H147H162H168.5H177H185H194H213.5V69.5V41.5V31L213 0H192.5H173.519H156H141.5H121.406H100H72.3166H51.5ZM117.218 75.6262C117.336 75.7581 117.456 75.8963 117.577 76.0345C117.697 76.1727 117.818 76.3108 117.936 76.4426L118.13 76.4171C116.761 74.6313 115.469 72.7944 114.252 71.0341C114.227 71.0469 114.208 71.066 114.187 71.0873C114.166 71.1085 114.142 71.1319 114.109 71.1532V71.0341L114.058 71.1106L114.151 71.2297L114.201 71.2042L114.151 71.2552L114.489 71.7144C114.756 72.1231 115.029 72.5319 115.325 72.9756L115.326 72.9772C115.59 73.3732 115.872 73.7972 116.187 74.2741C116.331 74.4697 116.694 74.9459 117.218 75.6262ZM125.624 84.4788C124.881 83.8495 124.163 83.2032 123.445 82.4974L122.963 82.5229L123.056 82.6164L122.862 82.7865C123.108 83.0712 123.353 83.3519 123.597 83.6323L123.598 83.6329C123.974 84.0643 124.35 84.4949 124.729 84.938C125.709 86.0265 126.647 87.0895 127.576 88.1695L127.314 88.4076L127.289 88.3821C126.573 87.5884 125.863 86.7789 125.149 85.9661L125.147 85.964C124.952 85.7412 124.756 85.5182 124.56 85.2952L123.242 83.824C123.935 84.938 124.34 85.7799 124.18 85.9925C123.943 86.2561 123.098 85.7969 121.375 84.2832L121.133 84.0596C120.665 83.6254 120.198 83.1928 119.744 82.7355L112.537 83.1692L107.941 84.0111H103.15L103.1 84.1046C103.007 84.1982 102.931 84.3002 102.863 84.3938C102.825 84.4405 102.789 84.4958 102.753 84.5511C102.717 84.6064 102.681 84.6616 102.643 84.7084C102.626 84.7902 102.7 84.9762 102.74 85.0765C102.758 85.1222 102.77 85.1501 102.762 85.1421C102.762 85.1421 102.424 85.0231 102.381 85.1166C102.36 85.1433 102.337 85.1687 102.313 85.194C102.256 85.2574 102.198 85.3207 102.162 85.4057C102.136 85.4316 102.111 85.4535 102.087 85.4752C102.039 85.5177 101.992 85.5592 101.942 85.6268C101.926 85.6425 101.909 85.6622 101.891 85.6834C101.849 85.7313 101.8 85.7871 101.748 85.8224C101.655 85.899 101.528 85.899 101.435 85.8479C101.317 85.7714 101.072 85.6268 100.886 85.6779C100.84 85.6962 100.801 85.7119 100.767 85.7254C100.664 85.7671 100.614 85.7873 100.562 85.795C100.514 85.8022 100.464 85.7985 100.367 85.7913C100.29 85.7856 100.183 85.7777 100.024 85.7714C99.9523 85.8905 99.8932 86.018 99.8341 86.1456C99.7749 86.2731 99.7158 86.4007 99.644 86.5197C99.644 86.5453 99.6693 86.9024 99.6186 86.8854C99.5426 86.8344 99.3567 87.149 99.3567 87.2001C99.3451 87.2351 99.3282 87.263 99.3116 87.2903C99.2947 87.3183 99.2781 87.3456 99.268 87.3793C99.1781 87.534 99.0694 87.8038 99.0694 87.8038C99.0517 87.7384 99.0133 87.802 98.9831 87.8519C98.978 87.8604 98.9732 87.8684 98.9687 87.8754C98.965 87.8811 98.9615 87.8862 98.9584 87.8901L99.0018 87.8464C99.0084 87.8707 99.0133 87.8922 99.0169 87.9081C99.0272 87.9532 99.0272 87.9532 99.0272 87.8464C99.036 87.8375 99.0448 87.8317 99.0536 87.8269C99.0574 87.8248 99.0613 87.8228 99.0652 87.8209C99.0779 87.8145 99.0905 87.8081 99.1032 87.7953C99.0905 87.8208 99.0842 87.8442 99.0779 87.8676C99.0715 87.891 99.0652 87.9144 99.0525 87.9399C99.0525 87.9399 99.0018 87.9399 99.0018 87.9654C99.0809 87.9885 99.2561 87.9907 99.4596 87.9932C99.9307 87.9991 100.554 88.0069 100.489 88.2801L100.463 88.3311L100.438 88.3821C99.8071 88.1902 99.4081 88.0885 99.166 88.0267C98.9238 87.965 98.8384 87.9432 98.8343 87.9112C98.8321 87.8937 98.854 87.8732 98.8879 87.8415C98.9252 87.8065 98.9771 87.7579 99.0272 87.6848C99.0272 87.6848 99.1032 87.5402 99.0525 87.5147C99.0418 87.5147 99.0356 87.5193 99.032 87.5226C99.0299 87.5247 99.0287 87.5262 99.028 87.526C99.0272 87.5258 99.0272 87.5228 99.0272 87.5147C99.0145 87.5019 99.0018 87.5083 98.9955 87.5115C98.9934 87.5126 98.9921 87.5133 98.9916 87.5128C98.9905 87.512 98.9933 87.5064 99.0018 87.4892C99.0226 87.4509 99.0547 87.4282 99.0837 87.4078C99.1254 87.3785 99.1604 87.3538 99.1455 87.2936C99.1455 87.2835 99.1435 87.2737 99.1407 87.2643C99.1384 87.2566 99.1355 87.2491 99.1327 87.2419C99.122 87.214 99.1131 87.1908 99.1455 87.1745C99.2243 87.1092 99.2446 87.1002 99.2595 87.0857C99.2662 87.0791 99.2718 87.0714 99.2813 87.0567C99.289 87.0448 99.2991 87.0284 99.3144 87.0045C99.3144 86.9534 99.3651 86.8854 99.3905 86.8599C99.4191 86.8312 99.4154 86.8267 99.4068 86.8161C99.4002 86.8079 99.3905 86.7961 99.3905 86.7664C99.3905 86.7002 99.4634 86.6263 99.5327 86.5561C99.5881 86.4999 99.6411 86.4461 99.6524 86.4007C99.6524 86.3894 99.6513 86.3671 99.6498 86.3374C99.6413 86.166 99.6204 85.7459 99.7284 85.7459C99.7031 85.7714 99.7284 85.8224 99.7538 85.8394C99.7791 85.8139 99.7791 85.7884 99.7791 85.7459H99.7284C99.7284 85.7459 99.7538 85.7204 99.7791 85.7204C99.7719 85.6936 99.7667 85.664 99.7614 85.6339C99.7483 85.5587 99.7344 85.4798 99.6862 85.4313C99.5819 85.2576 99.5385 85.1012 99.4964 84.9493C99.4499 84.7814 99.4049 84.6189 99.2807 84.4448C99.2807 84.4448 99.3313 84.3938 99.3989 84.3002L95.0139 84.7594C94.7267 84.785 94.4648 84.6829 94.2451 84.4958C94.0254 84.3002 93.9325 84.0366 93.9578 83.7475L94.2451 77.1569V54.6641C94.2451 54.4005 94.338 54.1538 94.5577 53.9668C94.7774 53.7712 95.0139 53.6776 95.3012 53.7031L97.5571 53.9412C97.2857 53.618 97.0167 53.2874 96.7449 52.9534C96.5091 52.6636 96.2712 52.3713 96.0278 52.0789C95.3097 51.237 95.0731 50.6077 95.3097 50.0039C95.5293 49.4257 96.2221 48.9154 97.3712 48.2691L97.4641 48.2436C99.3313 48.3627 100.7 48.9154 101.773 49.7148C102.542 50.0294 102.871 50.225 102.922 50.3441C102.973 50.4887 102.922 50.5652 102.804 50.6077C103.716 51.5516 104.46 52.6827 105.22 53.8647C105.347 54.0816 105.488 54.2984 105.629 54.5153C105.676 54.5876 105.723 54.6598 105.769 54.7321L105.82 54.7831L122.49 56.4924C122.566 56.3734 122.659 56.2543 122.752 56.1778C122.819 56.1333 122.886 56.0888 122.953 56.0444C122.994 56.0165 123.036 55.9887 123.077 55.9608C123.185 55.8886 123.293 55.8163 123.402 55.7441C123.426 55.7012 123.444 55.6619 123.46 55.6253C123.48 55.5821 123.498 55.5428 123.521 55.506C123.359 55.5839 123.203 55.65 123.028 55.724L122.921 55.7696C122.895 55.6931 123.115 55.5315 123.157 55.506C123.132 55.4804 123.107 55.4804 123.081 55.4804C123.073 55.4424 123.061 55.4234 123.052 55.4105C123.048 55.4034 123.044 55.3981 123.043 55.3924C123.041 55.3764 123.06 55.3574 123.132 55.2849C123.29 55.1255 123.286 55.192 123.279 55.3002C123.277 55.3249 123.276 55.3516 123.276 55.3784C123.334 55.3469 123.39 55.3165 123.444 55.2867C123.493 55.2604 123.54 55.2345 123.588 55.2085L123.592 55.2065C123.692 55.1518 123.792 55.0971 123.901 55.0382C123.939 54.9915 123.975 54.9426 124.011 54.8938L124.011 54.8936L124.011 54.8933C124.047 54.8446 124.083 54.7958 124.12 54.7491C124.264 54.6045 124.433 54.3664 124.526 54.2219C124.619 54.0773 124.72 53.9327 124.813 53.8137C124.834 53.7886 124.855 53.7611 124.878 53.7324L124.878 53.7324L124.878 53.7323C124.939 53.6541 125.007 53.5675 125.075 53.499C125.098 53.4638 125.119 53.4286 125.141 53.3931L125.141 53.3931C125.194 53.3087 125.246 53.2232 125.312 53.1334C125.337 53.0143 125.092 52.6061 125.092 52.6231C125.092 52.6231 125.548 52.7932 125.616 52.6997C125.66 52.6313 125.717 52.5686 125.771 52.5098L125.771 52.5097C125.811 52.4662 125.849 52.4248 125.878 52.385C125.924 52.3126 125.977 52.2748 126.032 52.2352C126.067 52.2097 126.103 52.1835 126.14 52.1469C126.158 52.1285 126.177 52.1077 126.197 52.086C126.261 52.0176 126.331 51.9411 126.402 51.9088C126.495 51.8323 126.689 51.8578 126.782 51.9088C126.951 52.0279 127.289 52.2234 127.525 52.1724C127.592 52.1518 127.647 52.134 127.694 52.1189C127.819 52.0787 127.884 52.0578 127.95 52.0526C128.022 52.0469 128.096 52.0599 128.25 52.0872C128.338 52.1028 128.452 52.1229 128.607 52.1469C128.704 52.0023 128.799 51.8642 128.894 51.726C128.989 51.5878 129.084 51.4496 129.181 51.305C129.181 51.305 129.156 50.7948 129.257 50.8458C129.35 50.9056 129.68 50.4875 129.852 50.2695L129.852 50.2694C129.9 50.2085 129.936 50.1633 129.95 50.1485C129.976 50.0975 130.001 50.072 130.026 50.055C130.064 49.9851 130.111 49.9247 130.154 49.8703C130.169 49.8518 130.182 49.8341 130.195 49.8168C130.228 49.784 130.25 49.7547 130.273 49.7244C130.278 49.718 130.283 49.7115 130.288 49.705C130.296 49.6944 130.304 49.6835 130.314 49.6723C130.321 49.6723 130.345 49.662 130.372 49.6498C130.439 49.6207 130.53 49.5807 130.483 49.6468C130.508 49.6468 130.457 49.6978 130.457 49.6978C130.406 49.7913 130.221 49.9614 130.221 49.9614C130.221 49.9614 130.102 50.157 130.145 50.1825C130.157 50.1825 130.164 50.1761 130.167 50.1729C130.167 50.1724 130.168 50.1719 130.168 50.1716C130.17 50.1702 130.17 50.172 130.17 50.1825C130.187 50.1994 130.204 50.1827 130.206 50.1844C130.207 50.1852 130.204 50.1908 130.195 50.208C130.145 50.2689 130.096 50.292 130.056 50.3105C130.001 50.336 129.966 50.3526 129.976 50.4461V50.5227C129.991 50.5801 129.933 50.6023 129.865 50.6285C129.822 50.6451 129.775 50.6632 129.739 50.6927C129.714 50.7693 129.646 50.8628 129.57 50.9309C129.527 50.9596 129.533 50.9641 129.546 50.9746C129.556 50.9828 129.57 50.9947 129.57 51.0244C129.552 51.0929 129.533 51.1112 129.508 51.1361C129.503 51.1409 129.498 51.146 129.492 51.1517C129.488 51.1568 129.482 51.1625 129.477 51.169C129.439 51.1945 129.41 51.2242 129.38 51.254C129.35 51.2838 129.321 51.3135 129.283 51.339C129.232 51.3646 129.207 51.3901 129.19 51.4156V51.3901C129.19 51.3901 129.165 51.4411 129.139 51.4666C129.155 51.4666 129.161 51.4569 129.169 51.4434C129.174 51.4351 129.18 51.4253 129.19 51.4156L129.19 51.4486C129.193 51.6106 129.203 52.2149 129.072 52.2149C129.135 52.1507 129.009 52.0564 128.936 52.0027L128.936 52.0026C128.922 51.9924 128.911 51.9836 128.903 51.9768C128.89 52.0151 128.877 52.0512 128.865 52.0873L128.864 52.0877C128.852 52.1237 128.839 52.1598 128.827 52.1979C128.866 52.1979 128.909 52.2047 128.952 52.2113C128.992 52.2174 129.03 52.2234 129.063 52.2234C129.042 52.2446 129.016 52.2632 128.99 52.2815C128.923 52.3294 128.857 52.3754 128.894 52.4616C128.911 52.5118 128.884 52.5584 128.856 52.6061C128.841 52.6311 128.827 52.6564 128.818 52.6827C128.818 52.6886 128.818 52.6986 128.818 52.7119C128.817 52.7249 128.817 52.7411 128.817 52.7598C128.812 52.969 128.801 53.499 128.843 53.499C128.843 53.499 128.463 53.9327 128.505 54.0093C128.576 54.0993 128.39 54.3302 128.262 54.489C128.221 54.5402 128.186 54.584 128.168 54.6131C128.14 54.6499 128.113 54.6859 128.087 54.7214L128.087 54.7216C127.971 54.8744 127.863 55.0189 127.787 55.1913C127.743 55.2756 127.595 55.4349 127.452 55.5902C127.349 55.7014 127.247 55.8106 127.187 55.8886C127.044 56.0584 126.901 56.2261 126.757 56.3937L126.757 56.3946C126.613 56.5626 126.469 56.7305 126.326 56.9006L130.88 57.3853C131.361 57.4364 131.741 57.8445 131.741 58.3548V81.0857C131.741 81.596 131.336 82.0042 130.829 82.0552L127.28 82.2763L127.762 82.7865L127.542 82.9821L128.455 84.0451L128.505 84.0706L128.244 84.3342V84.3087H128.218C128.084 84.162 127.945 84.0005 127.796 83.8277C127.625 83.6298 127.441 83.4171 127.238 83.1947C127.134 83.0695 127.02 82.9385 126.901 82.8018L126.901 82.8016C126.77 82.6506 126.632 82.4924 126.495 82.3273H126.402C126.664 82.6164 126.928 82.9118 127.191 83.2073C127.456 83.5028 127.72 83.7984 127.982 84.0876C129.325 85.5843 130.643 87.0555 131.86 88.4756L131.598 88.7138L131.547 88.6372C131.078 88.1183 130.611 87.5993 130.144 87.0804L130.139 87.0754C129.674 86.5585 129.209 86.0416 128.742 85.5248L128.505 85.7459H128.48C127.787 84.972 127.069 84.1557 126.351 83.3308L126.275 83.3818C126.706 84.1301 126.942 84.6829 126.824 84.853C126.655 85.0741 126.3 84.972 125.624 84.4873H125.599L125.624 84.4788ZM99.268 87.3793C99.2715 87.3732 99.275 87.3673 99.2785 87.3616C99.2821 87.3557 99.2856 87.3501 99.2891 87.3446L99.2637 87.3956C99.265 87.39 99.2664 87.3846 99.268 87.3793ZM110.847 62.105L111.996 63.7718L112.951 65.1494L113.095 65.3418L113.095 65.3418C113.335 65.6625 113.578 65.9872 113.838 66.3059C113.906 66.1873 113.973 66.0704 114.04 65.9548L114.041 65.9538L114.041 65.9537C114.233 65.622 114.419 65.3006 114.582 64.9793C114.582 64.9578 114.573 64.959 114.566 64.9599C114.557 64.9611 114.552 64.9617 114.582 64.9028C114.688 64.7499 114.74 64.7139 114.872 64.6217L114.92 64.5881C114.933 64.602 114.94 64.6233 114.947 64.6466C114.952 64.6664 114.959 64.6877 114.97 64.7072C114.981 64.6737 114.997 64.6419 115.013 64.6102C115.034 64.5695 115.054 64.5291 115.063 64.4861C115.052 64.4752 115.037 64.4642 115.021 64.4533C115.001 64.4387 114.98 64.4241 114.97 64.4096C114.92 64.4351 114.877 64.4606 114.827 64.5031C114.827 64.4521 114.945 64.282 114.996 64.265C115.046 64.214 115.072 64.1885 115.114 64.1715C115.114 64.197 115.139 64.2225 115.165 64.2225C115.283 64.0014 115.359 63.8823 115.545 63.6952C115.556 63.6727 115.572 63.6518 115.588 63.6312C115.608 63.605 115.628 63.5792 115.638 63.5507V63.7207C115.638 63.7207 115.731 63.6017 115.781 63.5252C115.832 63.4316 116.145 63.0659 116.238 62.9724C116.333 62.8936 116.606 62.7587 116.772 62.6767C116.857 62.6349 116.914 62.6067 116.905 62.6067C116.981 62.6067 117.023 62.6067 117.099 62.5812L110.847 62.0965V62.105ZM120.386 75.2095C120.501 75.3506 120.622 75.5036 120.753 75.6686C120.843 75.782 120.937 75.9012 121.037 76.0259L121.113 76.0004C121.032 75.9099 120.949 75.8195 120.867 75.7287C120.709 75.5548 120.55 75.3798 120.395 75.201L120.386 75.2095ZM105.333 64.4812L105.332 64.4803C104.924 63.9031 104.521 63.3334 104.147 62.7853C103.975 62.5404 103.802 62.2862 103.63 62.0321C103.515 61.8627 103.4 61.6934 103.285 61.5267L102.398 61.4502L101.562 61.9604V77.259C101.562 77.3355 101.587 77.378 101.638 77.4291C101.689 77.4801 101.756 77.5056 101.832 77.5056L104.418 77.3355C104.481 77.2547 104.559 77.1817 104.633 77.1138C104.667 77.0818 104.7 77.0509 104.73 77.0209C104.771 76.9869 104.812 76.9542 104.853 76.9216C104.956 76.84 105.059 76.7585 105.161 76.6552C105.305 76.5361 105.423 76.3661 105.474 76.196C105.474 76.196 105.837 75.7878 105.981 75.5922C106.074 75.4476 106.361 75.2095 106.361 75.2095C106.623 74.8949 106.885 74.5802 107.172 74.2656C107.172 74.2656 107.341 73.9765 107.459 73.8574C107.983 73.1601 108.515 72.4798 109.065 71.808C109.259 71.5699 109.808 71.0341 109.808 71.0341L109.901 70.9151C108.646 69.1988 107.435 67.4676 106.247 65.7701L105.998 65.413H105.989C105.771 65.1017 105.551 64.7904 105.333 64.4812ZM121.13 62.9044L121.079 62.9554C120.722 63.4044 120.346 63.827 119.967 64.2523L119.966 64.2525L119.812 64.4266C119.643 64.6222 119.186 65.0048 119.186 65.0048L119.167 65.0336C119.125 65.0984 119.087 65.1559 119.043 65.2004C118.983 65.2606 118.923 65.32 118.863 65.3788C118.835 65.4064 118.807 65.434 118.78 65.4614C118.607 65.6315 118.437 65.7992 118.274 65.9743C118.274 65.9743 117.894 66.3144 117.868 66.4335C117.868 66.5365 117.811 66.6077 117.736 66.7022C117.724 66.7169 117.712 66.7321 117.699 66.7481C117.393 67.1594 117.279 67.2524 117.041 67.4462C116.944 67.5248 116.827 67.6201 116.669 67.7601C116.609 67.8294 116.546 67.9008 116.482 67.9729L116.482 67.9733C116.366 68.1045 116.248 68.2377 116.145 68.3639H116.052L115.765 68.7721L116.026 69.1122C117.843 71.4083 119.719 73.6533 121.729 75.9409L124.653 75.5582V63.4231C124.653 63.2785 124.56 63.185 124.433 63.185L121.13 62.9214V62.9044ZM114.497 76.9273C113.61 75.8388 112.723 74.7078 111.886 73.5938H111.861C111.692 73.5938 111.38 73.8829 111.312 73.9595C111.145 74.1274 110.966 74.3027 110.785 74.4801L110.785 74.4804C110.416 74.8422 110.038 75.2132 109.732 75.5497C109.542 75.7921 109.362 76.045 109.183 76.298C109.003 76.551 108.824 76.804 108.634 77.0464L113.331 76.7572L113.956 77.1654L114.506 76.9273H114.497ZM100.793 87.8549L100.717 87.9314C100.717 87.9314 100.692 87.9569 100.666 87.9569L100.666 87.9569C100.692 87.9314 100.717 87.9059 100.717 87.8804C100.717 87.8931 100.736 87.8804 100.755 87.8676C100.774 87.8549 100.793 87.8421 100.793 87.8549ZM98.8498 87.7783L98.9005 87.6848C98.9258 87.7613 98.9511 87.7783 98.9258 87.6848C98.9258 87.6848 98.9511 87.6848 98.9511 87.6593V87.7358C98.9511 87.7358 98.8582 87.8123 98.8582 87.7868L98.8498 87.7783ZM130.356 49.7403L130.305 49.7658C130.339 49.6865 130.33 49.695 130.28 49.7913C130.28 49.7913 130.229 49.8168 130.204 49.8424C130.204 49.9189 130.297 49.8168 130.297 49.7913H130.305L130.356 49.7403ZM99.23 87.6593C99.1896 87.5983 99.2296 87.5104 99.2603 87.4428C99.2682 87.4255 99.2755 87.4095 99.2807 87.3956C99.2915 87.4283 99.2977 87.4548 99.3032 87.4783L99.3032 87.4784C99.3106 87.51 99.3168 87.5365 99.3313 87.5657C99.3313 87.5657 99.2807 87.7358 99.2384 87.6593H99.23ZM130.66 49.5022L130.609 49.5277V49.5022C130.609 49.5022 130.66 49.4767 130.66 49.5022ZM130.727 49.3388C130.727 49.3362 130.727 49.334 130.726 49.3322L130.728 49.3321C130.728 49.3321 130.778 49.2811 130.778 49.3066L130.728 49.3576C130.728 49.3509 130.728 49.3441 130.727 49.3388ZM130.712 49.3396C130.713 49.3385 130.713 49.3375 130.714 49.3366C130.718 49.3341 130.722 49.3325 130.726 49.3322C130.725 49.3293 130.724 49.3277 130.722 49.3283C130.72 49.3288 130.717 49.3313 130.714 49.3366C130.694 49.349 130.677 49.3831 130.677 49.3831L130.702 49.3576C130.706 49.35 130.709 49.3441 130.712 49.3396ZM130.415 49.8849L130.414 49.8858C130.402 49.8509 130.298 49.9189 130.322 49.9189C130.321 49.9199 130.319 49.921 130.317 49.9223C130.315 49.913 130.312 49.9117 130.306 49.9329C130.28 49.9607 130.246 50.0124 130.246 50.0124L130.297 49.9869C130.299 49.9721 130.301 49.96 130.303 49.9504C130.304 49.9433 130.305 49.9376 130.306 49.9329C130.31 49.9288 130.314 49.9252 130.317 49.9223C130.321 49.9367 130.322 49.9702 130.322 49.9702L130.322 49.9614L130.414 49.8858C130.414 49.8867 130.414 49.8877 130.415 49.8887C130.415 49.8901 130.415 49.8917 130.415 49.8934V49.8849ZM103.919 106.164L104.084 106.164H104.084C105.456 106.165 109.276 106.168 110.264 105.679C110.771 105.415 111.008 103.987 111.101 103.366C111.429 100.987 111.422 100.927 111.342 100.259C111.294 99.8626 111.221 99.2517 111.177 97.8129C111.169 97.7072 111.173 97.4969 111.178 97.2472C111.19 96.6939 111.205 95.9469 111.101 95.7125C110.906 95.2788 110.045 95.3043 109.571 95.3723C102.745 96.1462 95.8419 96.92 88.9476 97.6854L92.7327 32.2052C92.7421 32.035 92.791 31.8553 92.8389 31.6793C92.9202 31.3807 92.9986 31.0926 92.8764 30.8786C92.5891 30.3939 91.4907 30.3259 90.9078 30.3004C87.6161 30.2186 86.6101 30.2251 84.746 30.2372C83.8972 30.2427 82.8704 30.2493 81.3689 30.2493C81.0056 30.2493 80.6001 30.3684 80.4564 30.6575C80.2431 31.054 80.3963 32.5895 80.4518 33.145L80.4564 33.1917C80.9127 37.521 80.3245 74.7213 80.0419 92.5921L80.0418 92.5991C79.9686 97.2259 79.9159 100.556 79.9073 101.682C79.9031 102.014 79.8842 102.339 79.8661 102.651V102.651C79.7735 104.245 79.7005 105.5 81.7069 105.543C84.7437 105.603 87.7934 105.72 90.8455 105.837L90.846 105.837C95.2066 106.005 99.5718 106.172 103.911 106.172L103.919 106.164ZM165.85 45.0972H156.607C156.488 45.0972 156.387 45.1737 156.37 45.3183L153.666 70.3708C153.641 70.6089 153.447 70.779 153.21 70.8045C152.99 70.83 152.779 70.6599 152.729 70.4388L147.913 51.0159C147.862 50.8968 147.769 50.8203 147.676 50.8203L137.495 51.1094C137.377 51.135 137.275 51.203 137.259 51.3305L134.073 85.2612C134.073 85.3377 134.099 85.4057 134.149 85.4568C134.2 85.5078 134.242 85.5333 134.318 85.5333H143.063C143.181 85.5333 143.283 85.4397 143.3 85.3122L145.623 68.4914C145.648 68.3979 145.716 68.3214 145.817 68.2703C145.91 68.2448 146.012 68.2959 146.079 68.3639L161.6 89.5982C161.862 89.9383 162.267 90.0829 162.656 89.9638C163.045 89.8448 163.324 89.5046 163.349 89.0964L166.103 45.3438C166.103 45.2673 166.078 45.2247 166.027 45.1737C165.976 45.1227 165.934 45.0972 165.858 45.0972H165.85ZM171.308 88.127L192.607 82.4294L192.32 107.575L203.726 106.368L201.496 54.3154L168.798 54.409C168.537 54.409 168.317 54.6301 168.317 54.8937L168.08 85.8309C168.055 87.3021 170.353 88.6032 171.316 88.127H171.308ZM192.126 64.1629L175.431 64.5966L175.836 77.1654L192.346 73.3557L192.126 64.1629ZM14.8798 69.9753V85.8039H50.5418V52.8118L47.1091 50.3326L26.3222 56.0538V31.4526L13.5449 32.4062V59.4865L5.53516 61.5842C6.36156 64.3812 8.12879 70.2423 8.58648 71.3102C9.04418 72.3782 12.9727 70.8652 14.8798 69.9753ZM51.4954 84.469L54.1653 52.8118H75.1429L73.808 62.9192L59.505 61.5842L68.2775 69.9753L59.505 72.8359L75.1429 74.3615V84.469H51.4954ZM41.878 62.9502L26.0618 69.3278V75.4501H41.878V62.9502Z" fill="black"/>
<path fill-rule="evenodd" clip-rule="evenodd" d="M101.942 27.5036L171.199 13.699L158.954 27.5036L173.143 37.2451L105.601 49.706L101.942 27.5036ZM152.068 34.5018L152.201 35.2092C152.323 35.8522 152.465 36.4534 152.628 37.0126L153.865 36.9119C153.761 36.494 153.669 36.0768 153.59 35.6603C153.512 35.2438 153.426 34.7588 153.334 34.2053C153.719 32.7497 154.016 31.3329 154.225 29.955L153.14 30.0553C153.027 31.0028 152.821 32.0788 152.522 33.2835C151.913 32.4091 151.476 31.6416 151.212 30.9811L150.043 31.088C150.27 31.819 150.945 32.9569 152.068 34.5018ZM148.561 37.7335C148.295 36.661 148.086 35.7236 147.934 34.9213C147.782 34.1128 147.641 33.2672 147.512 32.3844L146.421 32.7525L146.017 31.725C146.598 31.5074 147.177 31.3185 147.756 31.1584L149.457 30.7418L149.824 31.7286C149.491 31.8106 149.116 31.91 148.7 32.0266C148.83 32.9155 148.965 33.7274 149.104 34.4624C149.243 35.1973 149.454 36.2484 149.738 37.6157L148.561 37.7335ZM145.769 35.0452C145.539 33.8325 145.361 32.7371 145.233 31.759L143.972 31.8832C144.13 33.0205 144.304 34.0945 144.495 35.105C144.685 36.1095 144.938 37.2289 145.254 38.4633L146.515 38.3391C146.247 37.3558 145.998 36.2578 145.769 35.0452ZM142.392 32.1819L143.209 36.4521C143.342 37.1564 143.46 37.9175 143.564 38.7352L142.516 38.8286C141.387 37.1834 140.487 35.9612 139.815 35.1619C139.993 36.0672 140.269 37.5121 140.644 39.4964L139.547 39.5802C139.456 39.2039 139.378 38.8382 139.311 38.483C139.031 37.0008 138.787 35.258 138.579 33.2546L139.824 33.1431C140.746 34.7005 141.531 35.8683 142.18 36.6466C141.793 34.8039 141.475 33.3543 141.225 32.2979L142.392 32.1819ZM135.513 38.8297C135.325 38.6052 135.201 38.3337 135.14 38.0153C134.888 36.6801 134.702 35.3291 134.584 33.9623L133.312 34.0791C133.447 35.5695 133.637 36.9609 133.882 38.2532C133.993 38.8411 134.283 39.3381 134.753 39.744C135.224 40.15 135.725 40.3026 136.258 40.2019C136.797 40.1 137.191 39.8511 137.439 39.4552C137.552 39.2816 137.641 39.0808 137.706 38.8529C137.771 38.625 137.814 38.4011 137.836 38.1813C137.858 37.9615 137.865 37.7287 137.856 37.4829C137.848 37.2371 137.833 37.0242 137.812 36.8443C137.789 36.6582 137.735 36.3386 137.649 35.8854C137.564 35.4321 137.359 34.5828 137.035 33.3373L135.761 33.4449C136.079 34.6915 136.3 35.6425 136.424 36.2978C136.547 36.947 136.612 37.5278 136.62 38.0401C136.624 38.3311 136.584 38.5733 136.5 38.7668C136.416 38.9603 136.276 39.0756 136.08 39.1126C135.891 39.1485 135.701 39.0542 135.513 38.8297ZM128.067 41.6452C127.717 40.062 127.466 38.8662 127.313 38.0578C127.16 37.2493 127.049 36.3759 126.98 35.4375L128.733 35.2489C129.093 35.9801 129.524 37.0182 130.026 38.3634C130.157 37.1777 130.231 35.9077 130.247 34.5534L132.013 34.3814C132.42 36.2646 132.706 37.6442 132.872 38.52C133.036 39.3897 133.155 40.1697 133.228 40.8599L131.947 40.9784C131.881 40.1917 131.639 38.5436 131.222 36.0344L131.147 36.0391C131.131 36.2895 131.11 36.7184 131.085 37.3257C131.032 38.5855 130.954 39.666 130.851 40.5671L130.001 40.6516C129.743 40.0914 129.428 39.3644 129.056 38.4705C128.689 37.5693 128.412 36.908 128.225 36.4867L128.149 36.4915C128.591 38.5267 128.975 40.2049 129.301 41.5262L128.067 41.6452ZM121.062 39.2394C121.215 40.0479 121.466 41.2437 121.816 42.8268L123.05 42.7079C122.724 41.3866 122.34 39.7083 121.899 37.6731L121.974 37.6684C122.161 38.0897 122.438 38.751 122.805 39.6521C123.177 40.546 123.492 41.2731 123.751 41.8333L124.6 41.7487C124.703 40.8476 124.781 39.7672 124.835 38.5074C124.859 37.9 124.88 37.4712 124.896 37.2207L124.971 37.216C125.388 39.7253 125.63 41.3733 125.696 42.1601L126.978 42.0416C126.904 41.3513 126.785 40.5714 126.621 39.7017C126.455 38.8258 126.169 37.4463 125.762 35.5631L123.997 35.7351C123.98 37.0894 123.906 38.3594 123.775 39.545C123.273 38.1999 122.842 37.1617 122.482 36.4305L120.729 36.6192C120.798 37.5576 120.909 38.431 121.062 39.2394ZM118.673 43.6874C118.091 43.7974 117.549 43.6303 117.046 43.1861C116.548 42.7346 116.199 41.9761 115.997 40.9104C115.795 39.8386 115.847 38.9247 116.155 38.1688C116.468 37.4117 116.922 36.977 117.516 36.8648C118.11 36.7525 118.653 36.9226 119.145 37.3753C119.642 37.8267 119.991 38.5822 120.192 39.6418C120.392 40.7014 120.336 41.6127 120.023 42.3759C119.711 43.1391 119.261 43.5763 118.673 43.6874ZM117.732 37.9563C117.463 38.0072 117.275 38.2901 117.169 38.8048C117.062 39.3135 117.077 39.9291 117.214 40.6519C117.349 41.3684 117.533 41.8857 117.764 42.2035C118 42.5141 118.244 42.6456 118.495 42.5981C118.746 42.5507 118.922 42.2701 119.021 41.7565C119.127 41.2418 119.112 40.6261 118.977 39.9095C118.84 39.1868 118.657 38.6696 118.426 38.3579C118.202 38.045 117.971 37.9111 117.732 37.9563ZM112.472 40.1019C112.548 39.3962 112.72 39.0178 112.99 38.9669C113.1 38.946 113.199 38.9813 113.286 39.0727C113.471 39.247 113.638 39.7292 113.788 40.5193L114.994 40.4055C114.892 39.9362 114.775 39.5016 114.643 39.1017C114.563 38.8502 114.471 38.6488 114.367 38.4973C114.268 38.3447 114.148 38.1992 114.008 38.0608C113.726 37.7778 113.34 37.6827 112.85 37.7753C112.452 37.8505 112.123 38.0555 111.863 38.3901C111.608 38.7175 111.434 39.1087 111.342 39.5637C111.148 40.4822 111.136 41.3916 111.306 42.2919C111.452 43.0636 111.75 43.667 112.2 44.1021C112.655 44.5299 113.214 44.6813 113.875 44.5562C114.439 44.4497 114.839 44.1679 115.076 43.7108C115.319 43.2524 115.449 42.6316 115.466 41.8482L114.282 41.9768C114.257 42.2479 114.231 42.4622 114.204 42.6196C114.183 42.7759 114.124 42.936 114.028 43.1C113.937 43.2568 113.812 43.3502 113.653 43.3803C113.089 43.4868 112.706 43.0011 112.502 41.9231C112.405 41.4087 112.395 40.8016 112.472 40.1019ZM154.876 21.0999L155.692 25.3701C155.826 26.0744 155.944 26.8354 156.048 27.6531L155 27.7466C153.87 26.1014 152.97 24.8792 152.299 24.0799C152.476 24.9852 152.753 26.43 153.128 28.4144L152.03 28.4982C151.94 28.1219 151.862 27.7562 151.794 27.4009C151.514 25.9188 151.27 24.176 151.063 22.1726L152.308 22.0611C153.23 23.6185 154.015 24.7863 154.663 25.5646C154.277 23.7219 153.959 22.2723 153.708 21.2159L154.876 21.0999ZM150.048 25.514C149.818 24.3013 149.64 23.2059 149.512 22.2278L148.251 22.352C148.409 23.4894 148.583 24.5633 148.774 25.5739C148.964 26.5783 149.217 27.6977 149.533 28.9321L150.794 28.8079C150.526 27.8247 150.277 26.7267 150.048 25.514ZM146.787 29.2325L146.334 27.9955L144.976 28.3093L144.953 30.1025L143.646 30.2353L144.031 23.2639L145.759 23.0897L148.14 29.091L146.787 29.2325ZM145.021 24.3233L144.983 27.2899L146.005 27.0586L145.021 24.3233ZM139.519 27.0284L139.31 25.9737C139.206 25.4225 139.121 24.8708 139.054 24.3188L137.821 24.4378C137.921 25.2371 138.074 26.1788 138.279 27.2629C138.484 28.3469 138.742 29.5287 139.054 30.8083L140.324 30.6824C140.117 29.789 139.922 28.9092 139.739 28.043L141.074 27.705C141.306 28.8664 141.5 29.7052 141.654 30.2215L142.85 30.1003C142.566 28.9677 142.317 27.8349 142.102 26.7019C141.887 25.5627 141.715 24.501 141.586 23.5167L140.353 23.6357C140.525 24.7133 140.701 25.7298 140.881 26.6853L139.519 27.0284ZM135.098 26.0658C134.828 26.1167 134.656 26.4951 134.58 27.2008C134.503 27.9005 134.513 28.5076 134.61 29.0221C134.814 30.1 135.197 30.5857 135.761 30.4792C135.92 30.4491 136.045 30.3557 136.136 30.1989C136.232 30.0349 136.291 29.8748 136.312 29.7185C136.339 29.5611 136.365 29.3469 136.39 29.0757L137.574 28.9471C137.557 29.7305 137.427 30.3514 137.184 30.8097C136.947 31.2668 136.547 31.5486 135.983 31.6551C135.322 31.7802 134.763 31.6288 134.308 31.201C133.858 30.7659 133.56 30.1625 133.414 29.3908C133.244 28.4905 133.256 27.5811 133.45 26.6626C133.542 26.2076 133.716 25.8164 133.971 25.489C134.231 25.1544 134.56 24.9494 134.958 24.8742C135.448 24.7816 135.834 24.8767 136.116 25.1597C136.256 25.2981 136.376 25.4436 136.475 25.5962C136.579 25.7477 136.671 25.9492 136.751 26.2006C136.883 26.6005 137 27.0351 137.102 27.5044L135.896 27.6182C135.746 26.8281 135.579 26.3459 135.394 26.1716C135.307 26.0802 135.208 26.0449 135.098 26.0658ZM128.564 29.4323C128.786 30.6082 129.008 31.6607 129.228 32.5897L130.512 32.4896C130.339 31.8056 130.146 30.9032 129.934 29.7824C130.81 30.8601 131.669 31.6778 132.51 32.2356L133.175 31.1204C132.511 30.732 131.781 30.1088 130.985 29.2507C131.518 27.9446 131.922 26.8089 132.196 25.8436L130.952 25.6031C130.722 26.5346 130.341 27.7072 129.809 29.1209C129.597 28.0001 129.45 27.0542 129.368 26.2831L128.086 26.4016C128.183 27.2461 128.342 28.2564 128.564 29.4323ZM125.387 27.9013C125.118 27.9523 124.945 28.3306 124.869 29.0364C124.792 29.7361 124.802 30.3432 124.899 30.8576C125.103 31.9356 125.487 32.4213 126.05 32.3148C126.209 32.2847 126.334 32.1913 126.425 32.0345C126.521 31.8705 126.58 31.7104 126.601 31.5541C126.628 31.3967 126.654 31.1824 126.679 30.9113L127.863 30.7826C127.847 31.5661 127.716 32.1869 127.473 32.6452C127.236 33.1024 126.836 33.3842 126.272 33.4907C125.611 33.6157 125.053 33.4644 124.598 33.0366C124.147 32.6015 123.849 31.9981 123.703 31.2264C123.533 30.3261 123.545 29.4167 123.74 28.4982C123.831 28.0432 124.005 27.652 124.26 27.3246C124.52 26.99 124.849 26.785 125.248 26.7098C125.738 26.6172 126.123 26.7123 126.405 26.9953C126.546 27.1337 126.665 27.2792 126.764 27.4318C126.869 27.5833 126.961 27.7847 127.04 28.0362C127.172 28.4361 127.289 28.8707 127.391 29.34L126.185 29.4538C126.036 28.6637 125.868 28.1815 125.683 28.0072C125.596 27.9158 125.497 27.8805 125.387 27.9013ZM119.669 33.9681C120.171 34.4123 120.714 34.5794 121.296 34.4694C121.884 34.3583 122.334 33.9211 122.646 33.1579C122.959 32.3948 123.015 31.4834 122.815 30.4238C122.614 29.3642 122.265 28.6087 121.768 28.1573C121.276 27.7046 120.733 27.5345 120.139 27.6468C119.545 27.7591 119.091 28.1937 118.778 28.9508C118.47 29.7067 118.418 30.6206 118.62 31.6924C118.822 32.7581 119.171 33.5166 119.669 33.9681ZM119.792 29.5868C119.898 29.0721 120.086 28.7892 120.355 28.7383C120.594 28.6931 120.825 28.827 121.049 29.1399C121.28 29.4516 121.463 29.9688 121.6 30.6915C121.735 31.4081 121.75 32.0238 121.644 32.5385C121.545 33.0522 121.369 33.3327 121.118 33.3802C120.867 33.4276 120.623 33.2961 120.387 32.9855C120.156 32.6677 119.972 32.1504 119.837 31.4339C119.7 30.7112 119.685 30.0955 119.792 29.5868ZM115.781 35.1313C115.463 33.8847 115.205 32.7377 115.007 31.6904C114.808 30.637 114.661 29.6752 114.566 28.805L115.809 28.6843C115.916 29.7551 116.061 30.7713 116.243 31.7328C116.424 32.6944 116.573 33.3989 116.69 33.8464C116.904 33.7741 117.435 33.6104 118.281 33.3553L118.666 34.3862C118.217 34.5282 117.585 34.7427 116.771 35.03L115.781 35.1313ZM111.318 29.3619C110.742 29.4707 110.117 29.7031 109.442 30.059C109.685 31.009 109.892 31.9342 110.062 32.8345C110.232 33.7348 110.399 34.8515 110.562 36.1845C111.552 36.0862 112.084 36.0301 112.157 36.0162C112.727 35.9085 113.235 35.6125 113.683 35.1283C114.129 34.6379 114.306 34.1447 114.212 33.6486C114.085 32.9749 113.639 32.5612 112.874 32.4076C113.558 31.866 113.836 31.2552 113.707 30.5754C113.622 30.1222 113.348 29.7807 112.886 29.5508C112.422 29.3149 111.9 29.2519 111.318 29.3619ZM112.129 30.5312C112.336 30.619 112.457 30.7547 112.491 30.9385C112.541 31.2018 112.413 31.4829 112.108 31.7816C111.802 32.0742 111.51 32.2594 111.233 32.3371C111.163 31.9635 111.046 31.4115 110.882 30.6812C111.101 30.5637 111.312 30.4859 111.514 30.4477C111.722 30.4083 111.927 30.4362 112.129 30.5312ZM112.745 34.4967C112.549 34.6988 112.349 34.8189 112.147 34.8571C111.945 34.8953 111.787 34.9157 111.674 34.9181C111.618 34.5545 111.527 34.0101 111.403 33.2851C111.826 33.2431 112.185 33.2769 112.478 33.3863C112.772 33.4958 112.939 33.6577 112.979 33.8721C113.019 34.0803 112.941 34.2885 112.745 34.4967Z" fill="#A6F805"/>
</g>
<defs>
<clipPath id="clip0_902_35">
<rect width="212.87" height="113.39" fill="white"/>
</clipPath>
</defs>
</svg>
