<svg width="214" height="110" viewBox="0 0 214 110" fill="none" xmlns="http://www.w3.org/2000/svg">
<path fill-rule="evenodd" clip-rule="evenodd" d="M40.6761 43.5424L36.6473 18.9541L6.25645 21.8376L9.10511 52.7406L0.769043 56.5489L4.40428 71.6091L9.10511 70.0257V89.9255H53.4321H73.0856V109.312H102.704H120.789L122.175 89.9255H152.156L167.776 97.9301L170.625 89.9255H185.131L184.762 107.219L194.595 109.303L213.634 107.219L209.471 64.8548L207.547 37.3901L177.207 37.5816H174.288L173.911 33.1595H154.342L152.156 37.5816L102.704 37.1129V22.23L76.9662 18.1194L72.1239 42.0291L40.6761 43.5424Z" fill="black"/>
<path fill-rule="evenodd" clip-rule="evenodd" d="M40.6761 43.5424L36.6473 18.9541L6.25645 21.8376L9.10511 52.7405L0.769043 56.5489L4.40428 71.6091L9.10511 70.0256V89.9256H53.4321H73.0856V109.312H102.704H120.789L122.175 89.9256H152.156L167.776 97.9301L170.625 89.9256H185.131L184.762 107.219L194.595 109.303L213.634 107.219L209.471 64.8548L207.547 37.3901H184.473H182.163L180.508 36.1026L166.062 22.1901L178.241 3.22925L98.2587 21.5737L76.9662 18.1194L72.1238 42.029L40.6761 43.5424Z" fill="black"/>
<path d="M117.987 71.5476C118.223 71.8112 118.468 72.1004 118.705 72.364L118.899 72.3385C117.531 70.5527 116.238 68.7158 115.021 66.9555C114.97 66.981 114.945 67.032 114.878 67.0746V66.9555L114.827 67.032L114.92 67.1511L114.97 67.1256C114.97 67.1256 114.945 67.1511 114.92 67.1766L115.258 67.6358C115.765 68.4097 116.289 69.1835 116.956 70.1955C117.1 70.3911 117.463 70.8673 117.987 71.5476ZM126.393 80.4002C125.65 79.7709 124.932 79.1246 124.214 78.4188L123.732 78.4443L123.825 78.5378L123.631 78.7079C124.256 79.4307 124.873 80.1281 125.498 80.8594C126.478 81.9479 127.416 83.0109 128.345 84.0909L128.083 84.329L128.058 84.3035C127.145 83.2915 126.241 82.254 125.329 81.2166L124.011 79.7454C124.704 80.8594 125.109 81.7013 124.949 81.9139C124.712 82.1775 123.867 81.7183 122.144 80.2046C121.594 79.6944 121.045 79.1926 120.513 78.6569L113.306 79.0906L108.71 79.9325H103.919L103.869 80.026C103.776 80.1196 103.7 80.2216 103.632 80.3152C103.556 80.4087 103.488 80.5363 103.412 80.6298C103.387 80.7489 103.556 81.089 103.531 81.0635C103.531 81.0635 103.193 80.9444 103.15 81.038C103.074 81.1315 102.981 81.2081 102.931 81.3271C102.855 81.4037 102.787 81.4462 102.711 81.5482C102.66 81.5992 102.593 81.6928 102.517 81.7438C102.424 81.8203 102.297 81.8204 102.204 81.7693C102.086 81.6928 101.841 81.5482 101.655 81.5992C101.224 81.7693 101.435 81.7183 100.793 81.6928C100.65 81.9309 100.557 82.203 100.413 82.4411C100.413 82.4666 100.438 82.8238 100.388 82.8068C100.312 82.7558 100.126 83.0704 100.126 83.1214C100.1 83.198 100.05 83.2405 100.033 83.317C100.033 83.317 100.041 83.3 100.058 83.266C99.9652 83.4106 99.8385 83.7252 99.8385 83.7252C99.8131 83.6317 99.7455 83.8018 99.7202 83.8188C99.7455 83.7933 99.7709 83.7677 99.7709 83.7677C99.7962 83.8613 99.7962 83.9123 99.7962 83.7677C99.8216 83.7422 99.8469 83.7422 99.8723 83.7167C99.8469 83.7677 99.8469 83.8103 99.8216 83.8613C99.8216 83.8613 99.7709 83.8613 99.7709 83.8868C100.033 83.9633 101.351 83.8103 101.258 84.2014C101.258 84.2014 101.249 84.2185 101.233 84.2525L101.207 84.3035C99.2217 83.6997 99.5343 83.9888 99.7962 83.6062C99.7962 83.6062 99.8723 83.4616 99.8216 83.4361C99.7962 83.4361 99.7962 83.4616 99.7962 83.4361C99.7709 83.4106 99.7455 83.4616 99.7709 83.4106C99.8216 83.317 99.9399 83.317 99.9145 83.215C99.9145 83.164 99.8638 83.1214 99.9145 83.0959C100.058 82.9769 100.007 83.0449 100.083 82.9259C100.083 82.8748 100.134 82.8068 100.16 82.7813C100.21 82.7303 100.16 82.7558 100.16 82.6877C100.16 82.5687 100.396 82.4241 100.421 82.3221C100.421 82.2455 100.371 81.6673 100.497 81.6673C100.472 81.6928 100.497 81.7438 100.523 81.7608C100.548 81.7353 100.548 81.7098 100.548 81.6673H100.497C100.497 81.6673 100.523 81.6418 100.548 81.6418C100.523 81.5482 100.523 81.4207 100.455 81.3526C100.236 80.987 100.286 80.6978 100.05 80.3662C100.05 80.3662 100.1 80.3152 100.168 80.2216L95.783 80.6808C95.4957 80.7063 95.2338 80.6043 95.0141 80.4172C94.7945 80.2216 94.7015 79.958 94.7269 79.6689L95.0141 73.0783V50.5855C95.0141 50.3218 95.1071 50.0752 95.3267 49.8881C95.5464 49.6926 95.783 49.599 96.0702 49.6245L98.3261 49.8626C97.8192 49.2589 97.3207 48.6296 96.7969 48.0003C96.0787 47.1584 95.8421 46.5291 96.0787 45.9253C96.2984 45.3471 96.9912 44.8368 98.1402 44.1905L98.2332 44.165C100.1 44.2841 101.469 44.8368 102.542 45.6362C103.311 45.9508 103.64 46.1464 103.691 46.2655C103.742 46.41 103.691 46.4866 103.573 46.5291C104.485 47.473 105.229 48.6041 105.989 49.7861C106.158 50.0752 106.353 50.3644 106.538 50.6535L106.589 50.7045L123.259 52.4138C123.335 52.2947 123.428 52.1757 123.521 52.0992C123.74 51.9546 123.952 51.81 124.171 51.6655C124.222 51.5719 124.247 51.4954 124.29 51.4273C124.095 51.5209 123.909 51.5974 123.69 51.691C123.664 51.6144 123.884 51.4529 123.926 51.4273C123.901 51.4018 123.876 51.4018 123.85 51.4018C123.825 51.2828 123.757 51.3508 123.901 51.2062C124.095 51.0107 124.045 51.1552 124.045 51.2998C124.264 51.1807 124.45 51.0787 124.67 50.9596C124.746 50.8661 124.814 50.764 124.89 50.6705C125.033 50.5259 125.202 50.2878 125.295 50.1433C125.388 49.9987 125.489 49.8541 125.582 49.7351C125.658 49.6415 125.751 49.514 125.844 49.4204C125.92 49.3014 125.988 49.1823 126.081 49.0548C126.106 48.9357 125.861 48.5275 125.861 48.5445C125.861 48.5445 126.317 48.7146 126.385 48.6211C126.461 48.502 126.579 48.4 126.647 48.3064C126.723 48.1874 126.816 48.1618 126.909 48.0683C126.985 47.9918 127.078 47.8727 127.171 47.8302C127.264 47.7537 127.458 47.7792 127.551 47.8302C127.72 47.9492 128.058 48.1448 128.294 48.0938C128.844 47.9237 128.607 47.9493 129.376 48.0683C129.57 47.7792 129.756 47.5155 129.95 47.2264C129.95 47.2264 129.925 46.7162 130.026 46.7672C130.145 46.8437 130.652 46.1379 130.719 46.0699C130.745 46.0189 130.77 45.9933 130.795 45.9763C130.846 45.8828 130.914 45.8063 130.964 45.7382C131.015 45.6872 131.04 45.6447 131.083 45.5937C131.108 45.5937 131.319 45.4746 131.252 45.5682C131.277 45.5682 131.226 45.6192 131.226 45.6192C131.176 45.7127 130.99 45.8828 130.99 45.8828C130.99 45.8828 130.871 46.0784 130.914 46.1039C130.939 46.1039 130.939 46.0784 130.939 46.1039C130.964 46.1294 130.99 46.0784 130.964 46.1294C130.846 46.274 130.728 46.2059 130.745 46.3675V46.4441C130.77 46.5376 130.601 46.5376 130.508 46.6141C130.483 46.6907 130.415 46.7842 130.339 46.8522C130.263 46.9033 130.339 46.8778 130.339 46.9458C130.314 47.0393 130.288 47.0393 130.246 47.0904C130.17 47.1414 130.128 47.2094 130.052 47.2604C130.001 47.2859 129.976 47.3115 129.959 47.337V47.3115C129.959 47.3115 129.934 47.3625 129.908 47.388C129.934 47.388 129.934 47.3625 129.959 47.337C129.959 47.4135 129.984 48.1363 129.841 48.1363C129.917 48.0598 129.722 47.9407 129.672 47.8982C129.646 47.9748 129.621 48.0428 129.596 48.1193C129.672 48.1193 129.765 48.1448 129.832 48.1448C129.756 48.2214 129.612 48.2639 129.663 48.3829C129.689 48.4595 129.612 48.5275 129.587 48.604C129.587 48.6806 129.562 49.4204 129.612 49.4204C129.612 49.4204 129.232 49.8541 129.275 49.9307C129.367 50.0497 129.013 50.4154 128.937 50.5344C128.793 50.73 128.649 50.9001 128.556 51.1127C128.48 51.2573 128.1 51.6229 127.957 51.81C127.669 52.1502 127.382 52.4818 127.095 52.822L131.649 53.3067C132.13 53.3577 132.51 53.7659 132.51 54.2762V77.0071C132.51 77.5174 132.105 77.9256 131.598 77.9766L128.049 78.1977L128.531 78.7079L128.311 78.9035L129.224 79.9665L129.275 79.992L129.013 80.2556V80.2301H128.987C128.7 79.9155 128.387 79.5328 128.007 79.1161C127.788 78.8525 127.526 78.5633 127.264 78.2487H127.171C127.695 78.827 128.227 79.4307 128.751 80.009C130.094 81.5057 131.412 82.9769 132.629 84.397L132.367 84.6351L132.316 84.5586C131.378 83.5211 130.449 82.4837 129.511 81.4462L129.275 81.6673H129.249C128.556 80.8934 127.838 80.077 127.12 79.2522L127.044 79.3032C127.475 80.0515 127.711 80.6043 127.593 80.7744C127.424 80.9955 127.069 80.8934 126.393 80.4087H126.368L126.393 80.4002ZM111.616 58.0264L112.765 59.6932L113.72 61.0708C114.007 61.4535 114.295 61.8446 114.607 62.2273C114.869 61.7681 115.131 61.3344 115.351 60.9007C115.351 60.8497 115.3 60.9262 115.351 60.8242C115.469 60.6541 115.52 60.6286 115.689 60.5095C115.714 60.535 115.714 60.5861 115.739 60.6286C115.765 60.5521 115.815 60.484 115.832 60.4075C115.807 60.382 115.756 60.3565 115.739 60.3309C115.689 60.3565 115.646 60.382 115.596 60.4245C115.596 60.3735 115.714 60.2034 115.765 60.1864C115.815 60.1354 115.841 60.1098 115.883 60.0928C115.883 60.1184 115.908 60.1439 115.934 60.1439C116.052 59.9228 116.128 59.8037 116.314 59.6166C116.339 59.5656 116.39 59.5231 116.407 59.4721V59.6421C116.407 59.6421 116.5 59.5231 116.55 59.4465C116.601 59.353 116.914 58.9873 117.007 58.8938C117.15 58.7747 117.699 58.5281 117.674 58.5281C117.75 58.5281 117.792 58.5281 117.868 58.5026L111.616 58.0179V58.0264ZM121.155 71.1309C121.349 71.369 121.561 71.6412 121.806 71.9473L121.882 71.9218C121.645 71.6582 121.4 71.3945 121.164 71.1224L121.155 71.1309ZM106.758 61.3344C106.133 60.4415 105.491 59.5486 104.916 58.7067C104.629 58.2985 104.342 57.8648 104.054 57.4481L103.167 57.3716L102.331 57.8818V73.1804C102.331 73.2569 102.356 73.2994 102.407 73.3504C102.458 73.4015 102.525 73.427 102.601 73.427L105.187 73.2569C105.28 73.1378 105.406 73.0358 105.499 72.9423C105.643 72.8232 105.787 72.7212 105.93 72.5766C106.074 72.4575 106.192 72.2875 106.243 72.1174C106.243 72.1174 106.606 71.7092 106.75 71.5136C106.843 71.369 107.13 71.1309 107.13 71.1309C107.392 70.8163 107.654 70.5016 107.941 70.187C107.941 70.187 108.11 69.8979 108.228 69.7788C108.752 69.0815 109.284 68.4012 109.834 67.7294C110.028 67.4912 110.577 66.9555 110.577 66.9555L110.67 66.8364C109.327 64.9996 108.034 63.1457 106.767 61.3344H106.758ZM121.899 58.8258L121.848 58.8768C121.442 59.387 121.011 59.8632 120.581 60.348C120.412 60.5435 119.955 60.9262 119.955 60.9262C119.905 61.0028 119.862 61.0708 119.812 61.1218C119.55 61.3854 119.288 61.632 119.043 61.8957C119.043 61.8957 118.663 62.2358 118.637 62.3549C118.637 62.4739 118.561 62.5505 118.468 62.6695C118.037 63.2478 117.987 63.1968 117.438 63.6815C117.269 63.8771 117.074 64.0897 116.914 64.2853H116.821L116.534 64.6935L116.795 65.0336C118.612 67.3297 120.488 69.5747 122.498 71.8623L125.422 71.4796V59.3445C125.422 59.1999 125.329 59.1064 125.202 59.1064L121.899 58.8428V58.8258ZM115.266 72.8487C114.379 71.7602 113.492 70.6292 112.655 69.5152H112.63C112.461 69.5152 112.149 69.8043 112.081 69.8808C111.574 70.3911 110.957 70.9694 110.501 71.4711C110.121 71.9558 109.783 72.483 109.403 72.9678L114.1 72.6786L114.725 73.0868L115.275 72.8487H115.266ZM101.393 84.0909C101.393 84.0909 101.393 84.0399 101.393 84.0654V84.0909C101.469 84.0144 101.418 84.0144 101.393 84.0909ZM101.562 83.7763L101.486 83.8528C101.486 83.8188 101.486 83.8188 101.486 83.8528C101.486 83.8528 101.461 83.8783 101.435 83.8783C101.461 83.8528 101.486 83.8273 101.486 83.8018C101.486 83.8273 101.562 83.7507 101.562 83.7763ZM99.6188 83.6997L99.6695 83.6062C99.6948 83.6827 99.7202 83.6997 99.6948 83.6062C99.6948 83.6062 99.7202 83.6062 99.7202 83.5807V83.6572C99.7202 83.6572 99.6272 83.7337 99.6272 83.7082L99.6188 83.6997ZM131.074 45.7127C131.074 45.7127 131.1 45.6872 131.125 45.6617L131.074 45.6872C131.108 45.6078 131.099 45.6163 131.049 45.7127C131.049 45.7127 130.998 45.7382 130.973 45.7637C130.973 45.8403 131.066 45.7382 131.066 45.7127H131.074ZM99.999 83.5807C99.9483 83.5041 100.024 83.3851 100.05 83.317C100.075 83.3936 100.075 83.4361 100.1 83.4871C100.1 83.4871 100.05 83.6572 100.007 83.5807H99.999ZM131.429 45.4236L131.378 45.4491V45.4236C131.378 45.4236 131.429 45.3981 131.429 45.4236ZM131.547 45.228L131.497 45.279C131.497 45.2535 131.497 45.228 131.471 45.279L131.446 45.3045C131.446 45.3045 131.471 45.2535 131.497 45.2535C131.497 45.2535 131.547 45.2025 131.547 45.228ZM131.184 45.8063L131.091 45.8828C131.091 45.9338 131.091 45.7382 131.066 45.9083C131.066 45.9083 131.049 45.9168 131.015 45.9338C131.015 45.9338 131.066 45.8573 131.091 45.8403C131.066 45.8403 131.184 45.7637 131.184 45.8148V45.8063ZM104.688 102.085C105.888 102.085 110.003 102.111 111.033 101.6C111.54 101.337 111.777 99.9082 111.87 99.2874C112.394 95.4946 112.064 97.5951 111.946 93.7343C111.92 93.3942 112.022 91.974 111.87 91.6339C111.675 91.2002 110.814 91.2257 110.34 91.2937C103.514 92.0676 96.611 92.8414 89.7167 93.6068L93.5018 28.1266C93.5271 27.6674 93.8397 27.1402 93.6454 26.8C93.3581 26.3153 92.2598 26.2473 91.6768 26.2217C86.8863 26.1027 86.937 26.1707 82.138 26.1707C81.7747 26.1707 81.3691 26.2898 81.2255 26.5789C81.0058 26.9871 81.1748 28.6028 81.2255 29.1131C81.8 34.5641 80.7185 92.1271 80.6763 97.6036C80.651 99.6275 80.0764 101.413 82.4759 101.464C89.8518 101.609 97.3038 102.094 104.68 102.094L104.688 102.085ZM166.619 41.0186H157.376C157.257 41.0186 157.156 41.0951 157.139 41.2397L154.435 66.2922C154.41 66.5303 154.216 66.7004 153.979 66.7259C153.76 66.7514 153.548 66.5813 153.498 66.3602L148.682 46.9373C148.631 46.8182 148.538 46.7417 148.445 46.7417L138.264 47.0308C138.146 47.0563 138.045 47.1244 138.028 47.2519L134.842 81.1825C134.842 81.2591 134.868 81.3271 134.918 81.3781C134.969 81.4292 135.011 81.4547 135.087 81.4547H143.832C143.95 81.4547 144.052 81.3611 144.069 81.2336L146.392 64.4128C146.417 64.3193 146.485 64.2428 146.586 64.1917C146.679 64.1662 146.781 64.2172 146.848 64.2853L162.369 85.5196C162.631 85.8597 163.036 86.0043 163.425 85.8852C163.814 85.7662 164.093 85.426 164.118 85.0178L166.872 41.2652C166.872 41.1886 166.847 41.1461 166.796 41.0951C166.746 41.0441 166.703 41.0186 166.627 41.0186H166.619ZM172.077 84.0484L193.377 78.3507L193.089 103.497L204.495 102.289L202.265 50.2368L169.567 50.3303C169.306 50.3303 169.086 50.5514 169.086 50.8151L168.849 81.7523C168.824 83.2235 171.122 84.5246 172.085 84.0484H172.077ZM176.2 60.518L192.895 60.0843L193.115 69.2771L176.605 73.0868L176.2 60.5095V60.518Z" fill="white"/>
<path d="M117.987 71.5476C118.223 71.8112 118.468 72.1004 118.705 72.364L118.899 72.3385C117.531 70.5527 116.238 68.7158 115.021 66.9555C114.97 66.981 114.945 67.032 114.878 67.0746V66.9555L114.827 67.032L114.92 67.1511L114.97 67.1256C114.97 67.1256 114.945 67.1511 114.92 67.1766L115.258 67.6358C115.765 68.4097 116.289 69.1835 116.956 70.1955C117.1 70.3911 117.463 70.8673 117.987 71.5476ZM126.393 80.4002C125.65 79.7709 124.932 79.1246 124.214 78.4188L123.732 78.4443L123.825 78.5378L123.631 78.7079C124.256 79.4307 124.873 80.1281 125.498 80.8594C126.478 81.9479 127.416 83.0109 128.345 84.0909L128.083 84.329L128.058 84.3035C127.145 83.2915 126.241 82.254 125.329 81.2166L124.011 79.7454C124.704 80.8594 125.109 81.7013 124.949 81.9139C124.712 82.1775 123.867 81.7183 122.144 80.2046C121.594 79.6944 121.045 79.1926 120.513 78.6569L113.306 79.0906L108.71 79.9325H103.919L103.869 80.026C103.776 80.1196 103.7 80.2216 103.632 80.3152C103.556 80.4087 103.488 80.5363 103.412 80.6298C103.387 80.7489 103.556 81.089 103.531 81.0635C103.531 81.0635 103.193 80.9444 103.15 81.038C103.074 81.1315 102.981 81.2081 102.931 81.3271C102.855 81.4037 102.787 81.4462 102.711 81.5482C102.66 81.5992 102.593 81.6928 102.517 81.7438C102.424 81.8203 102.297 81.8204 102.204 81.7693C102.086 81.6928 101.841 81.5482 101.655 81.5992C101.224 81.7693 101.435 81.7183 100.793 81.6928C100.65 81.9309 100.557 82.203 100.413 82.4411C100.413 82.4666 100.438 82.8238 100.388 82.8068C100.312 82.7558 100.126 83.0704 100.126 83.1214C100.1 83.198 100.05 83.2405 100.033 83.317C100.033 83.317 100.041 83.3 100.058 83.266C99.9652 83.4106 99.8385 83.7252 99.8385 83.7252C99.8131 83.6317 99.7455 83.8018 99.7202 83.8188C99.7455 83.7933 99.7709 83.7677 99.7709 83.7677C99.7962 83.8613 99.7962 83.9123 99.7962 83.7677C99.8216 83.7422 99.8469 83.7422 99.8723 83.7167C99.8469 83.7677 99.8469 83.8103 99.8216 83.8613C99.8216 83.8613 99.7709 83.8613 99.7709 83.8868C100.033 83.9633 101.351 83.8103 101.258 84.2014C101.258 84.2014 101.249 84.2185 101.233 84.2525L101.207 84.3035C99.2217 83.6997 99.5343 83.9888 99.7962 83.6062C99.7962 83.6062 99.8723 83.4616 99.8216 83.4361C99.7962 83.4361 99.7962 83.4616 99.7962 83.4361C99.7709 83.4106 99.7455 83.4616 99.7709 83.4106C99.8216 83.317 99.9399 83.317 99.9145 83.215C99.9145 83.164 99.8638 83.1214 99.9145 83.0959C100.058 82.9769 100.007 83.0449 100.083 82.9259C100.083 82.8748 100.134 82.8068 100.16 82.7813C100.21 82.7303 100.16 82.7558 100.16 82.6877C100.16 82.5687 100.396 82.4241 100.421 82.3221C100.421 82.2455 100.371 81.6673 100.497 81.6673C100.472 81.6928 100.497 81.7438 100.523 81.7608C100.548 81.7353 100.548 81.7098 100.548 81.6673H100.497C100.497 81.6673 100.523 81.6418 100.548 81.6418C100.523 81.5482 100.523 81.4207 100.455 81.3526C100.236 80.987 100.286 80.6978 100.05 80.3662C100.05 80.3662 100.1 80.3152 100.168 80.2216L95.783 80.6808C95.4957 80.7063 95.2338 80.6043 95.0141 80.4172C94.7945 80.2216 94.7015 79.958 94.7269 79.6689L95.0141 73.0783V50.5855C95.0141 50.3218 95.1071 50.0752 95.3267 49.8881C95.5464 49.6926 95.783 49.599 96.0702 49.6245L98.3261 49.8626C97.8192 49.2589 97.3207 48.6296 96.7969 48.0003C96.0787 47.1584 95.8421 46.5291 96.0787 45.9253C96.2984 45.3471 96.9912 44.8368 98.1402 44.1905L98.2332 44.165C100.1 44.2841 101.469 44.8368 102.542 45.6362C103.311 45.9508 103.64 46.1464 103.691 46.2655C103.742 46.41 103.691 46.4866 103.573 46.5291C104.485 47.473 105.229 48.6041 105.989 49.7861C106.158 50.0752 106.353 50.3644 106.538 50.6535L106.589 50.7045L123.259 52.4138C123.335 52.2947 123.428 52.1757 123.521 52.0992C123.74 51.9546 123.952 51.81 124.171 51.6655C124.222 51.5719 124.247 51.4954 124.29 51.4273C124.095 51.5209 123.909 51.5974 123.69 51.691C123.664 51.6144 123.884 51.4529 123.926 51.4273C123.901 51.4018 123.876 51.4018 123.85 51.4018C123.825 51.2828 123.757 51.3508 123.901 51.2062C124.095 51.0107 124.045 51.1552 124.045 51.2998C124.264 51.1807 124.45 51.0787 124.67 50.9596C124.746 50.8661 124.814 50.764 124.89 50.6705C125.033 50.5259 125.202 50.2878 125.295 50.1433C125.388 49.9987 125.489 49.8541 125.582 49.7351C125.658 49.6415 125.751 49.514 125.844 49.4204C125.92 49.3014 125.988 49.1823 126.081 49.0548C126.106 48.9357 125.861 48.5275 125.861 48.5445C125.861 48.5445 126.317 48.7146 126.385 48.6211C126.461 48.502 126.579 48.4 126.647 48.3064C126.723 48.1874 126.816 48.1618 126.909 48.0683C126.985 47.9918 127.078 47.8727 127.171 47.8302C127.264 47.7537 127.458 47.7792 127.551 47.8302C127.72 47.9492 128.058 48.1448 128.294 48.0938C128.844 47.9237 128.607 47.9493 129.376 48.0683C129.57 47.7792 129.756 47.5155 129.95 47.2264C129.95 47.2264 129.925 46.7162 130.026 46.7672C130.145 46.8437 130.652 46.1379 130.719 46.0699C130.745 46.0189 130.77 45.9933 130.795 45.9763C130.846 45.8828 130.914 45.8063 130.964 45.7382C131.015 45.6872 131.04 45.6447 131.083 45.5937C131.108 45.5937 131.319 45.4746 131.252 45.5682C131.277 45.5682 131.226 45.6192 131.226 45.6192C131.176 45.7127 130.99 45.8828 130.99 45.8828C130.99 45.8828 130.871 46.0784 130.914 46.1039C130.939 46.1039 130.939 46.0784 130.939 46.1039C130.964 46.1294 130.99 46.0784 130.964 46.1294C130.846 46.274 130.728 46.2059 130.745 46.3675V46.4441C130.77 46.5376 130.601 46.5376 130.508 46.6141C130.483 46.6907 130.415 46.7842 130.339 46.8522C130.263 46.9033 130.339 46.8778 130.339 46.9458C130.314 47.0393 130.288 47.0393 130.246 47.0904C130.17 47.1414 130.128 47.2094 130.052 47.2604C130.001 47.2859 129.976 47.3115 129.959 47.337V47.3115C129.959 47.3115 129.934 47.3625 129.908 47.388C129.934 47.388 129.934 47.3625 129.959 47.337C129.959 47.4135 129.984 48.1363 129.841 48.1363C129.917 48.0598 129.722 47.9407 129.672 47.8982C129.646 47.9748 129.621 48.0428 129.596 48.1193C129.672 48.1193 129.765 48.1448 129.832 48.1448C129.756 48.2214 129.612 48.2639 129.663 48.3829C129.689 48.4595 129.612 48.5275 129.587 48.604C129.587 48.6806 129.562 49.4204 129.612 49.4204C129.612 49.4204 129.232 49.8541 129.275 49.9307C129.367 50.0497 129.013 50.4154 128.937 50.5344C128.793 50.73 128.649 50.9001 128.556 51.1127C128.48 51.2573 128.1 51.6229 127.957 51.81C127.669 52.1502 127.382 52.4818 127.095 52.822L131.649 53.3067C132.13 53.3577 132.51 53.7659 132.51 54.2762V77.0071C132.51 77.5174 132.105 77.9256 131.598 77.9766L128.049 78.1977L128.531 78.7079L128.311 78.9035L129.224 79.9665L129.275 79.992L129.013 80.2556V80.2301H128.987C128.7 79.9155 128.387 79.5328 128.007 79.1161C127.788 78.8525 127.526 78.5633 127.264 78.2487H127.171C127.695 78.827 128.227 79.4307 128.751 80.009C130.094 81.5057 131.412 82.9769 132.629 84.397L132.367 84.6351L132.316 84.5586C131.378 83.5211 130.449 82.4837 129.511 81.4462L129.275 81.6673H129.249C128.556 80.8934 127.838 80.077 127.12 79.2522L127.044 79.3032C127.475 80.0515 127.711 80.6043 127.593 80.7744C127.424 80.9955 127.069 80.8934 126.393 80.4087H126.368L126.393 80.4002ZM111.616 58.0264L112.765 59.6932L113.72 61.0708C114.007 61.4535 114.295 61.8446 114.607 62.2273C114.869 61.7681 115.131 61.3344 115.351 60.9007C115.351 60.8497 115.3 60.9262 115.351 60.8242C115.469 60.6541 115.52 60.6286 115.689 60.5095C115.714 60.535 115.714 60.5861 115.739 60.6286C115.765 60.5521 115.815 60.484 115.832 60.4075C115.807 60.382 115.756 60.3565 115.739 60.3309C115.689 60.3565 115.646 60.382 115.596 60.4245C115.596 60.3735 115.714 60.2034 115.765 60.1864C115.815 60.1354 115.841 60.1098 115.883 60.0928C115.883 60.1184 115.908 60.1439 115.934 60.1439C116.052 59.9228 116.128 59.8037 116.314 59.6166C116.339 59.5656 116.39 59.5231 116.407 59.4721V59.6421C116.407 59.6421 116.5 59.5231 116.55 59.4465C116.601 59.353 116.914 58.9873 117.007 58.8938C117.15 58.7747 117.699 58.5281 117.674 58.5281C117.75 58.5281 117.792 58.5281 117.868 58.5026L111.616 58.0179V58.0264ZM121.155 71.1309C121.349 71.369 121.561 71.6412 121.806 71.9473L121.882 71.9218C121.645 71.6582 121.4 71.3945 121.164 71.1224L121.155 71.1309ZM106.758 61.3344C106.133 60.4415 105.491 59.5486 104.916 58.7067C104.629 58.2985 104.342 57.8648 104.054 57.4481L103.167 57.3716L102.331 57.8818V73.1804C102.331 73.2569 102.356 73.2994 102.407 73.3504C102.458 73.4015 102.525 73.427 102.601 73.427L105.187 73.2569C105.28 73.1378 105.406 73.0358 105.499 72.9423C105.643 72.8232 105.787 72.7212 105.93 72.5766C106.074 72.4575 106.192 72.2875 106.243 72.1174C106.243 72.1174 106.606 71.7092 106.75 71.5136C106.843 71.369 107.13 71.1309 107.13 71.1309C107.392 70.8163 107.654 70.5016 107.941 70.187C107.941 70.187 108.11 69.8979 108.228 69.7788C108.752 69.0815 109.284 68.4012 109.834 67.7294C110.028 67.4912 110.577 66.9555 110.577 66.9555L110.67 66.8364C109.327 64.9996 108.034 63.1457 106.767 61.3344H106.758ZM121.899 58.8258L121.848 58.8768C121.442 59.387 121.011 59.8632 120.581 60.348C120.412 60.5435 119.955 60.9262 119.955 60.9262C119.905 61.0028 119.862 61.0708 119.812 61.1218C119.55 61.3854 119.288 61.632 119.043 61.8957C119.043 61.8957 118.663 62.2358 118.637 62.3549C118.637 62.4739 118.561 62.5505 118.468 62.6695C118.037 63.2478 117.987 63.1968 117.438 63.6815C117.269 63.8771 117.074 64.0897 116.914 64.2853H116.821L116.534 64.6935L116.795 65.0336C118.612 67.3297 120.488 69.5747 122.498 71.8623L125.422 71.4796V59.3445C125.422 59.1999 125.329 59.1064 125.202 59.1064L121.899 58.8428V58.8258ZM115.266 72.8487C114.379 71.7602 113.492 70.6292 112.656 69.5152H112.63C112.461 69.5152 112.149 69.8043 112.081 69.8808C111.574 70.3911 110.957 70.9694 110.501 71.4711C110.121 71.9558 109.783 72.483 109.403 72.9678L114.1 72.6786L114.725 73.0868L115.275 72.8487H115.266ZM101.393 84.0909C101.393 84.0909 101.393 84.0399 101.393 84.0654V84.0909C101.469 84.0144 101.418 84.0144 101.393 84.0909ZM101.562 83.7763L101.486 83.8528C101.486 83.8188 101.486 83.8188 101.486 83.8528C101.486 83.8528 101.461 83.8783 101.435 83.8783C101.461 83.8528 101.486 83.8273 101.486 83.8018C101.486 83.8273 101.562 83.7507 101.562 83.7763ZM99.6188 83.6997L99.6695 83.6062C99.6948 83.6827 99.7202 83.6997 99.6948 83.6062C99.6948 83.6062 99.7202 83.6062 99.7202 83.5807V83.6572C99.7202 83.6572 99.6272 83.7337 99.6272 83.7082L99.6188 83.6997ZM131.074 45.7127C131.074 45.7127 131.1 45.6872 131.125 45.6617L131.074 45.6872C131.108 45.6078 131.099 45.6163 131.049 45.7127C131.049 45.7127 130.998 45.7382 130.973 45.7637C130.973 45.8403 131.066 45.7382 131.066 45.7127H131.074ZM99.999 83.5807C99.9483 83.5041 100.024 83.3851 100.05 83.317C100.075 83.3936 100.075 83.4361 100.1 83.4871C100.1 83.4871 100.05 83.6572 100.007 83.5807H99.999ZM131.429 45.4236L131.378 45.4491V45.4236C131.378 45.4236 131.429 45.3981 131.429 45.4236ZM131.547 45.228L131.497 45.279C131.497 45.2535 131.497 45.228 131.471 45.279L131.446 45.3045C131.446 45.3045 131.471 45.2535 131.497 45.2535C131.497 45.2535 131.547 45.2025 131.547 45.228ZM131.184 45.8063L131.091 45.8828C131.091 45.9338 131.091 45.7382 131.066 45.9083C131.066 45.9083 131.049 45.9168 131.015 45.9338C131.015 45.9338 131.066 45.8573 131.091 45.8403C131.066 45.8403 131.184 45.7637 131.184 45.8148V45.8063ZM104.688 102.085C105.888 102.085 110.003 102.111 111.033 101.6C111.54 101.337 111.777 99.9082 111.87 99.2874C112.394 95.4946 112.064 97.5951 111.946 93.7343C111.92 93.3942 112.022 91.974 111.87 91.6339C111.675 91.2002 110.814 91.2257 110.34 91.2937C103.514 92.0676 96.611 92.8414 89.7167 93.6068L93.5018 28.1266C93.5271 27.6674 93.8397 27.1402 93.6454 26.8C93.3581 26.3153 92.2598 26.2473 91.6768 26.2217C86.8863 26.1027 86.937 26.1707 82.138 26.1707C81.7747 26.1707 81.3691 26.2898 81.2255 26.5789C81.0058 26.9871 81.1748 28.6028 81.2255 29.1131C81.8 34.5641 80.7185 92.1271 80.6763 97.6036C80.651 99.6275 80.0764 101.413 82.4759 101.464C89.8518 101.609 97.3038 102.094 104.68 102.094L104.688 102.085ZM166.619 41.0186H157.376C157.257 41.0186 157.156 41.0951 157.139 41.2397L154.435 66.2922C154.41 66.5303 154.216 66.7004 153.979 66.7259C153.76 66.7514 153.548 66.5813 153.498 66.3602L148.682 46.9373C148.631 46.8182 148.538 46.7417 148.445 46.7417L138.264 47.0308C138.146 47.0563 138.045 47.1244 138.028 47.2519L134.842 81.1825C134.842 81.2591 134.868 81.3271 134.918 81.3781C134.969 81.4292 135.011 81.4547 135.087 81.4547H143.832C143.95 81.4547 144.052 81.3611 144.069 81.2336L146.392 64.4128C146.417 64.3193 146.485 64.2428 146.586 64.1917C146.679 64.1662 146.781 64.2172 146.848 64.2853L162.369 85.5196C162.631 85.8597 163.036 86.0043 163.425 85.8852C163.814 85.7662 164.093 85.426 164.118 85.0178L166.872 41.2652C166.872 41.1886 166.847 41.1461 166.796 41.0951C166.746 41.0441 166.703 41.0186 166.627 41.0186H166.619ZM172.077 84.0484L193.377 78.3507L193.089 103.497L204.495 102.289L202.265 50.2368L169.567 50.3303C169.306 50.3303 169.086 50.5514 169.086 50.8151L168.849 81.7523C168.824 83.2235 171.122 84.5246 172.085 84.0484H172.077ZM176.2 60.518L192.895 60.0843L193.115 69.2771L176.605 73.0868L176.2 60.5095V60.518Z" fill="white"/>
<path fill-rule="evenodd" clip-rule="evenodd" d="M15.6488 81.7253V65.8966C13.7418 66.7866 9.81322 68.2996 9.35552 67.2316C8.89783 66.1636 7.1306 60.3026 6.3042 57.5056L14.3139 55.4078V28.3276L27.0912 27.374V51.9751L47.8782 46.254L51.3109 48.7331V81.7253H15.6488ZM54.9343 48.7331L52.2644 80.3903H75.912V70.2829L60.2741 68.7573L69.0466 65.8966L60.2741 57.5056L74.577 58.8406L75.912 48.7331H54.9343ZM26.8308 65.2491L42.647 58.8716V71.3715H26.8308V65.2491Z" fill="#A6F805"/>
<path d="M171.969 9.6203L102.711 23.4249L106.37 45.6274L173.912 33.1665L159.723 23.4249L171.969 9.6203Z" fill="#A6F805"/>
<path d="M152.971 31.1304L152.837 30.423C151.714 28.8781 151.039 27.7402 150.812 27.0092L151.981 26.9024C152.245 27.5629 152.682 28.3303 153.292 29.2047C153.59 28.0001 153.796 26.924 153.909 25.9766L154.994 25.8762C154.785 27.2541 154.488 28.6709 154.103 30.1265C154.195 30.68 154.281 31.165 154.359 31.5815C154.438 31.998 154.53 32.4152 154.634 32.8332L153.397 32.9338C153.234 32.3746 153.092 31.7735 152.971 31.1304Z" fill="black"/>
<path d="M149.33 33.6548C149.064 32.5823 148.855 31.6449 148.704 30.8425C148.551 30.0341 148.41 29.1885 148.281 28.3057L147.19 28.6737L146.786 27.6463C147.367 27.4287 147.947 27.2398 148.525 27.0797L150.226 26.6631L150.593 27.6499C150.26 27.7319 149.885 27.8312 149.47 27.9479C149.6 28.8368 149.734 29.6487 149.873 30.3836C150.012 31.1186 150.223 32.1697 150.507 33.537L149.33 33.6548Z" fill="black"/>
<path d="M146.002 27.6803C146.13 28.6584 146.309 29.7538 146.538 30.9664C146.767 32.1791 147.016 33.2771 147.284 34.2604L146.023 34.3846C145.707 33.1502 145.454 32.0308 145.264 31.0263C145.073 30.0158 144.899 28.9418 144.741 27.8044L146.002 27.6803Z" fill="black"/>
<path d="M143.161 28.1033L143.978 32.3735C144.111 33.0779 144.229 33.8389 144.333 34.6566L143.285 34.7501C142.156 33.1049 141.256 31.8826 140.584 31.0834C140.762 31.9887 141.038 33.4335 141.413 35.4179L140.316 35.5016C140.226 35.1254 140.147 34.7596 140.08 34.4044C139.8 32.9222 139.556 31.1795 139.348 29.1761L140.593 29.0645C141.515 30.622 142.301 31.7898 142.949 32.568C142.563 30.7253 142.244 29.2758 141.994 28.2193L143.161 28.1033Z" fill="black"/>
<path d="M135.909 33.9366C135.97 34.2551 136.094 34.5266 136.282 34.751C136.471 34.9755 136.66 35.0698 136.85 35.0339C137.046 34.9969 137.185 34.8816 137.269 34.6881C137.353 34.4947 137.393 34.2524 137.389 33.9614C137.381 33.4491 137.316 32.8684 137.193 32.2191C137.069 31.5638 136.848 30.6128 136.53 29.3662L137.804 29.2587C138.128 30.5041 138.333 31.3535 138.418 31.8067C138.504 32.2599 138.558 32.5796 138.581 32.7656C138.602 32.9455 138.617 33.1584 138.625 33.4042C138.634 33.65 138.627 33.8828 138.605 34.1026C138.583 34.3225 138.54 34.5463 138.475 34.7742C138.41 35.0022 138.321 35.2029 138.208 35.3766C137.96 35.7725 137.566 36.0213 137.027 36.1232C136.494 36.2239 135.993 36.0713 135.523 35.6654C135.053 35.2594 134.762 34.7625 134.651 34.1745C134.407 32.8822 134.217 31.4908 134.081 30.0004L135.353 29.8837C135.471 31.2505 135.657 32.6014 135.909 33.9366Z" fill="black"/>
<path d="M128.836 37.5665C128.486 35.9833 128.235 34.7875 128.082 33.9791C127.929 33.1706 127.818 32.2972 127.749 31.3588L129.502 31.1702C129.862 31.9013 130.293 32.9395 130.795 34.2847C130.926 33.099 131 31.829 131.017 30.4747L132.782 30.3027C133.189 32.1859 133.475 33.5655 133.641 34.4413C133.805 35.311 133.924 36.091 133.998 36.7812L132.716 36.8997C132.65 36.1129 132.408 34.4649 131.991 31.9557L131.916 31.9604C131.9 32.2108 131.879 32.6397 131.855 33.247C131.801 34.5068 131.723 35.5872 131.62 36.4884L130.771 36.5729C130.512 36.0127 130.197 35.2857 129.825 34.3918C129.458 33.4906 129.181 32.8293 128.994 32.408L128.919 32.4127C129.36 34.448 129.744 36.1262 130.07 37.4475L128.836 37.5665Z" fill="black"/>
<path d="M122.586 38.7481C122.236 37.165 121.984 35.9692 121.831 35.1607C121.678 34.3523 121.567 33.4788 121.498 32.5405L123.251 32.3518C123.611 33.083 124.042 34.1212 124.544 35.4663C124.675 34.2807 124.749 33.0107 124.766 31.6563L126.532 31.4843C126.938 33.3676 127.224 34.7471 127.39 35.6229C127.554 36.4926 127.673 37.2726 127.747 37.9629L126.465 38.0813C126.399 37.2946 126.157 35.6466 125.74 33.1373L125.665 33.142C125.649 33.3924 125.628 33.8213 125.604 34.4286C125.55 35.6884 125.472 36.7689 125.369 37.67L124.52 37.7545C124.261 37.1943 123.946 36.4673 123.574 35.5734C123.207 34.6722 122.93 34.011 122.743 33.5897L122.668 33.5944C123.109 35.6296 123.493 37.3078 123.819 38.6291L122.586 38.7481Z" fill="black"/>
<path d="M119.442 39.6088C118.86 39.7188 118.318 39.5517 117.815 39.1075C117.317 38.656 116.968 37.8974 116.766 36.8317C116.564 35.7599 116.616 34.8461 116.924 34.0902C117.237 33.3331 117.691 32.8984 118.285 32.7861C118.88 32.6738 119.422 32.844 119.914 33.2966C120.412 33.7481 120.761 34.5036 120.961 35.5632C121.161 36.6227 121.105 37.5341 120.793 38.2973C120.48 39.0605 120.03 39.4976 119.442 39.6088ZM118.501 33.8776C118.232 33.9286 118.044 34.2114 117.939 34.7262C117.832 35.2348 117.847 35.8505 117.983 36.5732C118.119 37.2898 118.302 37.807 118.533 38.1249C118.77 38.4354 119.013 38.567 119.264 38.5195C119.516 38.472 119.691 38.1915 119.791 37.6779C119.896 37.1631 119.881 36.5475 119.746 35.8309C119.609 35.1082 119.426 34.5909 119.196 34.2792C118.972 33.9663 118.74 33.8325 118.501 33.8776Z" fill="black"/>
<path d="M113.759 34.8882C113.49 34.9392 113.317 35.3175 113.241 36.0233C113.164 36.723 113.174 37.3301 113.271 37.8445C113.475 38.9225 113.859 39.4082 114.422 39.3017C114.581 39.2716 114.706 39.1782 114.797 39.0214C114.893 38.8574 114.952 38.6973 114.973 38.541C115 38.3836 115.026 38.1693 115.051 37.8982L116.235 37.7695C116.219 38.553 116.088 39.1738 115.845 39.6321C115.608 40.0893 115.208 40.3711 114.644 40.4776C113.983 40.6026 113.425 40.4513 112.969 40.0235C112.519 39.5884 112.221 38.985 112.075 38.2133C111.905 37.313 111.917 36.4036 112.112 35.4851C112.203 35.0301 112.377 34.6389 112.632 34.3115C112.892 33.9769 113.221 33.7719 113.62 33.6967C114.11 33.6041 114.495 33.6992 114.777 33.9821C114.918 34.1205 115.037 34.2661 115.136 34.4187C115.24 34.5702 115.332 34.7716 115.412 35.0231C115.544 35.423 115.661 35.8576 115.763 36.3269L114.557 36.4407C114.408 35.6506 114.24 35.1684 114.055 34.9941C113.968 34.9027 113.869 34.8674 113.759 34.8882Z" fill="black"/>
<path d="M155.645 17.0213L156.461 21.2915C156.595 21.9958 156.713 22.7569 156.817 23.5746L155.769 23.668C154.64 22.0228 153.739 20.8006 153.068 20.0013C153.246 20.9066 153.522 22.3515 153.897 24.3359L152.799 24.4196C152.709 24.0433 152.631 23.6776 152.563 23.3224C152.283 21.8402 152.04 20.0974 151.832 18.094L153.077 17.9825C153.999 19.5399 154.784 20.7078 155.433 21.486C155.046 19.6433 154.728 18.1937 154.477 17.1373L155.645 17.0213Z" fill="black"/>
<path d="M150.281 18.1492C150.409 19.1274 150.588 20.2228 150.817 21.4354C151.046 22.6481 151.295 23.7461 151.563 24.7294L150.302 24.8535C149.986 23.6192 149.733 22.4998 149.544 21.4953C149.353 20.4847 149.178 19.4108 149.02 18.2734L150.281 18.1492Z" fill="black"/>
<path d="M147.556 25.1538L147.103 23.9168L145.745 24.2306L145.722 26.0238L144.415 26.1566L144.8 19.1853L146.528 19.011L148.909 25.0123L147.556 25.1538ZM145.79 20.2446L145.752 23.2112L146.774 22.9799L145.79 20.2446Z" fill="black"/>
<path d="M140.079 21.8949L140.288 22.9497L141.651 22.6065C141.47 21.6511 141.294 20.6346 141.122 19.557L142.355 19.438C142.484 20.4222 142.656 21.4839 142.872 22.6231C143.086 23.7562 143.335 24.889 143.619 26.0216L142.424 26.1428C142.269 25.6265 142.076 24.7876 141.843 23.6263L140.508 23.9642C140.691 24.8305 140.886 25.7103 141.093 26.6036L139.823 26.7296C139.511 25.45 139.253 24.2682 139.048 23.1841C138.843 22.1001 138.69 21.1584 138.59 20.359L139.824 20.24C139.89 20.7921 139.975 21.3437 140.079 21.8949Z" fill="black"/>
<path d="M135.867 21.9871C135.598 22.038 135.425 22.4164 135.349 23.1222C135.272 23.8219 135.282 24.4289 135.379 24.9434C135.583 26.0213 135.967 26.5071 136.53 26.4006C136.689 26.3705 136.814 26.277 136.905 26.1203C137.001 25.9563 137.06 25.7961 137.081 25.6399C137.108 25.4825 137.134 25.2682 137.159 24.9971L138.343 24.8684C138.326 25.6518 138.196 26.2727 137.953 26.731C137.716 27.1882 137.316 27.47 136.752 27.5765C136.091 27.7015 135.533 27.5501 135.077 27.1223C134.627 26.6873 134.329 26.0839 134.183 25.3122C134.013 24.4118 134.025 23.5024 134.22 22.584C134.311 22.129 134.485 21.7378 134.74 21.4104C135 21.0757 135.329 20.8708 135.727 20.7956C136.217 20.7029 136.603 20.7981 136.885 21.081C137.026 21.2194 137.145 21.3649 137.244 21.5176C137.348 21.669 137.44 21.8705 137.52 22.122C137.652 22.5219 137.769 22.9565 137.871 23.4258L136.665 23.5395C136.515 22.7495 136.348 22.2673 136.163 22.0929C136.076 22.0015 135.977 21.9663 135.867 21.9871Z" fill="black"/>
<path d="M129.997 28.511C129.777 27.582 129.556 26.5296 129.333 25.3537C129.111 24.1777 128.952 23.1675 128.856 22.323L130.137 22.2045C130.219 22.9755 130.366 23.9214 130.578 25.0423C131.11 23.6286 131.491 22.456 131.721 21.5244L132.965 21.765C132.691 22.7303 132.287 23.866 131.754 25.1721C132.55 26.0301 133.28 26.6534 133.944 27.0418L133.279 28.157C132.438 27.5992 131.579 26.7814 130.703 25.7037C130.915 26.8245 131.108 27.7269 131.281 28.4109L129.997 28.511Z" fill="black"/>
<path d="M126.156 23.8226C125.887 23.8735 125.714 24.2519 125.638 24.9577C125.561 25.6573 125.571 26.2644 125.668 26.7789C125.872 27.8568 126.256 28.3425 126.819 28.236C126.979 28.2059 127.104 28.1125 127.195 27.9557C127.29 27.7917 127.349 27.6316 127.37 27.4753C127.397 27.3179 127.424 27.1037 127.448 26.8325L128.633 26.7039C128.616 27.4873 128.486 28.1082 128.242 28.5665C128.005 29.0236 127.605 29.3054 127.042 29.4119C126.38 29.537 125.822 29.3856 125.367 28.9578C124.917 28.5227 124.619 27.9193 124.473 27.1476C124.302 26.2473 124.315 25.3379 124.509 24.4194C124.6 23.9644 124.774 23.5732 125.029 23.2458C125.289 22.9112 125.619 22.7062 126.017 22.631C126.507 22.5384 126.893 22.6335 127.175 22.9165C127.315 23.0549 127.434 23.2004 127.533 23.353C127.638 23.5045 127.73 23.706 127.809 23.9574C127.942 24.3573 128.059 24.7919 128.16 25.2612L126.954 25.375C126.805 24.5849 126.638 24.1027 126.452 23.9284C126.365 23.837 126.267 23.8017 126.156 23.8226Z" fill="black"/>
<path d="M122.065 30.3908C121.483 30.5007 120.941 30.3336 120.438 29.8895C119.94 29.438 119.591 28.6794 119.389 27.6137C119.187 26.5419 119.239 25.628 119.547 24.8721C119.86 24.1151 120.314 23.6804 120.908 23.5681C121.502 23.4558 122.045 23.626 122.537 24.0786C123.034 24.5301 123.383 25.2856 123.584 26.3451C123.784 27.4047 123.728 28.3161 123.415 29.0793C123.103 29.8425 122.653 30.2796 122.065 30.3908ZM121.124 24.6596C120.855 24.7105 120.667 24.9934 120.561 25.5082C120.454 26.0168 120.469 26.6325 120.606 27.3552C120.741 28.0718 120.925 28.589 121.156 28.9068C121.392 29.2174 121.636 29.349 121.887 29.3015C122.138 29.254 122.314 28.9735 122.413 28.4599C122.519 27.9451 122.504 27.3294 122.369 26.6129C122.232 25.8901 122.049 25.3729 121.818 25.0612C121.594 24.7483 121.363 24.6145 121.124 24.6596Z" fill="black"/>
<path d="M116.55 31.0526C116.232 29.806 115.974 28.659 115.776 27.6117C115.577 26.5583 115.43 25.5964 115.335 24.7263L116.578 24.6055C116.685 25.6764 116.83 26.6925 117.012 27.6541C117.193 28.6157 117.342 29.3202 117.459 29.7676C117.673 29.6953 118.204 29.5316 119.05 29.2765L119.435 30.3075C118.986 30.4494 118.354 30.664 117.54 30.9512L116.55 31.0526Z" fill="black"/>
<path d="M110.211 25.9803C110.886 25.6243 111.511 25.392 112.087 25.2831C112.669 25.1732 113.191 25.2361 113.655 25.4721C114.117 25.7019 114.391 26.0434 114.476 26.4967C114.605 27.1765 114.327 27.7873 113.643 28.3289C114.408 28.4825 114.854 28.8961 114.981 29.5698C115.075 30.0659 114.899 30.5592 114.452 31.0495C114.004 31.5338 113.496 31.8298 112.926 31.9374C112.853 31.9513 112.321 32.0074 111.331 32.1057C111.168 30.7727 111.001 29.6561 110.831 28.7558C110.661 27.8554 110.454 26.9303 110.211 25.9803ZM113.26 26.8597C113.226 26.676 113.105 26.5402 112.898 26.4525C112.696 26.3574 112.491 26.3296 112.283 26.3689C112.081 26.4071 111.87 26.485 111.651 26.6025C111.815 27.3328 111.932 27.8848 112.002 28.2584C112.279 28.1806 112.571 27.9954 112.877 27.7028C113.183 27.4041 113.31 27.1231 113.26 26.8597ZM112.916 30.7784C113.119 30.7402 113.318 30.6201 113.514 30.418C113.71 30.2098 113.788 30.0016 113.748 29.7933C113.708 29.579 113.541 29.4171 113.247 29.3076C112.954 29.1981 112.595 29.1644 112.172 29.2064C112.296 29.9314 112.387 30.4757 112.443 30.8394C112.556 30.8369 112.714 30.8166 112.916 30.7784Z" fill="black"/>
</svg>
