<svg width="260" height="260" viewBox="0 0 260 260" fill="none" xmlns="http://www.w3.org/2000/svg">
<path fill-rule="evenodd" clip-rule="evenodd" d="M83.4341 39.2297L90.7708 84.275L134.646 75.0694L135.102 74.9593L135.167 74.9602L135.466 74.8974L135.479 74.9645L165.914 75.3818L226.228 74.9593L230.054 135.534L238.33 228.97L200.48 233.568L180.934 228.97L181.666 190.829H152.83H116.116V190.433H26.987V148.037L17.3527 151.41L9.9024 119.325L26.987 111.211L21.1487 45.373L83.4341 39.2297Z" fill="black"/>
<path d="M150.399 170.133L193.098 158.711L192.522 209.121L215.388 206.7L210.916 102.352L145.368 102.539C144.843 102.539 144.403 102.983 144.403 103.511L143.929 165.53C143.878 168.48 148.485 171.088 150.416 170.133L150.399 170.133ZM158.664 122.962L192.133 122.093L192.573 140.521L159.477 148.159L158.664 122.945L158.664 122.962Z" fill="white"/>
<path fill-rule="evenodd" clip-rule="evenodd" d="M52.5018 166.77L52.5018 135.038C48.6787 136.822 40.8032 139.855 39.8857 137.715C38.9682 135.574 35.4255 123.824 33.7688 118.217L49.8257 114.012L49.8257 59.7243L75.4401 57.8127L75.4401 107.13L117.111 95.661L123.993 100.631L123.993 166.77L52.5018 166.77ZM74.9182 133.74L106.625 120.955L106.625 146.014L74.9182 146.014L74.9182 133.74Z" fill="#A6F805"/>
</svg>
