<?xml version="1.0" standalone="no"?>
<!DOCTYPE svg PUBLIC "-//W3C//DTD SVG 20010904//EN"
 "http://www.w3.org/TR/2001/REC-SVG-20010904/DTD/svg10.dtd">
<svg version="1.0" xmlns="http://www.w3.org/2000/svg"
 width="700.000000pt" height="700.000000pt" viewBox="0 0 700.000000 700.000000"
 preserveAspectRatio="xMidYMid meet">
<metadata>
Created by potrace 1.14, written by Peter Selinger 2001-2017
</metadata>
<g transform="translate(0.000000,700.000000) scale(0.100000,-0.100000)"
fill="#000000" stroke="none">
<path d="M1375 5858 c-440 -44 -801 -81 -802 -82 -1 -1 33 -398 76 -881 58
-652 76 -883 67 -891 -6 -6 -109 -57 -228 -114 -120 -57 -218 -105 -218 -108
0 -20 194 -839 200 -846 5 -5 59 9 125 33 64 22 121 41 126 41 5 0 9 -223 9
-570 l0 -570 758 0 c417 0 1354 -3 2081 -7 l1322 -6 -8 -433 c-4 -237 -8 -467
-8 -510 l0 -78 262 -62 263 -62 497 60 c274 33 502 64 508 69 6 6 -32 476
-103 1282 -84 953 -125 1470 -162 2062 -28 434 -50 791 -50 791 0 1 -561 1
-1247 -1 l-1248 -3 -574 -121 c-316 -66 -576 -120 -577 -118 -1 1 -46 273
-100 605 l-98 602 -36 -1 c-19 -1 -395 -37 -835 -81z m655 -1078 c0 -379 4
-660 9 -660 5 0 254 68 554 150 299 83 551 150 558 149 8 0 52 -29 99 -63 l85
-63 3 -891 2 -892 -965 0 -965 0 0 425 c0 234 -2 425 -4 425 -2 0 -29 -11 -60
-25 -77 -34 -212 -68 -242 -61 -15 4 -29 19 -38 40 -18 43 -157 498 -154 502
2 1 75 21 163 44 88 23 184 48 213 57 l52 14 0 730 c0 401 1 729 3 730 13 3
595 47 635 48 l52 1 0 -660z m3710 -1945 c33 -769 59 -1399 58 -1400 -5 -4
-610 -66 -614 -63 -1 2 1 305 6 673 5 368 7 672 4 674 -2 2 -262 -65 -577
-149 -314 -85 -587 -154 -606 -153 -37 2 -98 40 -120 75 -12 20 -14 130 -12
728 2 388 6 775 10 860 l6 155 885 5 c487 3 888 3 892 0 4 -3 35 -635 68
-1405z"/>
<path d="M2440 3570 l-415 -168 -3 -166 -2 -166 425 0 425 0 0 335 c0 184 -3
335 -7 334 -5 0 -195 -76 -423 -169z"/>
<path d="M4595 3698 c-176 -5 -320 -10 -321 -11 -3 -4 18 -652 21 -663 2 -7
158 25 442 90 l438 101 3 115 c2 63 0 175 -3 248 l-7 132 -127 -2 c-69 0 -270
-5 -446 -10z"/>
</g>
</svg>
