<svg width="44" height="47" viewBox="0 0 44 47" fill="none" xmlns="http://www.w3.org/2000/svg">
<path d="M22.0001 43.2666C33.7453 43.2666 43.2667 33.7452 43.2667 21.9999C43.2667 10.2547 33.7453 0.733276 22.0001 0.733276C10.2548 0.733276 0.733398 10.2547 0.733398 21.9999C0.733398 33.7452 10.2548 43.2666 22.0001 43.2666Z" fill="#96D31F"/>
<path d="M1.19459 21.9074C1.29588 26.1123 2.64178 30.1927 5.06211 33.6327C7.48244 37.0727 10.8685 39.7177 14.7921 41.2333C18.7156 42.7489 23.0005 43.067 27.1049 42.1474C31.2093 41.2277 34.9487 39.1116 37.8505 36.0667L7.0597 6.72403C5.13001 8.74366 3.61846 11.1247 2.61193 13.7304C1.60539 16.3361 1.12372 19.1149 1.19459 21.9074Z" fill="#A6F805"/>
<path d="M20.3551 10.5922C19.805 10.0423 19.059 9.7334 18.2812 9.7334C17.5034 9.7334 16.7574 10.0423 16.2074 10.5922C15.6574 11.1423 15.3485 11.8883 15.3485 12.6661C15.3485 13.4439 15.6574 14.1899 16.2074 14.74L23.4666 22L16.2066 29.26C15.6666 29.8121 15.3662 30.5549 15.3704 31.3271C15.3747 32.0994 15.6833 32.8389 16.2293 33.385C16.7754 33.9311 17.5148 34.2399 18.287 34.2443C19.0593 34.2487 19.8021 33.9483 20.3544 33.4084L30.7266 23.0369C31.0016 22.7619 31.156 22.3889 31.156 22C31.156 21.6111 31.0016 21.2381 30.7266 20.963L20.3551 10.5922Z" fill="white"/>
<path d="M18.2814 35.0005C17.5561 35.0005 16.8472 34.7854 16.2442 34.3825C15.6412 33.9795 15.1712 33.4068 14.8938 32.7368C14.6163 32.0667 14.5437 31.3294 14.6853 30.6182C14.8268 29.9069 15.1761 29.2535 15.689 28.7408L22.4298 22L15.689 15.2592C15.0014 14.5716 14.6151 13.6389 14.6151 12.6665C14.6151 11.694 15.0014 10.7614 15.689 10.0738C16.3766 9.3864 17.3091 9.00024 18.2814 9.00024C19.2536 9.00024 20.1861 9.3864 20.8737 10.0738L31.2445 20.4446C31.4488 20.6489 31.6109 20.8914 31.7215 21.1584C31.8321 21.4253 31.889 21.7114 31.889 22.0004C31.889 22.2893 31.8321 22.5754 31.7215 22.8423C31.6109 23.1093 31.4488 23.3518 31.2445 23.5561L20.8737 33.9262C20.5342 34.2679 20.1302 34.5388 19.6852 34.7232C19.2402 34.9077 18.7631 35.0019 18.2814 35.0005ZM18.2814 10.4661C17.9923 10.4653 17.706 10.5219 17.439 10.6325C17.1721 10.7432 16.9297 10.9057 16.726 11.1107C16.5216 11.315 16.3596 11.5576 16.249 11.8245C16.1384 12.0914 16.0815 12.3776 16.0815 12.6665C16.0815 12.9554 16.1384 13.2415 16.249 13.5085C16.3596 13.7754 16.5216 14.018 16.726 14.2223L23.986 21.4823C24.1234 21.6198 24.2007 21.8063 24.2007 22.0007C24.2007 22.1952 24.1234 22.3817 23.986 22.5192L16.726 29.7792C16.5216 29.9835 16.3596 30.226 16.249 30.493C16.1384 30.7599 16.0815 31.046 16.0815 31.335C16.0815 31.6239 16.1384 31.91 16.249 32.1769C16.3596 32.4439 16.5216 32.6864 16.726 32.8907C17.1449 33.2909 17.702 33.5141 18.2814 33.5141C18.8607 33.5141 19.4178 33.2909 19.8368 32.8907L30.2076 22.5185C30.345 22.3809 30.4223 22.1944 30.4223 22C30.4223 21.8055 30.345 21.619 30.2076 21.4815L19.8368 11.1107C19.633 10.9058 19.3906 10.7433 19.1236 10.6326C18.8566 10.522 18.5704 10.4654 18.2814 10.4661Z" fill="#231F20"/>
<path d="M22 44C17.6488 44 13.3953 42.7097 9.77746 40.2923C6.15958 37.8749 3.33979 34.439 1.67466 30.419C0.00953247 26.3991 -0.426141 21.9756 0.422734 17.708C1.27161 13.4404 3.3669 9.52041 6.44366 6.44366C9.52041 3.3669 13.4404 1.27161 17.708 0.422734C21.9756 -0.426141 26.3991 0.00953247 30.419 1.67466C34.439 3.33979 37.8749 6.15958 40.2923 9.77746C42.7097 13.3953 44 17.6488 44 22C43.9934 27.8327 41.6734 33.4247 37.5491 37.5491C33.4247 41.6734 27.8327 43.9934 22 44ZM22 1.46668C17.9389 1.46668 13.969 2.67094 10.5923 4.92717C7.21561 7.1834 4.5838 10.3903 3.02968 14.1422C1.47556 17.8942 1.06894 22.0228 1.86122 26.0059C2.6535 29.9889 4.60911 33.6476 7.48075 36.5193C10.3524 39.3909 14.0111 41.3465 17.9942 42.1388C21.9772 42.9311 26.1058 42.5244 29.8578 40.9703C33.6097 39.4162 36.8166 36.7844 39.0728 33.4077C41.3291 30.031 42.5333 26.0611 42.5333 22C42.5271 16.5561 40.3618 11.337 36.5124 7.48761C32.663 3.63821 27.4439 1.47289 22 1.46668Z" fill="#231F20"/>
<path d="M7.0912 30.5379C7.17836 30.7119 7.19282 30.9135 7.1314 31.0982C7.06998 31.2829 6.9377 31.4356 6.76367 31.5227C6.58964 31.6099 6.38811 31.6244 6.20341 31.563C6.01872 31.5015 5.86599 31.3693 5.77883 31.1952C5.53656 30.7511 5.30604 30.292 5.09724 29.8311C5.01698 29.6539 5.01039 29.4521 5.07891 29.2701C5.14743 29.0881 5.28546 28.9407 5.46262 28.8605C5.63978 28.7802 5.84157 28.7736 6.02359 28.8421C6.20561 28.9107 6.35296 29.0487 6.43321 29.2258C6.62628 29.652 6.83876 30.0766 7.06529 30.486L7.0912 30.5379Z" fill="#231F20"/>
<path d="M30.6981 38.3602C30.7783 38.5374 30.7849 38.7392 30.7164 38.9212C30.6479 39.1032 30.5098 39.2506 30.3327 39.3308C26.4526 41.0959 22.0924 41.5072 17.9507 40.4989C13.809 39.4906 10.1257 37.1211 7.49117 33.7701C7.37068 33.6173 7.31585 33.4228 7.33873 33.2295C7.36161 33.0362 7.46034 32.86 7.61319 32.7395C7.76604 32.619 7.9605 32.5642 8.15377 32.587C8.34705 32.6099 8.52333 32.7087 8.64381 32.8615C11.0758 35.9544 14.4756 38.1414 18.2984 39.0721C22.1213 40.0029 26.1459 39.6236 29.7275 37.9949C29.9046 37.9146 30.1064 37.908 30.2884 37.9765C30.4704 38.0451 30.6178 38.1831 30.6981 38.3602Z" fill="#231F20"/>
</svg>
