<svg width="61" height="63" viewBox="0 0 61 63" fill="none" xmlns="http://www.w3.org/2000/svg">
<g filter="url(#filter0_d_178_3367)">
<path d="M23.375 0.949951H55.675V27.55H23.375V0.949951Z" fill="#9BFBFF"/>
<path d="M43.3251 43.7C44.8991 43.7 46.1751 42.424 46.1751 40.85C46.1751 39.276 44.8991 38 43.3251 38C41.7511 38 40.4751 39.276 40.4751 40.85C40.4751 42.424 41.7511 43.7 43.3251 43.7Z" fill="#FFE477"/>
<path d="M38.575 50.35V56.05H48.075V50.35C48.075 48.2514 46.3736 46.55 44.275 46.55H42.375C40.2763 46.55 38.575 48.2514 38.575 50.35Z" fill="#FFDE55"/>
<path d="M30.025 43.7C31.5991 43.7 32.875 42.424 32.875 40.85C32.875 39.276 31.5991 38 30.025 38C28.451 38 27.175 39.276 27.175 40.85C27.175 42.424 28.451 43.7 30.025 43.7Z" fill="#FFE477"/>
<path d="M25.2749 50.35V56.05H34.7749V50.35C34.7749 48.2514 33.0736 46.55 30.9749 46.55H29.0749C26.9762 46.55 25.2749 48.2514 25.2749 50.35Z" fill="#FFDE55"/>
<path d="M16.725 43.7C18.299 43.7 19.575 42.424 19.575 40.85C19.575 39.276 18.299 38 16.725 38C15.151 38 13.875 39.276 13.875 40.85C13.875 42.424 15.151 43.7 16.725 43.7Z" fill="#FFE477"/>
<path d="M11.9751 50.35V56.05H21.4751V50.35C21.4751 48.2514 19.7738 46.55 17.6751 46.55H15.7751C13.6764 46.55 11.9751 48.2514 11.9751 50.35Z" fill="#FFDE55"/>
<path d="M5.32495 19.9499V33.2499H18.625V19.9499H30.025V16.1499H9.12495C7.02628 16.1499 5.32495 17.8512 5.32495 19.9499Z" fill="#FF7956"/>
<path d="M14.825 10.45V8.54995C14.825 6.97592 13.549 5.69995 11.975 5.69995C10.401 5.69995 9.125 6.97592 9.125 8.54995V10.45C9.125 12.024 10.401 13.3 11.975 13.3C13.549 13.3 14.825 12.024 14.825 10.45Z" fill="#FF9478"/>
<path d="M47.1249 40.85C47.1249 38.7514 45.4236 37.05 43.3249 37.05C41.2262 37.05 39.5249 38.7514 39.5249 40.85C39.5249 42.9487 41.2262 44.65 43.3249 44.65C45.4236 44.65 47.1249 42.9487 47.1249 40.85ZM41.4249 40.85C41.4249 39.8007 42.2755 38.95 43.3249 38.95C44.3743 38.95 45.2249 39.8007 45.2249 40.85C45.2249 41.8994 44.3743 42.75 43.3249 42.75C42.2755 42.75 41.4249 41.8994 41.4249 40.85Z" fill="#110F0F"/>
<path d="M44.275 45.6001H42.375C39.753 45.6032 37.6281 47.7281 37.625 50.3501V56.0501C37.625 56.5747 38.0504 57.0001 38.575 57.0001H48.075C48.5996 57.0001 49.025 56.5747 49.025 56.0501V50.3501C49.0219 47.7281 46.897 45.6032 44.275 45.6001ZM47.125 55.1001H39.525V50.3501C39.525 48.7761 40.801 47.5001 42.375 47.5001H44.275C45.849 47.5001 47.125 48.7761 47.125 50.3501V55.1001Z" fill="#110F0F"/>
<path d="M33.8251 40.85C33.8251 38.7514 32.1238 37.05 30.0251 37.05C27.9264 37.05 26.2251 38.7514 26.2251 40.85C26.2251 42.9487 27.9264 44.65 30.0251 44.65C32.1238 44.65 33.8251 42.9487 33.8251 40.85ZM28.1251 40.85C28.1251 39.8007 28.9757 38.95 30.0251 38.95C31.0745 38.95 31.9251 39.8007 31.9251 40.85C31.9251 41.8994 31.0745 42.75 30.0251 42.75C28.9757 42.75 28.1251 41.8994 28.1251 40.85Z" fill="#110F0F"/>
<path d="M30.975 45.6001H29.075C26.453 45.6032 24.328 47.7281 24.325 50.3501V56.0501C24.325 56.5747 24.7503 57.0001 25.275 57.0001H34.775C35.2996 57.0001 35.725 56.5747 35.725 56.0501V50.3501C35.7219 47.7281 33.597 45.6032 30.975 45.6001ZM33.825 55.1001H26.225V50.3501C26.225 48.7761 27.5009 47.5001 29.075 47.5001H30.975C32.549 47.5001 33.825 48.7761 33.825 50.3501V55.1001Z" fill="#110F0F"/>
<path d="M16.725 37.05C14.6264 37.05 12.925 38.7514 12.925 40.85C12.925 42.9487 14.6264 44.65 16.725 44.65C18.8237 44.65 20.525 42.9487 20.525 40.85C20.525 38.7514 18.8237 37.05 16.725 37.05ZM16.725 42.75C15.6757 42.75 14.825 41.8994 14.825 40.85C14.825 39.8007 15.6757 38.95 16.725 38.95C17.7744 38.95 18.625 39.8007 18.625 40.85C18.625 41.8994 17.7744 42.75 16.725 42.75Z" fill="#110F0F"/>
<path d="M17.6749 45.6001H15.7749C13.1529 45.6032 11.028 47.7281 11.0249 50.3501V56.0501C11.0249 56.5747 11.4503 57.0001 11.9749 57.0001H21.4749C21.9995 57.0001 22.4249 56.5747 22.4249 56.0501V50.3501C22.4218 47.7281 20.2969 45.6032 17.6749 45.6001ZM20.5249 55.1001H12.9249V50.3501C12.9249 48.7761 14.2009 47.5001 15.7749 47.5001H17.6749C19.2489 47.5001 20.5249 48.7761 20.5249 50.3501V55.1001Z" fill="#110F0F"/>
<path d="M19.575 33.25V20.9H30.025C30.5496 20.9 30.975 20.4746 30.975 19.95V16.15C30.975 15.6253 30.5496 15.2 30.025 15.2H9.125C6.503 15.203 4.37809 17.328 4.375 19.95V33.25C4.375 33.7746 4.80036 34.2 5.325 34.2H18.625C19.1496 34.2 19.575 33.7746 19.575 33.25ZM17.675 19.95V32.3H6.275V19.95C6.275 18.3759 7.55097 17.1 9.125 17.1H29.075V19H18.625C18.1004 19 17.675 19.4253 17.675 19.95Z" fill="#110F0F"/>
<path d="M55.675 0H23.375C22.8504 0 22.425 0.425362 22.425 0.95V13.3H24.325V1.9H54.7251V26.6H24.325V22.8H22.425V27.55C22.425 28.0746 22.8504 28.5 23.375 28.5H55.675C56.1997 28.5 56.625 28.0746 56.625 27.55V0.95C56.625 0.425362 56.1997 0 55.675 0Z" fill="#110F0F"/>
<path d="M28.125 5.69995H30.025V7.59995H28.125V5.69995Z" fill="#110F0F"/>
<path d="M31.925 5.69995H50.925V7.59995H31.925V5.69995Z" fill="#110F0F"/>
<path d="M28.125 9.5H50.925V11.4H28.125V9.5Z" fill="#110F0F"/>
<path d="M32.875 13.3H50.925V15.2H32.875V13.3Z" fill="#110F0F"/>
<path d="M32.875 17.1001H50.925V19.0001H32.875V17.1001Z" fill="#110F0F"/>
<path d="M32.875 20.8999H50.925V22.7999H32.875V20.8999Z" fill="#110F0F"/>
<path d="M11.975 14.25C14.0737 14.25 15.775 12.5487 15.775 10.45V8.55C15.775 6.45133 14.0737 4.75 11.975 4.75C9.87638 4.75 8.17505 6.45133 8.17505 8.55V10.45C8.17505 12.5487 9.87638 14.25 11.975 14.25ZM10.075 8.55C10.075 7.50061 10.9257 6.65 11.975 6.65C13.0244 6.65 13.875 7.50061 13.875 8.55V10.45C13.875 11.4994 13.0244 12.35 11.975 12.35C10.9257 12.35 10.075 11.4994 10.075 10.45V8.55Z" fill="#110F0F"/>
</g>
<defs>
<filter id="filter0_d_178_3367" x="-2" y="0" width="65" height="65" filterUnits="userSpaceOnUse" color-interpolation-filters="sRGB">
<feFlood flood-opacity="0" result="BackgroundImageFix"/>
<feColorMatrix in="SourceAlpha" type="matrix" values="0 0 0 0 0 0 0 0 0 0 0 0 0 0 0 0 0 0 127 0" result="hardAlpha"/>
<feOffset dy="4"/>
<feGaussianBlur stdDeviation="2"/>
<feComposite in2="hardAlpha" operator="out"/>
<feColorMatrix type="matrix" values="0 0 0 0 0 0 0 0 0 0 0 0 0 0 0 0 0 0 0.25 0"/>
<feBlend mode="normal" in2="BackgroundImageFix" result="effect1_dropShadow_178_3367"/>
<feBlend mode="normal" in="SourceGraphic" in2="effect1_dropShadow_178_3367" result="shape"/>
</filter>
</defs>
</svg>
