<svg width="57" height="57" viewBox="0 0 57 57" fill="none" xmlns="http://www.w3.org/2000/svg">
<g class="presentation" clip-path="url(#clip0_178_3367)">
<g class="student">
<path d="M41.3251 43.7C42.8991 43.7 44.1751 42.424 44.1751 40.85C44.1751 39.276 42.8991 38 41.3251 38C39.7511 38 38.4751 39.276 38.4751 40.85C38.4751 42.424 39.7511 43.7 41.3251 43.7Z" fill="#FFE477"/>
<path d="M36.575 50.35V56.05H46.075V50.35C46.075 48.2514 44.3736 46.55 42.275 46.55H40.375C38.2763 46.55 36.575 48.2514 36.575 50.35Z" fill="#FFDE55"/>
<path   d="M45.1249 40.85C45.1249 38.7514 43.4236 37.05 41.3249 37.05C39.2262 37.05 37.5249 38.7514 37.5249 40.85C37.5249 42.9487 39.2262 44.65 41.3249 44.65C43.4236 44.65 45.1249 42.9487 45.1249 40.85ZM39.4249 40.85C39.4249 39.8007 40.2755 38.95 41.3249 38.95C42.3743 38.95 43.2249 39.8007 43.2249 40.85C43.2249 41.8994 42.3743 42.75 41.3249 42.75C40.2755 42.75 39.4249 41.8994 39.4249 40.85Z" fill="#110F0F"/>
<path   d="M42.275 45.6001H40.375C37.753 45.6032 35.6281 47.7281 35.625 50.3501V56.0501C35.625 56.5747 36.0504 57.0001 36.575 57.0001H46.075C46.5996 57.0001 47.025 56.5747 47.025 56.0501V50.3501C47.0219 47.7281 44.897 45.6032 42.275 45.6001ZM45.125 55.1001H37.525V50.3501C37.525 48.7761 38.801 47.5001 40.375 47.5001H42.275C43.849 47.5001 45.125 48.7761 45.125 50.3501V55.1001Z" fill="#110F0F"/>
</g>
<g class="student">
<path   d="M28.025 43.7C29.5991 43.7 30.875 42.424 30.875 40.85C30.875 39.276 29.5991 38 28.025 38C26.451 38 25.175 39.276 25.175 40.85C25.175 42.424 26.451 43.7 28.025 43.7Z" fill="#FFE477"/>
<path   d="M23.2749 50.35V56.05H32.7749V50.35C32.7749 48.2514 31.0736 46.55 28.9749 46.55H27.0749C24.9762 46.55 23.2749 48.2514 23.2749 50.35Z" fill="#FFDE55"/>
<path   d="M31.8249 40.85C31.8249 38.7514 30.1235 37.05 28.0249 37.05C25.9262 37.05 24.2249 38.7514 24.2249 40.85C24.2249 42.9487 25.9262 44.65 28.0249 44.65C30.1235 44.65 31.8249 42.9487 31.8249 40.85ZM26.1249 40.85C26.1249 39.8007 26.9755 38.95 28.0249 38.95C29.0742 38.95 29.9249 39.8007 29.9249 40.85C29.9249 41.8994 29.0742 42.75 28.0249 42.75C26.9755 42.75 26.1249 41.8994 26.1249 40.85Z" fill="#110F0F"/>
<path   d="M28.975 45.6001H27.075C24.453 45.6032 22.328 47.7281 22.325 50.3501V56.0501C22.325 56.5747 22.7503 57.0001 23.275 57.0001H32.775C33.2996 57.0001 33.725 56.5747 33.725 56.0501V50.3501C33.7219 47.7281 31.597 45.6032 28.975 45.6001ZM31.825 55.1001H24.225V50.3501C24.225 48.7761 25.5009 47.5001 27.075 47.5001H28.975C30.549 47.5001 31.825 48.7761 31.825 50.3501V55.1001Z" fill="#110F0F"/>
</g>
<g class="student">
<path   d="M14.725 43.7C16.299 43.7 17.575 42.424 17.575 40.85C17.575 39.276 16.299 38 14.725 38C13.151 38 11.875 39.276 11.875 40.85C11.875 42.424 13.151 43.7 14.725 43.7Z" fill="#FFE477"/>
<path   d="M9.9751 50.35V56.05H19.4751V50.35C19.4751 48.2514 17.7738 46.55 15.6751 46.55H13.7751C11.6764 46.55 9.9751 48.2514 9.9751 50.35Z" fill="#FFDE55"/>
<path   d="M14.7248 37.05C12.6261 37.05 10.9248 38.7514 10.9248 40.85C10.9248 42.9487 12.6261 44.65 14.7248 44.65C16.8235 44.65 18.5248 42.9487 18.5248 40.85C18.5248 38.7514 16.8235 37.05 14.7248 37.05ZM14.7248 42.75C13.6754 42.75 12.8248 41.8994 12.8248 40.85C12.8248 39.8007 13.6754 38.95 14.7248 38.95C15.7742 38.95 16.6248 39.8007 16.6248 40.85C16.6248 41.8994 15.7742 42.75 14.7248 42.75Z" fill="#110F0F"/>
<path   d="M15.6749 45.6001H13.7749C11.1529 45.6032 9.02799 47.7281 9.0249 50.3501V56.0501C9.0249 56.5747 9.45026 57.0001 9.9749 57.0001H19.4749C19.9995 57.0001 20.4249 56.5747 20.4249 56.0501V50.3501C20.4218 47.7281 18.2969 45.6032 15.6749 45.6001ZM18.5249 55.1001H10.9249V50.3501C10.9249 48.7761 12.2009 47.5001 13.7749 47.5001H15.6749C17.2489 47.5001 18.5249 48.7761 18.5249 50.3501V55.1001Z" fill="#110F0F"/>
</g>
<g class="teacher">
<path   d="M3.32495 19.9499V33.2499H16.625V19.9499H28.025V16.1499H7.12495C5.02628 16.1499 3.32495 17.8512 3.32495 19.9499Z" fill="#FF7956"/>
<path   d="M12.825 10.45V8.54995C12.825 6.97592 11.549 5.69995 9.975 5.69995C8.40097 5.69995 7.125 6.97592 7.125 8.54995V10.45C7.125 12.024 8.40097 13.3 9.975 13.3C11.549 13.3 12.825 12.024 12.825 10.45Z" fill="#FF9478"/>
<path   d="M17.575 33.25V20.9H28.025C28.5496 20.9 28.975 20.4746 28.975 19.95V16.15C28.975 15.6253 28.5496 15.2 28.025 15.2H7.125C4.503 15.203 2.37809 17.328 2.375 19.95V33.25C2.375 33.7746 2.80036 34.2 3.325 34.2H16.625C17.1496 34.2 17.575 33.7746 17.575 33.25ZM15.675 19.95V32.3H4.275V19.95C4.275 18.3759 5.55097 17.1 7.125 17.1H27.075V19H16.625C16.1004 19 15.675 19.4253 15.675 19.95Z" fill="#110F0F"/>
<path   d="M9.97505 14.25C12.0737 14.25 13.775 12.5487 13.775 10.45V8.55C13.775 6.45133 12.0737 4.75 9.97505 4.75C7.87638 4.75 6.17505 6.45133 6.17505 8.55V10.45C6.17505 12.5487 7.87638 14.25 9.97505 14.25ZM8.07505 8.55C8.07505 7.50061 8.92566 6.65 9.97505 6.65C11.0244 6.65 11.875 7.50061 11.875 8.55V10.45C11.875 11.4994 11.0244 12.35 9.97505 12.35C8.92566 12.35 8.07505 11.4994 8.07505 10.45V8.55Z" fill="#110F0F"/>
</g>
<g class="desk">
<path   d="M21.375 0.949951H53.675V27.55H21.375V0.949951Z" fill="#9BFBFF"/>
<path   d="M53.675 0H21.375C20.8504 0 20.425 0.425362 20.425 0.95V13.3H22.325V1.9H52.7251V26.6H22.325V22.8H20.425V27.55C20.425 28.0746 20.8504 28.5 21.375 28.5H53.675C54.1997 28.5 54.625 28.0746 54.625 27.55V0.95C54.625 0.425362 54.1997 0 53.675 0Z" fill="#110F0F"/>
<path   d="M26.125 5.69995H28.025V7.59995H26.125V5.69995Z" fill="#110F0F"/>
<path   d="M29.925 5.69995H48.925V7.59995H29.925V5.69995Z" fill="#110F0F"/>
<path   d="M26.125 9.5H48.925V11.4H26.125V9.5Z" fill="#110F0F"/>
<path   d="M30.875 13.3H48.925V15.2H30.875V13.3Z" fill="#110F0F"/>
<path   d="M30.875 17.1001H48.925V19.0001H30.875V17.1001Z" fill="#110F0F"/>
<path   d="M30.875 20.8999H48.925V22.7999H30.875V20.8999Z" fill="#110F0F"/>
</g>
</g>
<defs>
<clipPath id="clip0_178_3367">
<rect width="57" height="57" fill="white"/>
</clipPath>
</defs>
</svg>
