<svg width="1920" height="79" viewBox="0 0 1920 79" fill="none" xmlns="http://www.w3.org/2000/svg">
<g clip-path="url(#clip0_177_2)">
<path d="M718.777 45.7569C716.651 45.6572 715.188 45.4659 713.062 45.3661C713.41 45.0169 715.536 44.9171 718.777 44.9753L718.777 45.7653L718.777 45.7569Z" fill="black"/>
<path d="M1318.07 39.2631C1327.48 40.4022 1337.41 41.4499 1339.47 43.5951C1330.58 44.6761 1321.73 42.8468 1322.32 42.0236C1320.3 41.9987 1318.28 41.9904 1318.04 42.2149C1312.91 40.793 1307.69 39.6123 1299.5 39.0718C1297.41 38.1988 1300.51 38.0491 1300.93 37.1095C1304.55 37.3423 1307.41 37.2425 1313.78 37.1095C1317.9 37.8911 1317.44 38.1904 1318.07 39.2714L1318.07 39.2631Z" fill="black"/>
<path d="M724.492 42.0236C725.503 42.6223 725.503 42.3978 724.492 43.0048C721.112 42.88 717.836 42.747 717.383 42.2148C720.798 42.298 720.45 41.8573 724.492 42.0236Z" fill="black"/>
<path d="M1269.53 41.6245C1263.67 41.267 1258.58 39.7204 1270.96 39.8618C1273.05 40.2027 1270.08 41.0425 1269.53 41.6245Z" fill="black"/>
<path d="M741.603 40.0529C741.777 39.554 743.659 39.2879 747.283 39.263C748.503 39.421 748.119 39.8035 750.141 39.8617C749.966 40.294 744.077 39.9448 741.603 40.0529Z" fill="black"/>
<path d="M1345.15 37.8911C1340.41 37.8911 1341.73 36.4443 1342.29 36.3113C1346.61 36.3778 1348.08 37.4172 1345.15 37.8911Z" fill="black"/>
<path d="M1373.69 33.1681C1386.58 32.2036 1387.07 35.4381 1379.4 36.5107L1377.77 36.2114L1375.15 36.3112C1376.72 34.8893 1375.29 34.4486 1373.72 33.1681L1373.69 33.1681Z" fill="black"/>
<path d="M735.888 37.4919C730.939 37.6332 730.765 36.8018 733.03 36.5107C736.132 36.5357 736.097 37.0013 735.888 37.4919Z" fill="black"/>
<path d="M1333.75 34.7397L1332.08 34.4487L1329.47 34.5484C1329.01 33.8334 1329.68 33.2679 1330.9 32.7774C1337.1 32.6443 1338.81 33.1349 1340.9 33.5673L1340.2 33.8583C1341.66 33.8749 1343.62 33.8666 1345.01 33.9664C1345.74 34.2491 1344.49 34.5983 1345.92 34.8478L1341.56 34.0994C1339.4 34.3738 1334.87 34.3323 1333.79 34.748L1333.75 34.7397Z" fill="black"/>
<path d="M745.889 34.1493C750.35 34.0579 750.454 34.5651 750.176 35.1305L745.889 35.1305C746.726 34.5069 743.206 34.5235 745.889 34.1493Z" fill="black"/>
<path d="M279.299 35.1305C280.066 34.9725 280.763 34.8145 280.728 34.5401C282.575 34.6067 282.958 34.8894 284.98 34.9309C284.561 35.197 281.425 35.0972 279.264 35.1305L279.299 35.1305Z" fill="black"/>
<path d="M1399.37 33.9497C1401.26 34.0163 1401.6 34.299 1403.66 34.3405C1403.14 34.5983 1401.15 34.6482 1400.8 34.9309C1397.18 34.9143 1397.42 34.1992 1399.37 33.9497Z" fill="black"/>
<path d="M410.574 32.5778L417.684 32.5778C419.67 32.6942 417.893 33.3345 420.541 33.3594C419.531 33.9997 412.387 33.4842 411.968 33.7585C409.076 33.4842 413.397 33.0767 410.54 32.5778L410.574 32.5778Z" fill="black"/>
<path d="M741.603 31.7879C739.895 32.2785 739.512 32.952 738.745 33.5589C734.459 33.7585 736.236 33.1183 735.888 32.769L731.601 32.769C734.738 32.4198 736.585 31.8793 741.603 31.7879Z" fill="black"/>
<path d="M680.269 32.1788C680.861 31.8046 680.792 31.3306 684.555 31.3888C683.963 31.7713 684.033 32.237 680.269 32.1788Z" fill="black"/>
<path d="M1368.01 30.208L1365.88 30.1166L1365.15 30.4076C1356.79 29.4181 1359.65 28.0877 1355.15 26.6742C1354 26.7823 1352.85 26.8821 1350.86 26.8738C1349.05 26.1005 1355.01 26.3998 1355.15 25.8926C1349.78 24.8615 1344.87 23.7723 1342.33 22.3504C1344.17 22.5833 1344.56 22.4253 1346.61 22.3504L1347.31 22.6415L1349.43 22.55C1356.44 22.3504 1356.61 24.6703 1359.4 25.693C1367 26.749 1370.87 28.3122 1375.12 29.8255C1374.74 30.233 1368.85 29.8754 1367.97 30.2164L1368.01 30.208Z" fill="black"/>
<path d="M414.861 31.5884L414.861 30.998L423.434 30.998C421.064 31.7048 419.6 31.3888 414.861 31.5884Z" fill="black"/>
<path d="M690.236 30.998C690.236 30.4742 685.74 30.574 685.949 30.0169C692.64 29.8173 694.069 30.3412 697.38 30.6072C696.16 30.8983 692.78 30.89 690.236 30.998Z" fill="black"/>
<path d="M674.554 30.7984C673.125 31.3555 668.49 30.7485 666.016 30.7984C667.131 30.075 671.87 30.6404 674.554 30.7984Z" fill="black"/>
<path d="M402.037 30.998C399.946 30.8317 397.541 30.6987 397.75 30.2081L403.431 30.2081C400.956 30.6156 404.511 30.5906 402.002 30.998L402.037 30.998Z" fill="black"/>
<path d="M1302.35 30.7985L1302.35 30.2081C1305.46 30.1748 1306.88 30.3744 1306.61 30.7985L1302.35 30.7985Z" fill="black"/>
<path d="M306.412 30.4076C305.854 30.4824 310.698 30.6238 310.698 30.6071C311.116 30.9148 302.996 30.8815 306.412 30.4076Z" fill="black"/>
<path d="M754.462 30.6072C751.918 30.5656 751.221 30.2663 751.604 29.8173C754.079 29.8671 754.845 30.1582 754.462 30.6072Z" fill="black"/>
<path d="M449.117 23.3317C449.117 23.3317 444.622 23.6227 444.831 23.9221C444.97 24.1299 448.699 24.1133 447.688 24.5124C443.785 24.5374 444.831 24.1881 442.008 24.5124C446.155 24.9365 438.732 25.7347 444.866 25.8927C437.269 26.9321 448.629 28.6366 434.864 29.044C435.909 29.227 437.443 29.3351 439.15 29.4348C439.359 30.0585 431.205 29.518 433.435 30.4243C428.103 30.6405 431.205 29.6843 426.291 29.834C427.267 27.8633 417.858 27.3229 416.324 25.7014C425.768 24.845 430.438 23.3234 436.328 21.9681C442.182 22.2923 444.657 21.9015 449.152 22.1676C445.005 22.3339 449.57 22.8827 449.152 23.3483L449.117 23.3317Z" fill="black"/>
<path d="M1399.37 29.227C1397.98 29.227 1398.26 29.4681 1397.94 29.6178C1393.55 29.7674 1395.23 29.0773 1390.8 29.227C1392.47 28.7447 1401.01 28.6616 1400.8 29.4182C1399.58 29.4515 1399.44 29.3434 1399.37 29.227Z" fill="black"/>
<path d="M546.136 28.0546L538.992 28.0546C538.017 27.0651 541.432 26.6826 540.421 25.6848C545.857 25.8677 549.517 25.3688 551.817 25.6848C548.889 26.641 547.007 26.4498 546.101 28.0546L546.136 28.0546Z" fill="black"/>
<path d="M102.407 26.6742C101.222 26.6326 100.978 26.4746 99.5144 26.4746C100.316 26.009 106.275 26.3499 102.407 26.6742Z" fill="black"/>
<path d="M1480.71 26.4747C1482.73 26.1587 1485.62 25.9758 1489.28 25.8843C1490.12 26.5911 1485.07 26.483 1480.71 26.4747Z" fill="black"/>
<path d="M376.353 26.2751C380.674 25.5517 381.162 26.8738 376.353 26.2751Z" fill="black"/>
<path d="M102.407 25.294C101.814 25.7845 96.8659 25.3106 98.1204 24.9032L102.407 24.9032C101.536 25.0778 100.664 25.2441 102.407 25.294Z" fill="black"/>
<path d="M1340.9 25.2939C1339.71 25.0694 1339.02 24.7701 1339.47 24.3128C1343.23 24.3793 1344.28 24.8283 1345.15 25.2939L1340.86 25.2939L1340.9 25.2939Z" fill="black"/>
<path d="M737.351 25.294C726.653 25.4603 725.433 24.3128 717.383 24.1133C722.192 22.5251 732.264 23.9054 741.638 23.9137C735.051 24.0883 739.791 24.7868 737.351 25.2857L737.351 25.294Z" fill="black"/>
<path d="M1316.64 22.3422C1321 22.4919 1321.83 22.1427 1325.22 22.151C1326.33 22.3256 1326.75 22.5917 1326.64 22.9409L1325.95 23.2319L1325.22 23.5313C1322.15 23.1654 1315.53 23.2901 1316.64 22.3505L1316.64 22.3422Z" fill="black"/>
<path d="M1450.74 23.7225C1456.35 23.473 1454.96 24.1881 1454.99 24.7036C1452.48 24.529 1450.04 24.3378 1450.74 23.7225Z" fill="black"/>
<path d="M774.43 23.7224C781.156 23.5395 776.974 24.637 774.43 23.7224Z" fill="black"/>
<path d="M707.381 22.3421C705.813 22.7828 704.036 23.1986 703.095 23.7224C700.168 23.5312 697.45 23.315 694.522 23.1321L694.522 21.9513C699.262 22.0179 700.865 22.5251 707.381 22.3421Z" fill="black"/>
<path d="M25.3214 22.5417C24.9729 23.1487 20.2683 23.1571 16.7486 23.3317C15.4243 22.4919 20.1637 22.4919 25.3214 22.5417Z" fill="black"/>
<path d="M1206.73 22.5417L1202.48 22.5417L1202.48 21.9514C1205.58 21.9181 1207.01 22.1094 1206.73 22.5417Z" fill="black"/>
<path d="M486.196 21.7518C490.692 22.4003 482.711 22.974 486.196 21.7518Z" fill="black"/>
<path d="M446.26 21.9514C441.241 21.7186 441.59 21.6687 437.687 21.5606C437.234 21.0368 440.649 21.0534 443.402 20.9703C444.029 21.3444 446.469 21.4692 446.26 21.9514Z" fill="black"/>
<path d="M1634.81 21.7518C1639.13 21.095 1629.51 21.1532 1634.81 21.7518Z" fill="black"/>
<path d="M1412.23 21.7518C1413.73 20.6044 1406.03 21.677 1412.23 21.7518Z" fill="black"/>
<path d="M1032.69 20.5711C1038.03 20.6958 1042.35 20.9453 1044.09 21.5522C1039.35 21.3527 1031.41 21.5938 1032.69 20.5711Z" fill="black"/>
<path d="M277.871 20.7623C281.181 20.8205 281.146 21.2862 279.299 21.5522C276.999 21.361 276.024 21.0284 277.871 20.7623Z" fill="black"/>
<path d="M1405.75 21.1283C1405.26 21.1283 1404.18 21.1449 1403.17 21.1532C1404.57 21.1449 1405.4 21.1283 1405.75 21.1283Z" fill="black"/>
<path d="M1402.23 21.1606C1402.58 21.1606 1402.86 21.1606 1403.14 21.1606C1402.58 21.1606 1402.06 21.1606 1401.64 21.1781C1401.81 21.1781 1401.99 21.1781 1402.23 21.1781L1402.23 21.1606Z" fill="black"/>
<path d="M276.442 20.7624C270.482 20.9952 273.898 19.9309 270.726 19.7812C274.664 19.0495 279.369 20.5212 276.442 20.7624Z" fill="black"/>
<path d="M443.402 20.3716C439.116 20.1388 443.611 19.5151 447.653 19.7812C448.107 20.2385 443.541 20.0057 443.402 20.3716Z" fill="black"/>
<path d="M1546.33 18.8C1539.92 19.2074 1535.07 20.4048 1527.79 19.5816C1530.4 19.1576 1527.51 17.9768 1530.65 17.6193L1532.77 17.7108L1534.9 17.6193C1536.75 17.9519 1537.86 18.3926 1542.04 18.4092L1541.35 18.7002C1543.72 18.4757 1546.09 18.4924 1548.49 18.5007L1543.61 18.642C1543.89 18.7834 1545.35 18.7584 1546.37 18.8L1546.33 18.8Z" fill="black"/>
<path d="M610.362 19.9807C611.861 18.8333 604.159 19.8976 610.362 19.9807Z" fill="black"/>
<path d="M538.992 19.7811C537.459 19.7396 538.051 19.3903 536.135 19.3903C536.762 18.8499 540.63 19.3903 538.992 19.7811Z" fill="black"/>
<path d="M212.25 19.1908C208.8 19.3737 205.315 19.5566 202.249 19.7811C195.767 19.4402 204.653 18.7917 203.678 18.0184L210.822 18.0184C205.768 18.6254 210.926 18.5339 212.25 19.1908Z" fill="black"/>
<path d="M1203.91 18.8001C1206.52 18.3843 1218.3 18.3095 1215.3 19.5817L1208.19 19.5817L1208.89 19.2906L1206.76 19.1909C1207.29 18.8583 1205.65 18.8167 1203.94 18.8001L1203.91 18.8001Z" fill="black"/>
<path d="M1500.68 18.8C1503.22 18.4341 1504.3 18.958 1509.25 18.8C1507.37 19.1409 1500.68 19.831 1500.68 18.8Z" fill="black"/>
<path d="M1382.26 18.8C1381.98 19.3904 1367.77 19.4735 1369.4 18.6004L1371.53 18.5007L1370.83 18.2096C1376.37 18.1681 1378.22 18.6337 1382.26 18.8Z" fill="black"/>
<path d="M1479.28 18.2097C1474.96 18.2097 1473.74 17.794 1470.71 17.6194C1471.34 17.2369 1473.78 17.1205 1473.57 16.6299C1475.06 17.0789 1479.14 17.1787 1480.71 17.6194L1478.79 17.8605L1479.32 18.2097L1479.28 18.2097Z" fill="black"/>
<path d="M1198.19 18.2096C1192.75 18.5505 1189.27 17.6276 1188.22 18.0184C1185.19 17.5444 1187.98 16.9707 1188.22 16.6381C1195.72 16.5882 1197.15 17.3698 1198.19 18.2096Z" fill="black"/>
<path d="M1172.51 18.2097C1169.37 18.1848 1169.44 17.7108 1169.65 17.2285C1174.04 17.0789 1172.4 17.769 1176.79 17.6277C1177.25 18.0767 1172.68 17.8438 1172.51 18.218L1172.51 18.2097Z" fill="black"/>
<path d="M909.957 18.2096C904.312 17.1952 917.415 17.4529 909.957 18.2096Z" fill="black"/>
<path d="M1797.45 16.6381C1802.64 16.5134 1803.06 17.0455 1803.17 17.6276C1801.49 17.5943 1800.62 17.6692 1800.31 17.8271C1795.53 17.6193 1800.24 17.2285 1797.45 16.6464L1797.45 16.6381Z" fill="black"/>
<path d="M1413.66 16.8294C1417.98 17.0788 1412.65 17.5777 1412.23 17.8188C1407.91 17.5777 1413.24 17.0705 1413.66 16.8294Z" fill="black"/>
<path d="M1633.38 17.6193C1631.74 17.453 1629.58 17.3615 1626.24 17.4197C1626.27 16.8959 1625.47 16.2639 1629.1 16.239L1629.83 16.5383L1631.95 16.4385C1633.59 16.6714 1633.56 17.137 1633.38 17.6193Z" fill="black"/>
<path d="M1630.53 15.8565L1630.53 16.0477L1629.83 15.9563L1629.1 15.8565C1624.6 15.5821 1624.36 15.8066 1619.13 15.8565C1622.37 15.158 1616.1 15.158 1619.13 14.2767L1621.26 14.3681L1620.56 14.0771C1620.31 13.9108 1621.12 13.8942 1621.99 13.8775L1624.11 13.969C1622.93 13.7112 1622.47 13.4452 1622.68 13.1874L1623.56 13.678C1633.17 13.5782 1644.92 16.1143 1630.53 15.8482L1630.53 15.8565Z" fill="black"/>
<path d="M1556.33 16.8293C1558.46 16.9374 1559.92 17.1204 1562.05 17.2284C1562.71 17.7772 1554.28 17.0705 1554.9 17.6276C1549.68 17.3199 1558.21 17.3365 1556.33 16.8376L1556.33 16.8293Z" fill="black"/>
<path d="M1466.42 16.8294L1469.28 16.8294C1469 16.9957 1469.84 17.0123 1470.71 17.029C1471.27 17.4114 1464.19 17.32 1466.42 16.8294Z" fill="black"/>
<path d="M19.6411 17.2285C16.6789 17.1786 19.2926 16.3555 15.3198 16.4386C15.7729 16.1725 18.9092 16.2806 21.035 16.239C21.4881 16.6964 20.7911 16.9957 19.6411 17.2202L19.6411 17.2285Z" fill="black"/>
<path d="M1579.16 17.029C1578.95 16.6049 1584.21 16.9375 1586.3 16.8294C1586.55 17.2535 1581.25 16.9209 1579.16 17.029Z" fill="black"/>
<path d="M1572.01 17.0289L1569.16 17.0289C1568.49 16.6049 1571.18 16.6548 1573.44 16.6381C1573.16 16.7961 1572.01 16.8377 1572.01 17.0289Z" fill="black"/>
<path d="M1457.88 16.4385L1460.74 16.4385L1460.74 16.8293L1457.88 16.8293L1457.88 16.4385Z" fill="black"/>
<path d="M1299.5 16.8293L1296.64 16.8293L1296.64 16.239L1300.93 16.239C1301.34 16.5549 1299.6 16.5799 1299.5 16.8293Z" fill="black"/>
<path d="M982.756 16.239C984.882 15.6486 989.134 16.3887 988.472 16.8293C985.544 16.7711 985.684 16.2972 982.756 16.239Z" fill="black"/>
<path d="M1149.68 16.0478L1152.54 16.0478C1152.96 16.3638 1151.18 16.3887 1151.11 16.6382L1148.25 16.6382C1147.83 16.3222 1149.61 16.3056 1149.68 16.0478Z" fill="black"/>
<path d="M1368.01 13.4868C1370.45 13.7362 1373.62 13.8942 1373.69 14.468C1369.72 15.1664 1369.33 16.3638 1360.87 16.4386C1359.89 14.9918 1361.35 13.8776 1368.01 13.4868Z" fill="black"/>
<path d="M1609.13 10.5349C1604.81 11.1669 1605.19 12.8881 1610.56 13.2872C1609.58 14.5926 1609.41 14.9834 1611.99 16.0394C1606.44 16.4385 1594.81 16.2223 1596.3 15.6486L1597.04 15.3493L1594.87 15.2495C1594.63 15.0832 1595.43 15.0666 1596.3 15.0499C1596.2 14.7423 1597 14.3016 1594.87 14.2683C1596.9 13.8858 1600.31 13.6946 1600.59 13.0876C1600.35 12.8631 1597.98 12.913 1596.3 12.8881C1600.31 12.148 1597.63 11.5078 1594.87 10.7179C1597.77 10.1026 1602.33 10.6015 1609.16 10.5266L1609.13 10.5349Z" fill="black"/>
<path d="M1226.73 16.2391C1224.22 16.3056 1224.19 15.1415 1228.16 15.4492C1228.75 15.8649 1227.19 15.973 1226.73 16.2391Z" fill="black"/>
<path d="M1166.79 15.6569C1169.89 15.6237 1171.32 15.8149 1171.08 16.239C1167.94 16.2722 1166.55 16.081 1166.79 15.6569Z" fill="black"/>
<path d="M540.421 15.4574L541.118 15.0999L538.992 14.867C539.201 14.4347 542.582 14.443 546.136 14.4762C545.962 14.8255 547.879 14.8837 547.565 15.2661C545.892 15.4324 543.732 15.5239 540.421 15.4574Z" fill="black"/>
<path d="M1774.66 15.0583C1773.34 14.1354 1781.28 14.7091 1774.66 15.0583Z" fill="black"/>
<path d="M1165.36 12.7052L1164.67 13.071L1166.79 13.2955C1166.17 13.6032 1162.3 13.4701 1163.94 14.0854C1159.96 13.9524 1155.12 12.6054 1161.08 12.3144L1161.08 12.5139L1162.51 12.5139C1163.66 12.5555 1163.94 12.7135 1165.36 12.7135L1165.36 12.7052Z" fill="black"/>
<path d="M1165.36 11.9153L1163.94 11.8238L1162.51 11.9153C1162.23 11.4912 1163.66 11.2917 1166.79 11.3249C1167.18 11.6409 1165.43 11.6658 1165.36 11.9153Z" fill="black"/>
<path d="M708.775 14.0771C707.66 13.6614 705.325 12.9796 707.381 12.6969C713.689 12.6137 715.153 13.1958 714.525 14.0771L708.81 14.0771L708.775 14.0771Z" fill="black"/>
<path d="M618.9 13.6863C613.499 13.5034 617.855 12.8964 617.472 12.306C618.622 12.4141 619.807 12.5139 621.723 12.5056C623.257 13.2373 618.204 13.071 618.866 13.6863L618.9 13.6863Z" fill="black"/>
<path d="M1379.41 11.9153C1379.58 11.4164 1381.5 11.1587 1385.12 11.1254C1384.98 11.4081 1384.88 11.6825 1386.55 11.7158C1386.79 12.1398 1381.5 11.8072 1379.41 11.9153Z" fill="black"/>
<path d="M1155.4 11.5245C1152.09 11.591 1149.93 11.4996 1148.25 11.3249C1147.83 10.8094 1157.91 10.6431 1155.4 11.5245Z" fill="black"/>
<path d="M1609.13 11.1253C1608.57 10.1691 1615.64 10.8094 1619.13 10.9258C1618.5 11.3665 1612.09 11.0006 1609.13 11.1253Z" fill="black"/>
<path d="M1490.71 9.95296C1496.5 9.86981 1495.1 10.7844 1499.25 10.9341C1495.49 11.5078 1488.8 10.8177 1490.71 9.95296Z" fill="black"/>
<path d="M175.136 8.17352C179.004 8.8304 185.835 9.0549 187.995 9.94459C177.088 9.96122 179.597 10.6098 169.456 10.7262C161.092 9.49559 177.82 9.75335 175.136 8.17352Z" fill="black"/>
<path d="M1609.13 8.17359L1611.99 8.17359L1611.99 8.9635L1609.13 8.9635L1609.13 8.17359Z" fill="black"/>
<path d="M1841.71 8.57263C1838.26 8.65578 1838.61 8.20677 1834.56 8.37307C1835.82 7.94069 1842.54 7.7744 1841.71 8.57263Z" fill="black"/>
<path d="M1626.24 8.37314C1626.59 8.02391 1628.71 7.92413 1631.95 7.98234C1633.38 8.5727 1628.78 8.33157 1626.24 8.37314Z" fill="black"/>
<path d="M179.423 7.98231C179.423 7.98231 179.527 8.18187 179.423 8.18187C172.592 8.34817 186.218 6.90968 179.423 7.98231Z" fill="black"/>
<path d="M1609.13 6.01167C1608.08 6.61866 1610.59 6.72675 1610.56 7.19238L1606.27 7.19238C1607.25 6.45236 1602.3 6.03661 1609.13 6.01167Z" fill="black"/>
<path d="M1768.94 6.2113C1770.86 6.27782 1770.13 6.70188 1770.37 7.00122L1767.52 7.00122C1767.79 6.83492 1766.96 6.81829 1766.09 6.80166C1766.99 6.6021 1769.36 6.6021 1768.94 6.2113Z" fill="black"/>
<path d="M1580.59 5.2218L1579.16 5.12203L1577.73 5.2218C1577.97 5.0555 1577.17 5.03888 1576.3 5.03056L1577.03 4.73122L1574.87 4.63144C1574.49 4.30716 1576.23 4.29053 1576.3 4.04109C1580.06 4.13255 1581.11 4.19075 1584.84 4.63144C1585.29 5.08045 1580.73 4.84764 1580.59 5.21349L1580.59 5.2218Z" fill="black"/>
<path d="M103.801 6.21125C103.452 6.42744 100.978 6.34429 100.943 6.60205C97.075 6.43575 102.128 5.72898 103.801 6.21125Z" fill="black"/>
<path d="M1590.59 5.62092C1590.34 5.18855 1595.64 5.52946 1597.73 5.42968C1597.98 5.85374 1592.68 5.51283 1590.59 5.62092Z" fill="black"/>
<path d="M1198.19 4.83093C1192.93 4.67295 1197.01 4.02438 1198.19 3.65021C1201.33 3.67515 1201.26 4.14079 1201.05 4.63137C1199.38 4.59811 1198.51 4.67295 1198.19 4.83093Z" fill="black"/>
<path d="M1487.85 4.04101C1487.3 4.11584 1492.14 4.24888 1492.11 4.24056C1492.52 4.54822 1484.4 4.51496 1487.85 4.04101Z" fill="black"/>
<path d="M1761.8 2.86035C1762.95 2.96845 1764.14 3.06823 1766.09 3.05991C1763.96 3.28441 1762.6 3.62532 1758.94 3.65027C1759.67 3.35925 1761.03 3.15138 1761.8 2.86035Z" fill="black"/>
<path d="M1791.77 2.26994L1791.77 1.87914C1795.32 1.62138 1797.69 2.46118 1798.91 1.87914C1803.79 2.46118 1792.82 2.34477 1793.2 2.4695C1791.98 2.50276 1791.84 2.39466 1791.77 2.26994Z" fill="black"/>
<path d="M1562.05 2.26992C1562.33 2.11193 1563.48 2.07867 1563.48 1.87911L1566.33 1.87911L1566.33 2.46947C1564.03 2.52768 1563.89 2.28655 1562.05 2.26992Z" fill="black"/>
<path d="M1817.45 1.0976L1820.31 1.0976L1820.31 1.4884L1817.45 1.4884L1817.45 1.0976Z" fill="black"/>
<path d="M1557.76 0.507198C1561.07 0.557088 1561.04 1.03104 1559.19 1.29712C1555.88 1.24723 1555.91 0.773276 1557.76 0.507198Z" fill="black"/>
<path d="M1550.62 0.698486C1550.2 0.174647 1552.6 0.0499238 1556.33 0.108128C1556.79 0.623653 1554.35 0.748376 1550.62 0.698486Z" fill="black"/>
<path d="M1.06714 37.3925C5.56328 37.1585 4.55252 37.7132 6.78316 37.7999C18.7032 36.9678 6.64375 35.9538 -1.79088 36.1618C0.509475 35.1912 8.9441 35.1045 11.0702 34.1165C7.61965 33.2758 12.4992 32.9638 12.4992 32.0625C23.025 31.4038 22.6765 29.4885 31.0414 28.9858L31.7733 29.2892L33.8994 29.1938C42.3689 28.5178 51.0475 29.4105 53.8707 30.2165C56.8332 30.2945 57.6349 30.0692 59.5867 30.0085C56.6938 29.1678 56.5893 28.5265 49.6185 27.9545C49.1654 27.4085 52.5811 27.4171 55.3345 27.3391C46.6908 25.5105 46.8999 22.3991 31.0763 21.5931C32.0173 21.3851 34.3525 21.3851 33.9343 20.9778L34.6314 20.6658L35.3633 20.3538C40.5565 20.7438 48.9911 19.4265 45.3663 18.5078C49.5139 17.9098 57.6349 18.4211 55.3345 19.1231L53.2084 19.2271L55.3345 19.3311C49.8973 19.7471 53.069 20.6138 51.0475 21.1771C56.171 21.0471 57.9486 21.4111 61.0505 21.5845C60.6671 22.3471 48.8517 23.4305 56.7635 24.0458C56.8332 24.4011 55.7179 24.5745 53.9055 24.6611C60.6323 24.6351 68.3001 25.9178 76.7348 26.2991C70.6702 26.9752 77.5015 27.5125 79.5928 28.1452C85.5528 28.3878 82.1371 27.2785 85.2739 27.1225C91.931 26.9231 87.2258 28.3445 93.848 28.1452C94.2314 28.4832 92.4887 28.5005 92.419 28.7605C92.7327 29.0205 96.6711 29.0292 96.706 28.7605C98.8321 28.8472 96.1483 29.0205 96.706 29.3758L94.5451 29.2718L100.261 29.5838L99.5291 29.3758C101.76 29.0725 106.221 29.0985 108.103 28.7605L110.055 28.5178L109.532 28.1452C114.133 28.4832 119.012 28.3185 122.358 27.9372C124.45 26.2385 115.597 26.0391 115.213 24.2451C116.503 24.0805 118.455 24.0198 120.929 24.0371C121.208 23.1705 125.321 22.9538 125.216 21.9831C125.147 21.0818 121.417 20.3191 120.929 19.7298C120.511 18.8891 122.916 19.7645 126.645 19.5218L126.645 19.3138L129.294 19.4178L130.932 19.1145C134.034 19.2878 135.986 19.6258 135.219 20.3451C142.051 20.5358 140.622 20.3971 149.475 20.5531C147.837 20.8565 147.837 21.0731 149.475 21.3765C153.169 21.1511 156.341 20.8651 158.049 20.3538C164.741 21.4545 166.379 19.5478 172.304 19.3311L173.733 19.3311L173.733 19.1231C174.883 19.2358 176.033 19.3398 178.02 19.3311L177.288 19.6345L179.414 19.5391C184.956 20.4665 177.846 20.7611 182.272 21.5845C189.661 21.0298 191.23 22.0005 197.956 21.5845C196.667 22.6418 196.98 22.6505 203.672 22.8151C200.361 23.4738 213.466 24.1325 205.101 24.8691C210.085 25.6318 213.606 24.4618 219.357 24.6611L218.659 24.9645L220.786 25.0685C222.075 25.5711 214.442 26.1258 220.786 26.0998C219.566 26.3945 218.659 26.7412 215.07 26.7065C214.826 26.8798 215.662 26.8972 216.499 26.9145L215.801 27.2958L217.928 27.5298C221.622 27.7985 220.681 28.1972 219.357 28.7605C220.611 29.0725 221.483 28.7085 225.073 28.9685C222.668 30.6238 219.182 33.1458 206.495 32.6605C201.581 33.3365 207.227 33.8305 205.066 34.2985C212.142 34.0385 212.072 34.7925 217.893 34.7145C215.244 35.1045 217.753 35.2345 217.893 35.7372C220.158 35.7545 223.365 35.6418 223.609 35.9365L222.18 35.9365L227.164 36.0405L225.038 35.9365C230.266 34.8185 230.998 33.6312 227.896 32.4525C230.649 32.1665 232.113 31.6898 233.612 31.2218C251.771 31.0572 256.058 33.3278 257.87 34.9138C258.916 35.3818 262.157 35.5292 265.015 35.7372C264.179 37.9559 275.611 37.6265 284.986 37.5832C280.072 37.8345 284.15 39.3772 280.734 39.8365L278.12 39.7412C278.608 40.0099 278.469 40.2872 278.12 40.5645L280.734 40.4605C282.024 40.8159 283.383 41.1712 287.879 41.0759C282.512 41.6132 292.689 43.0345 282.163 43.3379C287.252 43.8839 289.97 44.2305 297.882 43.9532C294.676 42.9392 296.627 42.6185 295.024 41.4919C298.893 41.3012 300.357 40.7552 303.598 40.4692C301.612 39.7325 298.788 39.7325 295.024 39.6545C293.56 38.8312 297.255 38.7445 299.311 38.4239L301.472 38.1812L300.74 37.8085C310.22 37.7912 314.159 36.2572 309.314 35.3472C322.524 36.3092 323.779 33.8998 333.572 33.7092C338.522 32.6172 333.572 31.7765 339.288 30.6325L346.399 30.6325C338.905 31.4472 352.916 31.4472 347.828 32.4785C357.9 32.8772 358.737 33.1632 366.37 32.6865C362.675 33.3712 364.488 33.3278 364.941 34.3245C356.75 34.6798 353.056 33.9605 349.222 34.9398C351.696 35.0178 356.088 35.8065 359.225 36.3785C365.882 35.9798 372.504 36.6905 376.338 35.7719C376.338 34.8012 368.496 34.1252 370.622 33.5098C372.295 33.7438 375.641 33.7438 379.161 33.7178C387.526 32.0452 399.69 33.3452 401.991 35.1565C403.106 35.3558 408.682 35.9365 409.136 35.5638C413.492 35.7719 407.497 36.1099 407.707 36.3872C413.632 36.0839 417.779 36.9159 427.678 37.0025C428.619 36.5345 430.745 34.9138 429.107 34.1338L431.233 34.0298L430.536 33.7265C436.391 33.5618 448.625 32.8598 459.081 32.7038C461.521 33.0418 460.58 33.8565 464.797 33.9345C466.365 34.7318 459.743 34.6625 463.368 35.1652C468.143 35.9452 470.757 35.1132 474.765 34.7578L474.765 34.9572L476.194 34.9572C477.658 35.3645 478.669 35.8412 481.875 35.9799C496.619 35.5292 498.466 31.5858 473.336 32.7038L472.639 32.4005L470.513 32.4958C471.454 31.4038 479.575 31.3432 481.91 30.4505C500.243 30.6758 511.153 31.4558 526.175 31.0572L525.443 31.3692L527.569 31.4645C526.837 31.7678 525.478 31.9845 524.711 32.2878C524.955 32.8685 527.22 33.1632 531.821 33.1112C530.984 33.5358 533.598 34.4545 530.392 34.5498C530.601 34.9918 533.982 34.9918 537.537 34.9572C536.003 35.1478 537.084 35.7199 533.25 35.5725C533.459 36.0232 536.84 36.0145 540.395 35.9799C538.06 36.3352 537.258 36.8985 534.644 37.2105C535.271 37.4705 536.491 37.6352 538.931 37.6179C535.55 38.3025 541.754 39.0999 534.644 39.2559C538.373 40.1832 546.878 38.8485 547.505 38.0252C552.036 38.1985 552.907 37.8519 554.615 37.6179C556.009 36.8032 550.363 37.0025 551.792 36.1792C556.149 36.3265 555.975 35.8239 560.366 35.9712C560.157 35.3125 557.125 35.0698 551.792 35.1565C557.264 34.2638 548.795 34.0645 544.647 33.9258C543.88 32.4785 544.194 32.4698 546.076 30.6412C560.471 30.8578 552.35 27.8505 560.366 27.1572C559.913 26.6718 555.94 26.6978 554.65 26.3338L553.953 26.1345L553.256 25.9265C558.554 25.6232 560.54 25.3112 566.082 24.6958C576.504 25.5105 564.235 28.7605 577.479 29.4105C576.504 29.8178 573.123 29.8785 571.763 30.2338L569.637 30.1298C570.369 30.3985 570.125 30.6758 569.637 30.9532L571.763 30.8492C574.238 31.0398 575.458 31.5685 573.192 31.8805C576.19 31.7938 576.957 32.0192 578.908 32.0885C577.096 31.2132 578.804 31.0398 583.195 30.6498C584.694 29.1505 583.021 28.4485 583.195 26.7498L585.322 26.8538L586.053 26.5418C592.327 26.4638 589.748 27.6425 594.627 27.7725C594.14 28.2578 592.885 28.6218 591.769 29.0032C601.912 29.9045 602.226 27.6425 607.489 27.1572C615.714 27.6078 635.162 26.3165 626.031 24.9038L627.46 24.9038L627.46 24.6958C624.637 23.0058 622.232 22.1565 626.031 20.3885L627.878 20.1198L628.889 19.7731C632.723 20.1805 637.393 20.4578 641.715 20.7958C637.149 22.1305 648.093 22.8411 653.112 23.4651C657.469 23.4045 662.871 23.4998 663.115 22.8498C668.622 23.1531 667.019 24.4792 668.831 25.3112C661.268 25.4325 660.745 25.7618 660.257 26.5418C662.383 26.7845 664.265 27.0532 665.973 27.3652L665.241 27.7465L667.367 27.9892C657.957 28.3445 658.096 30.0778 651.683 30.8578C652.624 31.1352 654.75 31.2392 657.399 31.2652C655.552 31.2998 655.552 32.5218 657.399 31.8805C660.501 32.1405 652.659 32.5565 654.541 33.3192C657.225 33.8218 662.836 33.9085 661.686 34.9572C662.941 35.6679 672.77 35.1479 671.654 36.1879C666.984 36.5172 666.217 36.1445 660.257 36.1879C659.63 36.6212 661.198 36.7339 661.686 37.0025C671.724 36.6819 677.754 36.6732 683.086 35.9799L685.247 36.0839L687.373 36.1879C688.628 36.2832 689.953 36.3699 690.232 36.5952C696.435 36.3959 698.527 35.6072 704.522 35.3732C702.082 33.5185 711.562 33.3798 720.206 33.1112C720.066 33.7525 721.948 34.0905 723.064 34.5498C717.383 35.6939 716.302 36.8812 715.919 38.2419C722.123 38.9612 725.155 39.0045 725.922 40.2872C728.954 40.8072 736.552 40.6772 735.925 41.7345C730.906 41.5439 727.072 42.1332 718.812 42.3412L717.383 42.2372L715.954 42.3412C715.117 41.9165 712.956 41.6739 711.667 41.3099C709.018 41.4745 706.439 41.6565 703.093 41.7259C701.977 41.1279 697.899 40.9632 695.948 40.4865C703.093 40.0099 711.039 39.6459 710.238 38.0252C707.624 37.2712 705.044 37.5919 698.806 37.6179C697.411 38.4325 703.093 38.2332 701.664 39.0565C693.891 38.9612 690.998 39.5679 685.979 39.8712C687.025 40.0705 688.558 40.1919 690.266 40.2785C685.422 40.5385 683.365 41.2059 677.405 41.3012C676.116 41.9685 682.076 41.5959 683.121 41.9165C682.355 42.0899 681.623 42.2545 681.692 42.5319C675.872 42.6879 676.778 41.8732 670.26 42.1245C669.459 42.8959 667.995 44.9846 664.544 46.0159C666.426 46.5706 673.537 46.3712 675.976 46.8392L676.708 47.0472C678.695 47.0559 681.03 47.0472 683.121 47.2552C682.773 47.7579 680.333 48.1912 676.708 48.2519L678.869 48.4859C678.242 49.2572 681.901 49.4219 684.55 49.7166L683.818 49.9246L684.55 50.1239C685.317 50.2886 686.049 50.4532 685.979 50.7392L690.266 50.7392C690.092 50.3752 692.009 50.3146 691.695 49.9246C690.022 49.9506 689.151 49.8726 688.837 49.7166L689.534 49.4046L687.408 49.3006C696.714 49.1706 701.594 47.4286 711.667 48.0699C712.712 48.6939 710.203 48.8152 710.238 49.3006L711.667 49.3006L710.935 49.6126L713.061 49.7166C713.026 49.9159 711.318 49.8726 710.203 49.9246C709.994 50.8432 716.232 50.8346 717.348 51.5626C723.552 51.2939 725.294 51.4499 730.174 51.7706C726.863 52.2386 730.871 52.7152 733.032 53.0012L731.568 53.0012L738.016 53.1052L735.89 53.0012C735.855 52.5159 738.33 52.3946 737.319 51.7706C737.145 51.3806 731.986 52.0912 730.174 51.5626C734.426 49.9852 746.555 49.5432 755.861 48.6939C759.347 48.8759 761.089 49.3006 767.293 49.1012C767.851 48.6072 764.679 48.6506 765.864 48.0699L767.816 47.8186L767.328 47.4546C772.277 47.5152 772.73 47.7666 777.296 47.4546C770.012 46.9259 773.114 44.9066 767.328 44.1699C766.178 44.2132 765.899 44.3779 764.47 44.3779C761.089 45.4006 749.483 45.2359 745.928 46.2239C742.059 46.0246 742.408 45.2272 738.783 44.9932L737.354 44.9932L738.051 44.6899L735.925 44.5945C740.735 44.3172 740.491 43.3379 745.893 43.1559C746.451 43.6585 743 44.0919 753.038 43.9792C755.617 43.5285 757.848 43.0259 764.47 43.1559C762.623 43.4332 762.623 43.9099 764.47 44.1785C772.905 43.8232 772.103 42.6012 777.296 41.7259C778.551 41.5092 787.543 41.9599 784.441 40.9025L795.873 40.9025C788.903 39.7152 783.605 38.2939 773.044 37.6179C772.696 36.5172 770.5 35.7545 773.044 34.7492C781.618 34.8185 785.626 34.2292 791.586 33.9258C788.694 33.5272 788.275 33.0938 790.157 32.4872C787.264 31.8805 778.934 32.0452 778.725 31.0485C782.873 30.3638 782.42 31.0745 788.694 31.0485C786.811 30.6412 784.023 30.3552 780.154 30.2338C773.776 30.6152 768.095 31.0918 760.183 31.2565C753.421 30.1385 755.304 28.9338 744.464 28.5958C744.29 28.2318 746.207 28.1625 745.893 27.7725L748.019 27.8765L747.287 27.5645L753.003 27.5645C753.003 27.0792 750.529 26.9578 751.574 26.3338C755.548 26.9925 765.202 26.8365 771.545 27.1572C776.634 27.0098 777.575 26.2558 781.514 25.9265C784.929 26.2298 780.607 27.4605 788.659 27.5645C793.294 27.2092 784.964 27.0272 787.23 26.3338C790.367 26.7152 797.895 26.3338 798.627 26.5418C800.718 26.2905 800.788 25.7618 802.914 25.5192L805.04 25.4152L800.753 25.0078L801.45 25.3198C796.501 25.3285 787.09 24.0805 785.766 24.9125C777.54 24.4445 772.033 22.5465 780.085 21.4198C773.881 20.3971 766.317 19.5738 755.826 19.1665C758.475 17.6758 763.982 17.3378 774.369 17.3205C777.749 17.1211 776.739 16.2978 781.514 16.2978C781.618 18.5771 784.894 21.5151 804.343 20.8045C814.729 22.0005 824.07 23.6038 837.175 22.4511C840.138 22.7111 842.543 23.0491 844.32 23.4738L845.714 23.4738C848.433 23.4565 846.725 22.7978 850.001 22.8585C846.167 19.8251 868.683 19.4005 858.575 16.7138L861.189 16.8178L862.862 16.5145C866.557 16.7918 869.45 17.2078 872.831 17.5371C878.268 17.6325 877.292 16.8091 879.976 16.5145C886.807 16.9825 882.311 18.3085 884.263 19.1751C886.424 20.1458 891.93 20.9345 897.089 21.4285C896.148 22.3905 899.354 22.7458 899.947 23.4825C904.582 23.5345 906.813 23.2398 907.057 22.6591C901.829 22.6245 901.341 21.3071 905.628 21.0211L907.754 21.1251L909.88 21.0211C909.218 21.6625 911.902 21.8185 912.738 22.2431C922.323 22.3038 922.706 23.6818 932.709 23.6818L930.583 23.9245L931.315 24.3058C924.623 24.2365 919.604 24.3925 917.025 24.9212C922.253 25.6752 920.894 27.3738 931.315 27.3825C932.5 26.5332 927.447 26.5765 925.599 26.1605C924.449 25.5798 927.621 25.6318 927.028 25.1292C936.264 25.8398 940.203 24.2018 945.57 23.6905L945.57 23.8985C946.442 23.5865 948.568 23.4911 950.555 23.3785L948.429 23.2831C949.23 22.8585 950.659 22.8498 952.716 23.0751C958.954 22.7458 955.26 20.9865 962.684 20.8131C960.697 19.8078 956.759 19.0625 958.397 17.5371C960.035 17.5718 960.941 17.4938 961.255 17.3291C965.542 17.3465 969.236 18.4905 974.116 17.7365C978.926 18.5078 977.95 19.3918 981.261 19.9985C987.569 19.7818 992.728 19.5998 998.374 19.7905C997.015 20.6658 1002.38 20.5791 1002.66 21.2291L999.803 21.2291L999.803 21.6365C990.915 23.1791 1005.52 24.0025 1016.92 23.8985C1022.49 23.6298 1017.2 22.9798 1019.77 22.4598C1025.04 22.0351 1028.07 23.1358 1032.6 23.6905C1034.9 23.9765 1038.11 23.7858 1039.71 24.3058C1040.9 24.6698 1038.28 25.0685 1038.32 25.1292C1038.46 25.6405 1041.21 25.8225 1041.14 25.9438C1040.9 26.5332 1038.39 28.0758 1031.17 28.1972C1036.26 29.3932 1055.74 29.5665 1062.57 28.1972C1058.71 26.7758 1050.24 25.9958 1049.71 24.0978C1054.31 23.9245 1052.68 24.6265 1055.43 24.7132C1061.11 24.1672 1058.85 23.3785 1055.43 22.8671C1059.12 22.9885 1060.55 22.7892 1059.72 22.2518C1069.93 22.4338 1070.28 24.0198 1082.55 23.8985C1080.77 24.4618 1089.45 25.0165 1092.55 25.5365C1098.54 25.3025 1101.58 24.6525 1102.55 23.6905C1095.34 24.3752 1084.78 23.0491 1076.86 23.2831C1078.92 22.6851 1082.55 22.3125 1085.44 21.8445C1082.65 21.9138 1082.72 21.0471 1075.44 21.2378C1077.21 19.2618 1075.85 18.1265 1065.47 17.5371C1066.83 16.3845 1061.32 16.2198 1061.18 15.2838L1063.31 15.1798L1062.61 14.8765C1069.37 14.4518 1075.58 15.6911 1084.01 15.6998C1089.31 15.7778 1087.74 14.8678 1094.01 15.0845C1098.37 15.5091 1094.12 16.4105 1095.44 17.5458C1101.92 19.2185 1106.21 20.5531 1114.02 21.6451C1117.4 21.6451 1118.2 21.2898 1122.56 21.4371C1121.97 22.2258 1120.99 22.1651 1123.99 22.6678C1125.94 22.3385 1130.78 22.4165 1129.67 21.6451C1132.11 22.5465 1136.26 22.1478 1141.1 22.0525C1140.12 21.1598 1143.54 20.8998 1142.53 20.0071L1144.66 19.9031C1141.76 19.4525 1141 18.7938 1143.23 18.2565L1144.38 19.5825C1151.59 19.3918 1151.59 20.2238 1156.78 19.7991C1156.44 20.8478 1143.78 21.2031 1149.64 22.4598C1146.64 22.7111 1145.49 23.2311 1141.1 23.2831C1140.58 24.7998 1148.25 25.1292 1152.5 25.9438C1158.56 25.9265 1159.85 25.2245 1162.5 24.7132C1169.26 24.6265 1178.25 25.4758 1178.18 24.0978C1190.94 24.4878 1209.73 25.9438 1218.16 23.8898C1222.62 23.7858 1221.93 24.4358 1225.31 24.5052C1229.8 24.6005 1230.88 24.2105 1233.88 24.0978C1234.37 21.7058 1240.68 20.1545 1258.14 20.1978C1258 20.7265 1252.56 20.4925 1252.42 21.0211C1252.25 21.3851 1254.2 21.4545 1253.85 21.8358C1256.82 21.4718 1263.65 21.7925 1266.71 22.0438L1264.55 22.1478L1266.71 22.2431C1267.17 22.7285 1271.14 22.7025 1272.43 23.0665C1271.84 23.6472 1265.88 23.2311 1269.57 24.2972C1267.27 24.3492 1267.13 24.1065 1265.32 24.0892L1265.32 23.6818C1264.27 23.8292 1263.37 24.0025 1261.73 24.1932L1263.89 24.2972C1266.71 25.0945 1271.7 24.4878 1273.86 25.5278C1278.01 25.2332 1282.78 25.0338 1283.83 24.2972C1288.43 25.4845 1293.55 27.6772 1302.37 27.5732C1302.86 27.8852 1300.8 28.2838 1303.8 29.0118C1297.21 30.1558 1293.1 32.1492 1296.65 34.1425C1292.82 34.2812 1293.9 33.7179 1292.4 33.5272C1286.06 35.0785 1278.42 36.4392 1275.25 38.4499L1275.98 38.7532L1276.68 39.0652C1265.35 39.9665 1254.38 40.9199 1256.71 43.7799C1260.13 44.1352 1268.39 44.5686 1265.28 45.2099L1263.12 45.3139C1265.08 45.8512 1270.76 46.2412 1268.84 46.9519L1270.97 46.8479C1275.22 47.5759 1282.92 48.7632 1292.4 48.0786L1293.1 48.3819L1295.22 48.4859L1299.51 48.4859L1298.78 48.7892C1301.95 48.5639 1305.92 48.3126 1308.78 48.7892L1309.48 48.4859C1322.31 47.9226 1325.65 51.2072 1326.59 52.3859C1328.89 52.4379 1329.07 52.1866 1330.88 52.1779C1326.1 49.7772 1333.08 48.3646 1342.31 47.0472C1344.86 46.5012 1336 46.6486 1340.88 46.4319C1340.88 45.5219 1345.87 46.7612 1348.03 46.8392C1353.36 46.7872 1356.15 46.3626 1359.46 46.0159L1361.13 46.3279L1363.75 46.2239L1363.75 46.4319C1369.04 47.3766 1377.3 45.6259 1379.43 44.7852C1392.61 46.6052 1402.05 43.6846 1407.98 42.5319L1408.71 42.8352L1410.87 42.7312C1412.51 43.1819 1415.78 43.3899 1419.41 43.5546C1417.56 44.0832 1416.48 44.1959 1412.3 43.9619C1409.3 44.0139 1414.35 44.5079 1410.87 44.7766C1417.74 44.3952 1424.04 43.9446 1430.84 43.5546C1424.95 41.0845 1433.63 37.4445 1413.69 36.7859C1419.27 35.7025 1408.71 34.4979 1416.55 33.0939C1414.42 32.4439 1411.15 31.9585 1409.41 31.2478L1411.95 31.3258L1413.69 31.0398C1420.91 30.9012 1423.56 31.5338 1420.8 32.2705C1424.74 31.6725 1432.97 31.6898 1436.49 31.0398C1449.91 31.0312 1451.86 32.6605 1459.35 33.5012C1462.77 33.2585 1457.08 32.6172 1456.49 32.2705C1458.55 31.9499 1462.24 31.8632 1460.78 31.0398L1463.39 31.1438L1465.07 30.8318C1467.47 31.1698 1471.48 31.2825 1473.61 31.6552C1476.39 31.7505 1478.21 30.7192 1475.03 30.6325C1480.51 29.2718 1497.24 30.4072 1505.01 30.6325C1516.65 27.6252 1485.46 26.2732 1476.46 24.2798C1476.92 23.8032 1481.24 23.8898 1480.72 23.2832L1476.88 23.0752C1478.9 23.1185 1481.1 23.1012 1482.14 23.3438L1483.57 23.2485C1485.04 23.4478 1486.47 23.6558 1487.86 23.8638C1491.63 23.8638 1496.26 23.9765 1496.4 23.4478C1498.46 23.5692 1499.89 23.7685 1500.69 24.0632L1498.56 24.1585C1500.65 24.3058 1502.78 24.5312 1504.28 24.7738L1505.01 24.4705C1506.16 24.4358 1506.4 24.2625 1507.87 24.2625L1509.54 24.5658L1512.15 24.4618C1512.89 24.6265 1513.62 24.7912 1513.58 25.0772L1519.26 25.0772L1521.39 25.1812L1522.09 24.8778C1523.66 25.3372 1528.95 25.2592 1527.8 26.1085L1519.23 26.1085C1520.27 27.1225 1526.48 26.4552 1532.09 26.5158C1533.87 27.0792 1536.59 27.5038 1542.09 27.5385C1545.47 27.1138 1548.23 25.8052 1544.95 25.0772C1542.02 25.1378 1542.16 25.6318 1539.24 25.6925L1538.54 25.3892L1536.41 25.2852C1529.79 24.8778 1541.43 24.4618 1537.84 23.2312C1533.73 22.9625 1534.91 21.9312 1536.41 21.3852C1542.34 21.3592 1540.73 22.3992 1542.13 23.0232C1543.38 23.1098 1544.67 23.2052 1544.99 23.4305C1553.63 23.0405 1548.89 20.7178 1557.81 20.3538C1556.84 19.4611 1560.39 19.2185 1563.53 18.9238C1578.1 20.0851 1558.65 22.2865 1554.95 23.4305C1559.52 24.8605 1559.52 26.0218 1567.78 27.1225C1587.37 27.7465 1590.85 25.3458 1613.44 26.2992C1619.64 25.6232 1625.53 24.8952 1630.55 24.0458L1630.55 24.2538C1630.94 24.1065 1631.77 23.9332 1632.82 23.7945C1633.69 23.7945 1634.63 23.8638 1635.54 23.9418L1634.84 23.6385C1637.94 23.2658 1637.42 22.3732 1640.56 21.9918C1641.11 21.2291 1634.77 21.4631 1636.27 20.5531C1644.11 21.2985 1647.25 19.8425 1644.84 19.1231C1648.43 19.1578 1648.29 18.6638 1650.52 18.5078C1654.04 19.0538 1654.22 19.4785 1654.81 20.7611L1652.65 20.8651C1653.77 20.8738 1655.23 20.9518 1656.94 21.0732L1654.81 20.9691C1655.09 21.1425 1654.25 21.1598 1653.38 21.1771C1648.96 23.0058 1656.34 24.1412 1663.35 25.2765C1667.92 24.8605 1671.3 22.7025 1667.64 22.3992C1666.28 21.6538 1673.81 22.1912 1674.78 21.7838C1672.55 21.7405 1669.83 20.7611 1669.07 21.1771C1664.95 21.2811 1671.26 20.3711 1670.49 20.9691C1674.4 20.3191 1667.92 19.2705 1674.78 18.9151C1671.61 18.7505 1670.95 18.2305 1666.21 18.2998C1670.88 17.5025 1666.66 16.4191 1667.64 16.2458C1669.73 16.0811 1671.44 16.5058 1677.61 16.2458C1680.29 16.6098 1676.45 16.7658 1677.61 17.4765C1680.67 17.3031 1678.82 16.4191 1681.89 16.2458C1682.14 15.8038 1676.84 16.1591 1674.75 16.0465C1677.43 15.6565 1674.89 15.5351 1674.75 15.0238C1683.36 15.5698 1685.87 14.5818 1684.75 13.1778L1679.03 13.1778C1674.68 14.0531 1664.01 14.0271 1663.35 15.4398C1658.54 15.6478 1661.12 14.7985 1660.49 14.4171L1659.06 14.4171L1659.79 14.2091L1659.06 14.0011C1658.09 13.3511 1659.24 13.1605 1657.63 12.9785C1657.84 12.5278 1661.22 12.5365 1664.78 12.5711L1664.78 11.9558L1666.9 12.0598C1664.36 11.6698 1665.89 11.0978 1665.48 10.6211L1666.59 11.7391C1670.7 11.6178 1672.06 11.7565 1673.32 11.5398L1675.44 11.6438L1674.75 11.3318C1681.33 11.4098 1682.94 11.5831 1689.04 11.3318C1690.68 10.2051 1683.11 10.4131 1680.46 9.90178C1684.44 8.98311 1678.58 8.80977 1679.03 7.84777C1681.61 7.83044 1682.03 8.0991 1684.75 8.05577L1684.05 8.3591C1684.78 8.24644 1685.52 8.12511 1685.9 8.01244C1687.29 7.96044 1689.21 7.96044 1691.2 8.15977L1690.47 7.84777C1696.88 7.81311 1701.69 8.01244 1704.72 8.46311C1706.88 7.4751 1711.62 6.8511 1714.72 6.00177C1719.15 5.95843 1721.14 6.7211 1719.01 7.02444C1720.65 7.05911 1721.56 6.9811 1721.87 6.81643C1726.19 7.12843 1720.68 7.71777 1721.87 8.25511L1719.74 8.35044C1720.96 8.42844 1722.32 8.49778 1723.16 8.54111C1724.94 8.83578 1723.93 9.24311 1723.58 9.58111L1726.19 9.48578C1727.83 9.78911 1727.83 10.0058 1726.19 10.3091L1724.03 10.4131L1726.19 10.5171C1726.47 10.6905 1725.63 10.7078 1724.73 10.7251C1723.61 12.7705 1742.89 12.4671 1751.84 11.5398C1748.81 9.38178 1759.86 9.57245 1758.95 7.23244L1761.08 7.33643L1761.78 7.02444C1766.2 7.28444 1767.6 7.97777 1770.32 8.46311C1765.16 8.22044 1768.85 9.00044 1767.46 9.28644C1765.44 9.69378 1758.71 9.79778 1758.92 10.5171C1764.84 10.4131 1767.98 9.90178 1773.21 9.69378L1774.85 9.99711C1775.89 9.70244 1777.36 9.38178 1778.19 9.17378L1776.07 9.27778L1776.07 8.87044L1778.19 8.76644L1777.5 8.46311C1778.75 8.33311 1780.04 8.21177 1780.35 8.46311C1784.68 8.40244 1782.34 7.37977 1786.07 7.23244L1787.74 7.54444L1790.36 7.44044C1790.18 7.80444 1792.1 7.87377 1791.79 8.26377C1797.71 8.49777 1797.36 7.83044 1801.79 7.85644L1801.79 9.08711C1804.89 9.12178 1806.32 8.92244 1806.08 8.47178C1809.35 8.67978 1809.04 9.41645 1808.93 10.1098C1801.34 11.0371 1794.57 11.5744 1787.53 12.1638L1786.84 12.4758L1787.53 12.7791C1787.92 13.1951 1780.21 13.8278 1780.42 14.2178C1775.93 14.3131 1776.66 13.5071 1773.31 14.0098C1776.31 14.7898 1770.35 14.9458 1766.17 15.2405L1766.17 15.6478L1764.04 15.5438L1764.74 15.8471C1758.4 15.9858 1762.06 16.3758 1760.49 17.2858C1764.15 17.6411 1770.77 17.5805 1773.31 18.1091L1773.31 18.3171C1777.11 18.2738 1781.92 18.0571 1785.44 18.4125L1786.14 18.1091C1788.68 18.2911 1789.76 18.6811 1794.71 18.5251C1794.5 19.0365 1796.94 19.1578 1797.57 19.5478C1804.72 19.5045 1808.34 19.4265 1810.4 18.3171C1806.67 17.5545 1801.41 17.0171 1796.14 16.4711C1795.1 15.8385 1800.08 16.0725 1799 15.4485C1793.81 15.6825 1785.23 15.2665 1781.85 14.6251C1785.34 14.0965 1791.26 13.9231 1793.28 13.1865C1790.81 12.8051 1787.78 13.4638 1790.43 12.7791L1792.59 12.5451L1791.86 12.1725C1793.49 12.2071 1794.4 12.1291 1794.71 11.9645C1798.76 12.1378 1796.94 13.1431 1803.29 12.9871L1802.56 13.3685L1804.68 13.6111C1803.5 13.8451 1802.8 14.1658 1803.25 14.6338C1804.4 14.7378 1805.55 14.8505 1807.51 14.8418C1809.28 14.3391 1811.06 13.8451 1811.79 13.2038C1809.49 13.1431 1809.32 13.3945 1807.51 13.4118L1806.81 13.1085L1806.08 12.7965C1807.92 11.8345 1810.54 10.9765 1816.08 10.5431C1815.49 10.1531 1812 10.1704 1813.22 9.51178C1816.67 9.59844 1816.32 9.13044 1820.33 9.30378L1821.76 8.68844C1822 9.01778 1821.2 9.36444 1819.63 9.60711L1821.76 9.51178C1823.05 9.41644 1824.3 9.32978 1824.62 9.10444C1826.57 9.30378 1827.48 9.65045 1828.91 9.92778C1833.23 9.86711 1834.03 9.29511 1840.34 9.51178C1841.42 10.1444 1836.43 9.90178 1837.48 10.5431C1841.52 10.6298 1853.2 9.97978 1856.02 11.1585L1873.13 11.1585L1873.13 12.3805C1876.06 12.0251 1875.92 12.5365 1878.85 12.1811C1878.92 11.8345 1877.77 11.6438 1875.99 11.5658C1880.11 11.5745 1880.28 11.2278 1881.71 10.1358C1886.21 10.2398 1886.76 9.76311 1891.68 9.93644C1891.43 10.5171 1896.49 10.3351 1894.54 11.1671C1903.88 10.7771 1902.66 11.9125 1908.79 11.9818C1903.98 12.3718 1902.03 12.8571 1904.5 13.8278C1902.62 13.5765 1902.27 13.7411 1900.22 13.8278C1902.69 15.0585 1917.36 15.8558 1915.9 17.7191C1916.28 18.1438 1922.24 17.7711 1921.62 18.3345C1921.86 18.7851 1920.43 18.9845 1917.33 18.9498C1918.93 19.2618 1921.97 19.3745 1921.62 19.9725L1922 19.9725L1922 80.258L1343.6 80.258C1342.73 81.428 1336.67 81.8527 1327.95 81.896C1326.91 81.0727 1323.04 80.6567 1319.03 80.258L620.977 80.258C620.768 80.336 620.559 80.414 620.14 80.466L618.711 80.466L619.443 80.778L620.14 81.0813C621.569 81.6967 616.934 81.4453 614.424 81.4887C614.738 81.2633 616.028 81.168 617.282 81.0813L616.551 80.778L617.282 80.466C617.004 80.4053 616.76 80.336 616.585 80.258L539.628 80.258C537.711 80.57 536.178 80.934 533.076 81.0813C531.612 80.7867 530.078 80.5353 529.067 80.258L251.108 80.258C248.146 80.882 245.567 81.5667 237.724 81.4887L238.422 81.792L232.74 82L233.437 81.688C231.311 81.4453 231.207 80.9167 229.15 80.6653L227.024 80.7693L224.898 80.6653C218.59 80.44 217.788 81.0033 213.466 81.0727C212.246 80.908 212.037 80.596 212.002 80.2493L133.581 80.2493C133.721 80.8127 133.825 81.3847 129.259 81.272C127.83 80.8647 123.962 80.804 122.114 80.4487L121.417 80.2407L-2 80.2407L-2 38.6232C-2 38.6232 -1.86058 38.6232 -1.79088 38.6232C1.41567 38.5365 -1.75602 37.5399 1.06714 37.3925Z" fill="black"/>
<path d="M16.9925 26.3749C21.1395 26.2086 26.1577 26.1754 30.3395 26.3749L29.6426 26.0756C34.3471 25.427 33.0577 26.6077 38.2154 26.4664C36.4729 26.8156 37.1699 27.5057 33.929 27.6471L32.5002 27.5473L31.0714 27.4475C28.2835 27.2896 25.9834 26.774 28.1789 26.4747L16.4697 27.0567C16.7485 26.8821 16.7137 26.5911 17.0273 26.3666L16.9925 26.3749Z" fill="black"/>
<path d="M25.3214 20.571L23.1957 20.4713L21.035 20.571C20.129 20.3715 17.7592 20.3715 18.1774 19.9807L21.035 19.9807C21.035 19.7894 19.2926 19.8227 18.1774 19.7811C18.6653 19.3238 19.6411 18.933 22.4638 18.8L23.1608 19.091L23.8578 18.8C25.2517 18.8 24.9729 18.5588 25.2866 18.4092C28.179 18.5339 26.2275 19.3238 29.573 19.3903L28.8412 19.6897L29.573 19.989C30.2351 20.6043 27.7608 20.9369 25.2866 20.5793L25.3214 20.571Z" fill="black"/>
<path d="M25.3214 20.7623C26.0532 20.9203 26.8199 21.0866 26.7502 21.3527C22.0456 21.361 23.335 22.1925 18.1774 22.1426C15.9123 21.7768 19.5017 21.4774 15.3198 21.1531C16.5744 20.8704 17.4456 20.5295 21.035 20.5628L22.7078 20.8621L25.3214 20.7623Z" fill="black"/>
<path d="M22.4987 17.8188C25.7048 17.9353 20.7563 18.1265 23.8926 18.4092L22.4987 18.4092L22.4987 18.6088C18.9441 18.5755 22.0805 17.9353 22.4987 17.8188Z" fill="black"/>
<path d="M538.992 29.6177C540.491 29.9004 540.212 30.5656 538.992 30.998C537.319 30.9647 536.483 31.0395 536.135 31.1975C531.465 30.9148 532.545 30.7568 533.277 30.0168L535.438 29.9253L534.706 29.626C537.18 29.5844 538.435 29.9586 538.992 29.626L538.992 29.6177Z" fill="black"/>
<path d="M544.707 24.9032C536.971 24.9281 533.591 25.9841 521.881 25.8843C521.742 25.4021 513.03 24.3793 519.024 24.3128C509.893 24.1798 501.251 22.6665 493.34 21.7518C498.742 20.7873 495.71 20.0639 493.34 19.1908C495.362 19.2075 497.383 19.2241 497.592 18.9996C502.68 19.3488 501.634 20.5379 506.165 20.9619C510.66 21.0534 510.207 20.4713 511.88 20.1803C513.1 19.5484 509.615 19.565 509.022 19.1908C508.36 18.5755 512.856 18.6753 513.309 18.2097C524.704 20.5046 539.654 22.3172 551.851 24.5041L551.12 24.8034L551.851 25.0944C548.576 25.5019 546.903 24.8949 544.707 24.9032Z" fill="black"/>
<path d="M616.043 18.6088L616.74 18.3094L616.043 18.0184C616.043 17.5528 618.517 17.4363 617.471 16.8377C621.514 16.6714 621.165 17.1121 624.615 17.0372C625.8 17.5943 622.594 17.5444 623.187 18.0267L621.061 18.2512L621.758 18.6171L616.078 18.6171L616.043 18.6088Z" fill="black"/>
<path d="M685.949 32.769C688.075 33.0684 688.11 33.6504 693.093 33.5589C692.71 33.9664 689.295 33.9497 687.378 34.1493L685.705 33.85L683.092 33.9414C681.105 33.1515 686.193 33.3261 685.949 32.7607L685.949 32.769Z" fill="black"/>
<path d="M738.745 26.0839L744.461 26.0839L743.764 26.2834L744.461 26.483C741.951 26.4414 737.317 26.6826 738.745 26.0922L738.745 26.0839Z" fill="black"/>
<path d="M851.481 15.2578L849.355 15.0583L847.195 14.867C842.386 13.4618 861.796 11.6325 864.305 13.8859C860.402 13.4036 860.611 14.6841 860.054 15.2661L857.44 15.1664L855.802 15.4574C853.502 15.5156 853.328 15.2661 851.516 15.2661L851.481 15.2578Z" fill="black"/>
<path d="M1288.1 36.5108L1287.37 36.8018L1289.5 36.9016L1289.5 37.492C1285.73 37.492 1281.1 37.6 1280.92 37.1011L1283.08 36.8683L1282.39 36.5025L1288.1 36.5025L1288.1 36.5108Z" fill="black"/>
<path d="M1286.67 35.3218C1289.11 35.5796 1292.28 35.7292 1292.39 36.3113L1290.23 36.2115L1288.1 36.3113C1286.88 36.0785 1286.22 35.7874 1286.67 35.3218Z" fill="black"/>
<path d="M1312.36 43.3955L1314.48 43.4953L1316.61 43.3955C1319.67 43.5618 1316.08 44.651 1319.46 44.7758C1314.69 45.5075 1313.71 44.6677 1306.61 44.7758L1305.91 44.4764L1303.75 44.3767C1305.18 43.8528 1309.5 43.7281 1312.32 43.3872L1312.36 43.3955Z" fill="black"/>
<path d="M1365.12 42.2148L1370.83 42.2148L1370.1 42.5142L1372.23 42.4144L1372.23 43.5951C1368.32 43.6117 1369.37 43.2708 1366.55 43.5951L1364.87 43.3041L1362.26 43.3956C1360.76 42.6638 1365.81 42.8385 1365.12 42.2148Z" fill="black"/>
<path d="M1512.11 23.1321L1510.44 22.8327L1507.82 22.9325C1506.22 22.5001 1504.13 22.126 1504.97 21.3527L1507.09 21.4525L1507.79 21.1531C1512.98 21.4275 1517.58 21.7684 1517.79 22.733L1515.63 22.6332L1514.93 22.9325C1513.78 22.9658 1513.5 23.1321 1512.07 23.1321L1512.11 23.1321Z" fill="black"/>
<path d="M183.709 78.2184C183.814 78.4927 183.953 78.7755 182.28 78.8087L180.851 78.551L179.423 78.8087C177.959 78.6175 176.565 78.4179 175.136 78.2184C180.05 78.3763 181.165 77.8525 183.709 78.2184Z" fill="black"/>
<path d="M741.603 45.3662C741.812 45.1333 744.182 45.1999 745.889 45.1666C745.366 45.4244 743.38 45.4743 743.032 45.757C740.801 45.6821 744.286 45.4077 741.638 45.3662L741.603 45.3662Z" fill="black"/>
<path d="M703.095 43.5868C706.65 44.3185 696.962 44.6677 703.095 43.5868Z" fill="black"/>
<path d="M273.584 32.769C271.528 31.6798 263.652 31.3804 265.046 29.8172C266.754 29.5927 270.099 29.6011 273.584 29.6177C269.82 30.6487 278.358 31.1726 280.728 32.3782L277.627 32.3367L277.836 32.7607L273.549 32.7607L273.584 32.769Z" fill="black"/>
<path d="M102.407 23.7225C102.895 23.1986 109.656 23.5396 110.98 23.1321C114.256 23.2901 108.506 23.8139 108.122 24.1133C105.996 24.0052 104.533 23.8139 102.442 23.7225L102.407 23.7225Z" fill="black"/>
<path d="M1609.13 20.9619C1609.09 20.7707 1607.39 20.8122 1606.27 20.7624C1606.51 19.881 1608.95 19.2989 1613.38 18.9913L1614.08 19.2823L1616.2 19.3821C1614.53 20.014 1615.47 20.9869 1609.06 20.9536L1609.13 20.9619Z" fill="black"/>
<path d="M1584.87 17.8189C1586.13 17.4364 1585.71 18.0268 1587.73 18.0185C1592.16 18.2762 1583.62 18.2762 1584.87 17.8189Z" fill="black"/>
<path d="M1212.44 17.6193C1214.67 17.6526 1214.15 17.7607 1215.3 17.8189C1223.77 18.2596 1200.14 17.4115 1212.44 17.6193Z" fill="black"/>
<path d="M1661.92 6.2112C1661.3 6.50222 1660.11 6.13637 1657.67 6.2112L1657.67 5.81209C1660.84 5.70399 1659.69 6.19457 1661.92 6.2112Z" fill="black"/>
<path d="M1664.78 8.3731C1662.55 8.60591 1659.21 8.99672 1656.21 8.57266C1654.54 9.02167 1656.98 9.1547 1651.96 9.36257C1652.45 10.7429 1650.95 11.7656 1649.1 13.2955C1646.97 13.0045 1646.94 12.4141 1641.96 12.5056C1640.42 12.5555 1641.01 12.8964 1639.1 12.8964L1638.4 12.6054L1637.67 12.8964C1636.41 12.7384 1634.43 12.6802 1631.95 12.6969L1632.65 12.4058L1630.49 12.3061C1633.77 11.7822 1638.64 11.5993 1631.92 11.1253L1631.92 10.3437C1636.28 10.2024 1636.1 10.6763 1640.49 10.5433C1644.74 10.1442 1644.95 8.81379 1643.35 8.18186C1645.68 7.32542 1649.27 6.63528 1653.35 6.01166L1653.35 6.21122C1654.01 6.00335 1653.73 5.57929 1655.65 5.44625C1656.66 5.62086 1656.87 5.84537 1657.64 6.01166C1657.22 6.13639 1656.42 6.33594 1655.51 6.51056L1657.64 6.41078C1659.52 6.61033 1662.9 6.61034 1664.78 6.80158C1661.96 7.19238 1663.88 7.93241 1664.78 8.38141L1664.78 8.3731Z" fill="black"/>
<path d="M1637.67 13.2956L1638.4 13.5866L1639.1 13.2956C1643.42 13.5367 1638.09 14.0439 1637.67 14.2767C1633.38 14.2185 1635.02 13.4452 1637.67 13.2956Z" fill="black"/>
<path d="M939.927 13.8859C939.579 14.1021 937.104 14.019 937.07 14.285C935.362 14.1936 937.453 13.4369 932.783 13.3039C932.923 12.805 938.08 12.8382 939.927 13.1043C941.286 13.4702 935.641 13.7612 939.927 13.8942L939.927 13.8859Z" fill="black"/>
<path d="M624.615 12.306C625.173 11.5494 625.417 11.5327 628.902 10.9258C630.226 11.0671 627.961 11.8487 631.759 12.1065C632.073 12.1647 628.797 11.8903 624.615 12.306Z" fill="black"/>
<path d="M830.084 11.3249C828.411 11.8904 828.411 11.009 830.084 10.9341C831.304 10.9009 831.443 11.009 831.513 11.1337C835.66 11.5661 829.352 10.8926 830.084 11.3249Z" fill="black"/>
<path d="M1860.25 1.68793C1853.98 2.6192 1853.21 5.06379 1841.71 5.81213C1838.92 4.82266 1832.58 4.31544 1827.46 3.65025C1833.28 2.22008 1841.15 1.08094 1853.14 0.498896L1853.87 0.789923L1856 0.690142C1859.9 0.789921 1851.61 1.94569 1860.28 1.6713L1860.25 1.68793Z" fill="black"/>
<path d="M1777.52 4.04106C1775.67 4.29882 1775.67 4.76446 1777.52 5.02222L1775.36 5.11368L1777.52 5.21346C1775.67 6.00338 1774.55 5.16357 1770.37 5.21346L1771.1 4.92244L1768.98 4.83098C1771.17 4.48175 1771.31 3.84981 1777.55 4.04106L1777.52 4.04106Z" fill="black"/>
<path d="M1806.02 3.84979L1803.9 3.75001L1803.2 4.04935C1803.44 4.22396 1802.64 4.23227 1801.77 4.2489L1801.77 4.04935L1800.34 4.04935C1799.47 3.99114 1794.84 3.55877 1794.63 4.04935C1791.53 4.0826 1793.97 3.35089 1793.2 3.06818C1798.39 3.12639 1802.47 3.03493 1806.06 2.86863L1805.33 3.15965L1807.45 3.25943C1807.87 3.5754 1806.13 3.60034 1806.02 3.84979Z" fill="black"/>
<path d="M1801.77 4.83099L1802.47 5.03054L1803.2 5.22178C1801.35 5.49617 1797 5.42134 1793.2 5.42134C1793.72 5.08875 1792.08 5.04717 1790.34 5.02222C1791.67 4.3404 1796.44 4.02444 1800.34 4.23231L1799.61 4.52333L1801.77 4.43187L1801.77 4.82267L1801.77 4.83099Z" fill="black"/>
<path d="M1814.6 3.25945C1811.63 3.3426 1810.83 3.11809 1808.88 3.05989L1809.61 2.86033L1808.88 2.66078L1808.88 2.46122L1811.98 2.49448L1811.74 2.07042C1814.04 2.02053 1814.18 2.25335 1816.02 2.26998L1815.33 2.46953L1816.02 2.66909C1816.44 2.98505 1814.7 3.01001 1814.6 3.25945Z" fill="black"/>
<path d="M1724.69 4.04108C1728.45 3.55882 1732.95 4.61481 1724.69 4.04108Z" fill="black"/>
<path d="M1773.23 3.65023L1773.23 3.25944C1775.25 3.27607 1777.27 3.29269 1777.52 3.05987C1780.83 3.03493 1774.73 4.34037 1773.23 3.65023Z" fill="black"/>
<path d="M1781.77 1.29712L1780.76 0.956205L1778.91 0.698444C1778.28 0.523831 1777.66 0.3409 1776.05 0.299325C1776.33 0.0831375 1777.48 0.191231 1777.48 0.299325C1781.84 0.440679 1781.66 -0.0332677 1786.02 0.108086L1786.02 1.09756C1783.72 1.03935 1783.58 1.28049 1781.73 1.29712L1781.77 1.29712Z" fill="black"/>
<path d="M1629.1 1.87915C1627.28 1.83758 1627.25 1.29711 1629.1 1.29711L1630.52 1.29711L1630.52 1.09755C1632.48 1.15575 1631.71 1.58813 1631.95 1.87915C1630.66 1.76274 1629.41 1.64633 1629.1 1.87915Z" fill="black"/>
<path d="M718.777 30.4076C717.035 29.1438 707.8 28.9026 704.524 27.855C710.832 26.9819 722.088 27.988 720.206 26.2751C724.423 26.2419 729.057 25.7513 731.601 26.0756C733.588 26.4082 730.068 27.1648 727.35 27.4558C729.476 27.8799 730.835 27.3145 734.494 27.6554C740.767 29.2602 724.98 29.1271 727.35 30.7984C721.948 31.131 720.868 29.8838 718.812 30.4076L718.777 30.4076Z" fill="black"/>
<path d="M1218.19 15.2579C1218.61 14.2601 1215.96 12.8549 1223.88 12.8964C1229.1 13.4535 1222.41 13.7362 1225.3 14.4679L1223.14 14.5677L1223.84 14.8671C1219.24 14.6259 1222.76 15.499 1218.16 15.2579L1218.19 15.2579Z" fill="black"/>
<path d="M1332.08 34.4404L1329.47 35.3218C1330.02 35.0474 1330.93 34.8146 1332.08 34.4404Z" fill="black"/>
<path d="M1345.15 31.9874L1345.88 32.478C1345.29 32.3367 1345.04 32.1704 1345.15 31.9874Z" fill="black"/>
<path d="M1368.01 31.3971L1365.88 30.1166C1366.75 30.5323 1368.36 30.9398 1368.01 31.3971Z" fill="black"/>
<path d="M1394.39 30.6986L1397.25 30.8982C1396.03 30.8649 1395.26 30.7735 1394.39 30.6986Z" fill="black"/>
<path d="M395.589 29.7175C394.126 29.7175 393.045 29.6676 392 29.6178L395.589 29.7175Z" fill="black"/>
<path d="M1.79852 28.146C0.892448 28.3372 -0.466654 28.437 -2 28.5118L-2 28.3954L1.79852 28.146Z" fill="black"/>
<path d="M493.653 27.7219L493.375 26.9653C493.862 27.2313 493.932 27.4891 493.653 27.7219Z" fill="black"/>
<path d="M1395.82 26.7657L1390.1 26.1837C1391.46 26.2502 1393.48 26.4664 1395.82 26.7657Z" fill="black"/>
<path d="M1332.32 24.504L1325.91 23.2235C1328.63 23.4647 1331.91 23.5894 1333.44 24.0218C1333.3 24.1465 1332.53 24.3544 1332.29 24.504L1332.32 24.504Z" fill="black"/>
<path d="M1425.06 22.2424L1425.75 21.6521C1425.75 21.9265 1425.23 22.0928 1425.06 22.2424Z" fill="black"/>
<path d="M1495 21.1615L1492.87 20.8705C1493.81 20.937 1494.58 21.0285 1495 21.1615Z" fill="black"/>
<path d="M700.934 21.0617L730.904 21.1532C720.903 21.3112 710.831 21.2696 700.934 21.0617Z" fill="black"/>
<path d="M1023.39 19.6814L1029.11 19.8809C1026.91 19.9807 1025.03 19.8144 1023.39 19.6814Z" fill="black"/>
<path d="M1532.81 17.7191L1532.08 16.738C1532.63 17.0622 1532.77 17.3948 1532.81 17.7191Z" fill="black"/>
<path d="M1514.23 19.2906C1516.22 19.3155 1518 19.4569 1519.95 19.4901L1514.23 19.2906Z" fill="black"/>
<path d="M1208.89 19.2906L1206.07 19.4901C1206.94 19.4153 1207.71 19.3571 1208.89 19.2906Z" fill="black"/>
<path d="M1371.56 18.5007L1364.42 18.401C1366.82 18.4093 1369.16 18.3926 1371.56 18.5007Z" fill="black"/>
<path d="M1354.45 18.3094L1346.86 17.9852C1349.75 17.9852 1351.87 18.193 1354.45 18.3094Z" fill="black"/>
<path d="M1478.79 17.8604L1487.12 18.1099C1484.33 18.0267 1481.44 18.0267 1478.79 17.8604Z" fill="black"/>
<path d="M1639.79 16.7379L1641.22 17.1287C1640.46 17.0372 1639.72 16.9457 1639.79 16.7379Z" fill="black"/>
<path d="M1629.83 16.5383L1629.83 15.948C1630.35 16.1475 1630.35 16.3055 1629.83 16.5383Z" fill="black"/>
<path d="M1597 15.3576C1596.34 15.4824 1595.4 15.5323 1594.42 15.5822L1597 15.3576Z" fill="black"/>
<path d="M1594.42 15.5821L1591.74 15.8149C1592.4 15.6819 1593.41 15.632 1594.42 15.5821Z" fill="black"/>
<path d="M99.5144 15.8232C99.0265 15.7151 98.9916 15.5239 98.8174 15.3493L101.675 16.0394C101.083 15.9396 100.351 15.8814 99.5144 15.8232Z" fill="black"/>
<path d="M966.586 14.0854L961.464 13.4701C963.729 13.5866 965.123 13.8443 966.586 14.0854Z" fill="black"/>
<path d="M970.594 14.5677C968.921 14.468 967.736 14.2767 966.586 14.0855L970.594 14.5677Z" fill="black"/>
<path d="M953.344 13.8859C953.17 13.5034 954.146 13.1209 955.156 13.0294C957.735 12.9213 960.837 13.0793 961.499 13.4701C960 13.6614 958.014 13.6863 956.097 13.7445L953.344 13.8859Z" fill="black"/>
<path d="M942.053 15.0417C945.747 14.7008 949.964 14.3349 953.344 13.8776L942.82 15.4491C942.645 15.3244 942.332 15.183 942.053 15.0334L942.053 15.0417Z" fill="black"/>
<path d="M1516.64 11.8903C1515.63 11.5827 1513.05 11.3914 1512.84 11.0339L1522.25 11.9153C1520.44 11.9153 1518.52 11.9402 1516.64 11.8903Z" fill="black"/>
<path d="M1522.25 11.9153L1523.54 11.1254C1523.82 11.4081 1522.95 11.6658 1522.25 11.9153Z" fill="black"/>
<path d="M1522.25 11.9153L1527.09 13.9774C1525.21 13.2956 1522.49 12.6553 1522.25 11.9153Z" fill="black"/>
<path d="M1163.94 11.8155L1161.08 12.4973C1161.95 12.2978 1162.82 12.0234 1163.94 11.8155Z" fill="black"/>
<path d="M1588.46 9.84492C1587.91 9.97795 1587.7 10.1027 1587.03 10.2357L1588.46 9.84492Z" fill="black"/>
<path d="M1572.75 4.73124L1577.03 4.73124C1575.57 4.82271 1574.38 4.73956 1572.75 4.73124Z" fill="black"/>
<path d="M1579.16 5.12202L1581.14 5.94519C1580.13 5.68743 1578.64 5.47124 1579.16 5.12202Z" fill="black"/>
<path d="M1581.14 5.94519C1581.56 6.05329 1581.91 6.1697 1582.02 6.30273L1581.14 5.94519Z" fill="black"/>
<path d="M1239.59 5.12195L1234.61 3.35087C1238.27 3.80819 1238.72 4.49833 1239.59 5.12195Z" fill="black"/>
<path d="M1749.22 4.2489C1750.02 4.13249 1751.76 4.10755 1752.53 3.94957L1749.22 4.60645C1749.12 4.50667 1749.05 4.38194 1749.22 4.2489Z" fill="black"/>
<path d="M1614.84 1.979L1612.68 1.5882C1613.38 1.71293 1614.36 1.84597 1614.84 1.979Z" fill="black"/>
<path d="M23.1958 19.0911L22.4988 18.4009C23.1261 18.6171 23.0912 18.8832 23.1958 19.0911Z" fill="black"/>
<path d="M104.533 27.1565L110.039 27.2147C107.634 27.1732 105.822 27.2729 104.533 27.1565Z" fill="black"/>
<path d="M173.045 17.5195L173.742 18.4092C172.941 18.193 172.976 17.8604 173.045 17.5195Z" fill="black"/>
<path d="M182.977 17.9103L177.262 18.7002C179.492 18.3925 180.538 18.0017 180.921 17.8354C181.479 17.8687 182.106 17.902 182.977 17.9103Z" fill="black"/>
<path d="M301.463 36.4775C297.56 36.4941 294.842 36.1948 291.461 36.0202L301.463 36.4775Z" fill="black"/>
<path d="M425.56 31.6881L431.24 32.4697C428.208 32.4365 425.176 32.1621 425.56 31.6881Z" fill="black"/>
<path d="M474.801 33.3594C475.533 33.085 476.195 32.8605 477.658 32.6692L474.801 33.3594Z" fill="black"/>
<path d="M472.639 30.9065L472.639 31.6964C471.874 31.5135 471.735 31.1892 472.639 30.9065Z" fill="black"/>
<path d="M535.438 29.9171L525.436 29.9171C528.572 29.7591 532.301 29.7758 535.438 29.9171Z" fill="black"/>
<path d="M584.679 24.9031L585.376 25.585C584.783 25.3355 584.539 25.0694 584.679 24.9031Z" fill="black"/>
<path d="M627.438 23.7224L623.884 23.6226C625.138 23.6476 626.532 23.6559 627.438 23.7224Z" fill="black"/>
<path d="M616.775 18.3094L614.614 18.6088C615.137 18.509 615.346 18.4175 616.775 18.3094Z" fill="black"/>
<path d="M627.891 19.1326L621.061 18.2429C624.232 18.4009 625.87 18.8 627.891 19.1326Z" fill="black"/>
<path d="M685.252 34.4404C685.357 34.2409 685.391 34.0496 685.704 33.8501L685.252 34.4404Z" fill="black"/>
<path d="M716.163 40.6765L717.383 40.3439C717.348 40.5019 716.756 40.5767 716.163 40.6765Z" fill="black"/>
<path d="M683.092 45.1666L685.252 44.676C684.765 44.8756 683.789 45.0253 683.092 45.1666Z" fill="black"/>
<path d="M710.936 47.4282L719.509 46.7381C717.209 47.079 714.038 47.2702 710.936 47.4282Z" fill="black"/>
<path d="M767.809 45.7155C766.136 45.599 765.474 45.4244 764.464 45.2581L767.809 45.7155Z" fill="black"/>
<path d="M748.015 26.5745L743.729 26.2751C744.565 26.3001 746.308 26.3998 748.015 26.5745Z" fill="black"/>
<path d="M847.264 15.7983C845.522 15.9396 842.804 15.9729 841.758 15.8066C842.037 15.341 846.219 15.0749 849.32 15.0666C849.111 15.4324 848.414 15.6154 847.264 15.7983Z" fill="black"/>
<path d="M861.239 15.948L857.405 15.1581C858.59 15.4158 860.228 15.6819 861.239 15.948Z" fill="black"/>
<path d="M907.831 20.0806C908.354 19.6898 910.48 19.3904 912.815 19.1909L907.831 20.0806Z" fill="black"/>
<path d="M1063.36 14.3765C1060.85 13.994 1059.08 13.4951 1057.65 13.0045L1063.36 14.3765Z" fill="black"/>
<path d="M1275.97 37.0013C1278.34 36.9515 1280.71 36.835 1283.12 36.8766L1275.97 37.0013Z" fill="black"/>
<path d="M1287.37 36.8018L1290.23 36.2114C1289.39 36.4692 1288.35 36.6105 1287.37 36.8018Z" fill="black"/>
<path d="M1301.87 45.0336L1305.94 44.4682C1304.83 44.6927 1303.36 44.8673 1301.87 45.0336Z" fill="black"/>
<path d="M1293.08 46.2476C1294.83 45.7071 1298.52 45.3994 1301.87 45.0336L1293.08 46.2476Z" fill="black"/>
<path d="M1369.4 38.8722L1371.53 38.972L1372.23 38.6727C1374.77 38.7226 1379.37 38.4731 1377.94 39.0635L1375.82 39.2963L1376.51 39.6538C1371.84 40.4438 1379.82 41.1505 1377.94 42.2065C1376.79 42.1067 1375.64 42.007 1373.65 42.0153L1372.96 41.7159C1372.85 41.8906 1372.82 42.0402 1372.5 42.273C1371.81 42.3396 1371.15 42.4144 1370.07 42.5059L1372.02 41.9737C1367.77 41.2919 1366.79 39.9365 1369.37 38.8639L1369.4 38.8722Z" fill="black"/>
<path d="M1371.56 38.972L1369.44 38.4731C1370.38 38.6394 1370.83 38.7891 1371.56 38.972Z" fill="black"/>
<path d="M1375.85 39.2963C1377.59 39.4958 1378.12 39.6621 1379.41 39.9448L1375.85 39.2963Z" fill="black"/>
<path d="M1361.11 44.2853L1364.91 43.2958C1363.79 43.6949 1362.29 43.9444 1361.11 44.2853Z" fill="black"/>
<path d="M1408.64 40.9343L1410.49 38.9221C1410.11 39.5873 1410 40.2359 1408.64 40.9343Z" fill="black"/>
<path d="M1410.49 38.9221C1410.66 38.5563 1410.94 38.1904 1411.5 37.7913L1410.49 38.9221Z" fill="black"/>
<path d="M1408.43 29.2186C1406.48 28.9692 1404.46 28.7364 1403.97 28.3705L1408.43 29.2186Z" fill="black"/>
<path d="M1411.92 29.8921L1408.43 29.2186C1409.9 29.4098 1411.29 29.6094 1411.92 29.8921Z" fill="black"/>
<path d="M1463.36 29.7175C1460.46 29.3683 1458.06 28.9609 1455.76 28.5368L1463.36 29.7175Z" fill="black"/>
<path d="M1507.13 21.4608C1505.03 21.1033 1503.57 20.7042 1502.84 20.2801L1507.13 21.4608Z" fill="black"/>
<path d="M1521.38 24.0134L1515.66 22.6331C1518 23.0905 1521.38 23.3981 1521.38 24.0134Z" fill="black"/>
<path d="M1538.49 24.2131L1537.79 24.6039C1537.93 24.4708 1538.11 24.3461 1538.49 24.2131Z" fill="black"/>
<path d="M1659.8 13.4868L1656.94 13.5782C1657.81 13.5284 1658.58 13.4785 1659.8 13.4868Z" fill="black"/>
<path d="M1675.48 11.0256L1669.07 10.5351C1671.3 10.6847 1674.05 10.693 1675.48 11.0256Z" fill="black"/>
<path d="M1760.23 6.30269L1761.1 6.90137C1760.44 6.71012 1760.37 6.51057 1760.23 6.30269Z" fill="black"/>
<path d="M1760.23 6.30273L1759.67 5.91193C1760.02 6.03666 1760.16 6.17801 1760.23 6.30273Z" fill="black"/>
<path d="M1763.96 14.7673C1764.59 14.9003 1765.22 15.025 1765.39 15.1581L1763.96 14.7673Z" fill="black"/>
<path d="M1400.1 36.0203C1403.49 36.4527 1400.91 37.0513 1401.53 37.5918L1400.1 36.0203Z" fill="black"/>
<path d="M277.661 32.345C279.822 32.6194 281.843 32.8938 282.889 33.2679L277.661 32.345Z" fill="black"/>
<path d="M21.3487 24.1881C19.6411 24.4209 17.3411 24.5456 15.3198 24.7036L21.3487 24.1881Z" fill="black"/>
<path d="M1614.11 19.2906L1616.45 18.5423C1615.89 18.8084 1615.4 19.0745 1614.11 19.2906Z" fill="black"/>
<path d="M1616.45 18.5422C1616.9 18.326 1617.35 18.1015 1618.4 17.9103L1616.45 18.5422Z" fill="black"/>
<path d="M556.382 17.7856L552.548 17.7191C553.873 17.7441 555.51 17.7441 556.382 17.7856Z" fill="black"/>
<path d="M173.045 12.4058L170.188 14.1769C168.689 13.653 167.714 13.1209 167.017 12.5804C168.236 12.4058 169.212 12.306 171.582 12.2644C172.07 12.3143 172.558 12.3559 173.045 12.4058Z" fill="black"/>
<path d="M1632.69 12.4058C1631.22 12.4724 1630.18 12.4807 1629.1 12.5056L1632.69 12.4058Z" fill="black"/>
<path d="M1625.54 11.1254L1631.95 10.7263C1630 10.9341 1628.26 11.2085 1625.54 11.1254Z" fill="black"/>
<path d="M1630.53 9.84482L1631.95 10.7262C1630.63 10.51 1630.63 10.1608 1630.53 9.84482Z" fill="black"/>
<path d="M1111.14 10.8343L1108.77 11.4912C1109.33 11.2584 1109.64 11.0173 1111.14 10.8343Z" fill="black"/>
<path d="M1108.77 11.4911C1108.53 11.5992 1108.18 11.7157 1107.58 11.8154L1108.77 11.4911Z" fill="black"/>
<path d="M1857.63 -1.34032e-05C1859.55 0.0498761 1860.63 0.315958 1862.37 0.407422L1853.84 0.798218C1854.53 0.482251 1855.33 0.15797 1857.63 -1.34032e-05Z" fill="black"/>
<path d="M1775.36 5.12203C1777.2 5.13034 1780.2 5.11371 1781.77 5.2218L1775.36 5.12203Z" fill="black"/>
<path d="M1767.79 5.1386C1768.6 5.04714 1769.54 4.98062 1771.07 4.93073L1767.52 5.32153C1767.62 5.26333 1767.72 5.19681 1767.83 5.1386L1767.79 5.1386Z" fill="black"/>
<path d="M1801.77 4.04103C1801.35 4.16576 1800.55 4.357 1799.61 4.53162L1801.77 4.04103Z" fill="black"/>
<path d="M1807.98 4.90579C1807.14 5.03883 1804.73 5.0222 1802.47 5.03052L1808.15 4.73118C1808.08 4.78938 1808.01 4.83927 1807.98 4.90579Z" fill="black"/>
<path d="M1811.98 2.50281L1808.15 2.17853C1809.61 2.23673 1810.8 2.39471 1811.98 2.50281Z" fill="black"/>
<path d="M1809.61 2.86035C1808.36 2.96013 1806.96 3.05159 1805.33 3.15137L1809.61 2.86035Z" fill="black"/>
<path d="M1725.84 2.82706C1726.53 2.78549 1727.2 2.75223 1728.28 2.76054L1726.15 3.45068C1726.08 3.2927 1725.42 3.17629 1725.87 2.81875L1725.84 2.82706Z" fill="black"/>
<path d="M1755.39 2.17853C1755.63 2.29494 1755.67 2.40304 1755.39 2.56934L1755.39 2.17853Z" fill="black"/>
<path d="M1776.51 1.31381C1777.48 1.21403 1779.75 1.08099 1780.79 0.956266L1775.36 1.979C1775.6 1.66304 1776.12 1.45516 1776.51 1.31381Z" fill="black"/>
<path d="M1629.79 1.04773L1628.4 0.598723C1629.1 0.765022 1629.44 0.914691 1629.79 1.04773Z" fill="black"/>
<path d="M1223.18 14.5677L1226.73 14.6675C1225.79 14.6675 1224.43 14.6176 1223.18 14.5677Z" fill="black"/>
</g>
<defs>
<clipPath id="clip0_177_2">
<rect width="79" height="1924" fill="white" transform="translate(-2 79) rotate(-90)"/>
</clipPath>
</defs>
</svg>
