<svg width="1920" height="128" viewBox="0 0 1920 128" fill="none" xmlns="http://www.w3.org/2000/svg">
<g clip-path="url(#clip0_174_980)">
<path d="M1200.72 38.2236C1202.84 38.4194 1204.3 38.7946 1206.42 38.9904C1206.08 39.6756 1203.96 39.8714 1200.72 39.7572L1200.72 38.2073L1200.72 38.2236Z" fill="black"/>
<path d="M602.673 50.9649C593.284 48.7299 583.372 46.6743 581.321 42.4653C590.189 40.3445 599.022 43.9336 598.431 45.5487C600.448 45.5976 602.465 45.6139 602.708 45.1734C607.82 47.9631 613.037 50.2797 621.209 51.3402C623.296 53.0531 620.201 53.3468 619.783 55.1903C616.167 54.7335 613.315 54.9293 606.951 55.1903C602.847 53.6568 603.299 53.0694 602.673 50.9486L602.673 50.9649Z" fill="black"/>
<path d="M1195.02 45.5487C1194.01 44.3741 1194.01 44.8146 1195.02 43.6237C1198.39 43.8684 1201.66 44.1294 1202.11 45.1735C1198.7 45.0104 1199.05 45.875 1195.02 45.5487Z" fill="black"/>
<path d="M651.117 46.3317C656.959 47.0332 662.037 50.0676 649.691 49.7903C647.605 49.1214 650.561 47.4737 651.117 46.3317Z" fill="black"/>
<path d="M1177.94 49.4151C1177.77 50.394 1175.89 50.916 1172.27 50.965C1171.06 50.655 1171.44 49.9045 1169.42 49.7903C1169.6 48.942 1175.47 49.6272 1177.94 49.4151Z" fill="black"/>
<path d="M575.652 53.6567C580.382 53.6567 579.06 56.4954 578.504 56.7564C574.192 56.6259 572.731 54.5866 575.652 53.6567Z" fill="black"/>
<path d="M547.17 62.9231C534.303 64.8156 533.816 58.4694 541.467 56.3649L543.102 56.9522L545.71 56.7564C544.145 59.5461 545.571 60.4108 547.136 62.9231L547.17 62.9231Z" fill="black"/>
<path d="M1183.65 54.4399C1188.58 54.1625 1188.76 55.7939 1186.5 56.3649C1183.4 56.316 1183.44 55.4024 1183.65 54.4399Z" fill="black"/>
<path d="M587.024 59.8398L588.693 60.4108L591.302 60.215C591.754 61.618 591.093 62.7274 589.876 63.6899C583.686 63.9509 581.981 62.9884 579.895 62.1401L580.59 61.5691C579.13 61.5364 577.182 61.5527 575.791 61.357C575.061 60.8023 576.313 60.1171 574.887 59.6277L579.234 61.096C581.39 60.5576 585.911 60.6392 586.989 59.8235L587.024 59.8398Z" fill="black"/>
<path d="M1173.67 60.9981C1169.21 61.1776 1169.11 60.1824 1169.39 59.0731L1173.67 59.0731C1172.83 60.2966 1176.34 60.264 1173.67 60.9981Z" fill="black"/>
<path d="M1639.29 59.0731C1638.52 59.383 1637.82 59.693 1637.86 60.2314C1636.02 60.1009 1635.63 59.5462 1633.62 59.4646C1634.03 58.9425 1637.16 59.1383 1639.32 59.0731L1639.29 59.0731Z" fill="black"/>
<path d="M521.54 61.3896C519.662 61.2591 519.315 60.7044 517.263 60.6228C517.784 60.1171 519.767 60.0192 520.114 59.4645C523.731 59.4972 523.488 60.9002 521.54 61.3896Z" fill="black"/>
<path d="M1508.28 64.0815L1501.19 64.0815C1499.21 63.8531 1500.98 62.5969 1498.34 62.548C1499.35 61.2918 1506.47 62.3033 1506.89 61.7649C1509.78 62.3033 1505.47 63.1027 1508.32 64.0815L1508.28 64.0815Z" fill="black"/>
<path d="M1177.94 65.6313C1179.65 64.6688 1180.03 63.3474 1180.79 62.1564C1185.07 61.7649 1183.3 63.0211 1183.65 63.7063L1187.92 63.7063C1184.79 64.3915 1182.95 65.4519 1177.94 65.6313Z" fill="black"/>
<path d="M1239.15 64.8646C1238.56 65.5987 1238.63 66.5286 1234.87 66.4144C1235.46 65.664 1235.39 64.7504 1239.15 64.8646Z" fill="black"/>
<path d="M552.839 68.731L554.96 68.9104L555.691 68.3394C564.037 70.2808 561.185 72.891 565.671 75.6644C566.819 75.4524 567.967 75.2566 569.949 75.2729C571.757 76.7901 565.81 76.2028 565.671 77.198C571.027 79.2209 575.93 81.3581 578.469 84.1478C576.626 83.691 576.243 84.0009 574.192 84.1478L573.496 83.5768L571.375 83.7562C564.385 84.1478 564.211 79.5961 561.429 77.5895C553.847 75.5176 549.987 72.4506 545.744 69.4814C546.127 68.682 552.004 69.3835 552.874 68.7146L552.839 68.731Z" fill="black"/>
<path d="M1504.01 66.0229L1504.01 67.1812L1495.45 67.1812C1497.82 65.7945 1499.28 66.4144 1504.01 66.0229Z" fill="black"/>
<path d="M1229.2 67.1812C1229.2 68.2089 1233.69 68.0132 1233.48 69.1062C1226.8 69.4978 1225.38 68.47 1222.07 67.9479C1223.29 67.3769 1226.66 67.3932 1229.2 67.1812Z" fill="black"/>
<path d="M1244.85 67.5727C1246.28 66.4796 1250.9 67.6706 1253.37 67.5727C1252.26 68.992 1247.53 67.8826 1244.85 67.5727Z" fill="black"/>
<path d="M1516.8 67.1812C1518.89 67.5074 1521.29 67.7685 1521.08 68.731L1515.41 68.731C1517.88 67.9316 1514.33 67.9805 1516.84 67.1812L1516.8 67.1812Z" fill="black"/>
<path d="M618.357 67.5727L618.357 68.731C615.262 68.7962 613.836 68.4047 614.115 67.5727L618.357 67.5727Z" fill="black"/>
<path d="M1612.23 68.3395C1612.79 68.1926 1607.95 67.9153 1607.95 67.9479C1607.53 67.3443 1615.64 67.4096 1612.23 68.3395Z" fill="black"/>
<path d="M1165.11 67.9479C1167.65 68.0295 1168.34 68.6168 1167.96 69.4978C1165.49 69.3999 1164.73 68.8289 1165.11 67.9479Z" fill="black"/>
<path d="M1469.82 82.2227C1469.82 82.2227 1474.31 81.6517 1474.1 81.0644C1473.96 80.6566 1470.24 80.6892 1471.25 79.9061C1475.14 79.8572 1474.1 80.5424 1476.92 79.9061C1472.78 79.0741 1480.18 77.508 1474.06 77.198C1481.64 75.1587 1470.31 71.8144 1484.04 71.015C1483 70.6561 1481.47 70.444 1479.77 70.2482C1479.56 69.0246 1487.7 70.0851 1485.47 68.3068C1490.79 67.8827 1487.7 69.7588 1492.6 69.4651C1491.63 73.3316 1501.02 74.392 1502.55 77.5732C1493.12 79.2536 1488.46 82.239 1482.58 84.8982C1476.74 84.262 1474.27 85.0288 1469.79 84.5067C1473.92 84.1804 1469.37 83.1037 1469.79 82.1901L1469.82 82.2227Z" fill="black"/>
<path d="M521.54 70.656C522.931 70.656 522.653 70.1829 522.966 69.8893C527.348 69.5956 525.679 70.9497 530.095 70.656C528.426 71.6022 519.906 71.7654 520.114 70.2808C521.332 70.2155 521.471 70.4276 521.54 70.656Z" fill="black"/>
<path d="M1373 72.9564L1380.13 72.9564C1381.11 74.8977 1377.7 75.6482 1378.71 77.6059C1373.28 77.247 1369.63 78.2258 1367.33 77.6059C1370.26 75.7298 1372.13 76.105 1373.04 72.9564L1373 72.9564Z" fill="black"/>
<path d="M1815.81 75.6645C1816.99 75.7461 1817.24 76.056 1818.7 76.056C1817.9 76.9696 1811.95 76.3007 1815.81 75.6645Z" fill="black"/>
<path d="M440.372 76.056C438.355 76.6759 435.469 77.0349 431.817 77.2143C430.983 75.8276 436.025 76.0397 440.372 76.056Z" fill="black"/>
<path d="M1542.43 76.4476C1538.12 77.8669 1537.63 75.273 1542.43 76.4476Z" fill="black"/>
<path d="M1815.81 78.3726C1816.4 77.4101 1821.34 78.34 1820.09 79.1394L1815.81 79.1394C1816.68 78.7968 1817.55 78.4705 1815.81 78.3726Z" fill="black"/>
<path d="M579.895 78.3726C581.077 78.813 581.773 79.4003 581.321 80.2976C577.565 80.1671 576.522 79.2861 575.652 78.3726L579.93 78.3726L579.895 78.3726Z" fill="black"/>
<path d="M1182.19 78.3726C1192.86 78.0463 1194.08 80.2977 1202.11 80.6892C1197.31 83.8052 1187.26 81.0971 1177.91 81.0807C1184.48 80.7381 1179.75 79.3678 1182.19 78.3889L1182.19 78.3726Z" fill="black"/>
<path d="M604.099 84.1641C599.752 83.8704 598.918 84.5556 595.544 84.5393C594.431 84.1967 594.014 83.6747 594.118 82.9895L594.814 82.4185L595.544 81.8312C598.605 82.549 605.212 82.3043 604.099 84.1478L604.099 84.1641Z" fill="black"/>
<path d="M470.28 81.4559C464.681 81.9454 466.072 80.5424 466.037 79.5309C468.541 79.8735 470.975 80.2487 470.28 81.4559Z" fill="black"/>
<path d="M1145.18 81.456C1138.47 81.8149 1142.65 79.6615 1145.18 81.456Z" fill="black"/>
<path d="M1212.09 84.1641C1213.66 83.2995 1215.43 82.4838 1216.37 81.456C1219.29 81.8312 1222 82.2554 1224.93 82.6143L1224.93 84.9309C1220.2 84.8004 1218.6 83.8052 1212.09 84.1641Z" fill="black"/>
<path d="M1892.74 83.7726C1893.08 82.5817 1897.78 82.5654 1901.29 82.2228C1902.61 83.8705 1897.88 83.8705 1892.74 83.7726Z" fill="black"/>
<path d="M713.783 83.7726L718.026 83.7726L718.026 84.9309C714.931 84.9961 713.505 84.6209 713.783 83.7726Z" fill="black"/>
<path d="M1432.82 85.3225C1428.33 84.05 1436.3 82.9243 1432.82 85.3225Z" fill="black"/>
<path d="M1472.67 84.9309C1477.68 85.3877 1477.33 85.4856 1481.23 85.6977C1481.68 86.7255 1478.27 86.6928 1475.52 86.856C1474.9 86.1218 1472.46 85.8771 1472.67 84.9309Z" fill="black"/>
<path d="M286.591 85.3224C282.279 86.6112 291.877 86.497 286.591 85.3224Z" fill="black"/>
<path d="M508.708 85.3224C507.213 87.5737 514.898 85.4692 508.708 85.3224Z" fill="black"/>
<path d="M887.457 87.639C882.136 87.3943 877.824 86.9049 876.085 85.7139C880.814 86.1055 888.743 85.6324 887.457 87.639Z" fill="black"/>
<path d="M1640.71 87.2638C1637.41 87.1496 1637.44 86.236 1639.29 85.7139C1641.58 86.0892 1642.55 86.7417 1640.71 87.2638Z" fill="black"/>
<path d="M515.176 86.5459C515.663 86.5459 516.741 86.5133 517.75 86.497C516.358 86.5133 515.524 86.5459 515.176 86.5459Z" fill="black"/>
<path d="M518.689 86.4807C518.341 86.4807 518.063 86.4807 517.784 86.4807C518.341 86.4807 518.862 86.4807 519.28 86.4481C519.106 86.4481 518.932 86.4481 518.689 86.4481L518.689 86.4807Z" fill="black"/>
<path d="M1642.14 87.2638C1648.08 86.807 1644.68 88.8952 1647.84 89.1888C1643.91 90.6245 1639.22 87.7369 1642.14 87.2638Z" fill="black"/>
<path d="M1475.52 88.0306C1479.8 88.4874 1475.32 89.7109 1471.28 89.1889C1470.83 88.2916 1475.38 88.7484 1475.52 88.0306Z" fill="black"/>
<path d="M374.888 91.1139C381.287 90.3145 386.121 87.9653 393.389 89.5804C390.781 90.4124 393.668 92.729 390.538 93.4305L388.416 93.251L386.295 93.4305C384.452 92.7779 383.339 91.9133 379.166 91.8807L379.861 91.3097C377.497 91.7501 375.132 91.7175 372.732 91.7012L377.601 91.4239C377.323 91.1465 375.862 91.1955 374.854 91.1139L374.888 91.1139Z" fill="black"/>
<path d="M1308.91 88.7974C1307.42 91.0487 1315.1 88.9605 1308.91 88.7974Z" fill="black"/>
<path d="M1380.13 89.1888C1381.66 89.2704 1381.07 89.9556 1382.98 89.9556C1382.36 91.016 1378.5 89.9556 1380.13 89.1888Z" fill="black"/>
<path d="M1706.2 90.3471C1709.64 89.9882 1713.12 89.6293 1716.18 89.1888C1722.64 89.8577 1713.78 91.1302 1714.75 92.6474L1707.62 92.6474C1712.66 91.4565 1707.52 91.636 1706.2 90.3471Z" fill="black"/>
<path d="M716.601 91.1139C713.992 91.9296 702.238 92.0764 705.229 89.5804L712.323 89.5804L711.628 90.1514L713.749 90.3471C713.227 90.9997 714.862 91.0813 716.566 91.1139L716.601 91.1139Z" fill="black"/>
<path d="M420.446 91.1139C417.907 91.8317 416.829 90.8039 411.891 91.1139C413.769 90.445 420.446 89.091 420.446 91.1139Z" fill="black"/>
<path d="M538.615 91.1139C538.894 89.9556 553.082 89.7925 551.448 91.5055L549.326 91.7012L550.022 92.2722C544.493 92.3538 542.649 91.4402 538.615 91.1139Z" fill="black"/>
<path d="M441.798 92.2722C446.111 92.2722 447.328 93.0879 450.353 93.4305C449.727 94.181 447.293 94.4094 447.502 95.3719C446.006 94.4909 441.937 94.2952 440.372 93.4305L442.285 92.9574L441.764 92.2722L441.798 92.2722Z" fill="black"/>
<path d="M722.304 92.2722C727.729 91.6033 731.207 93.4142 732.25 92.6474C735.275 93.5773 732.493 94.703 732.25 95.3556C724.773 95.4534 723.347 93.9199 722.304 92.2722Z" fill="black"/>
<path d="M747.934 92.2722C751.064 92.3212 750.994 93.2511 750.786 94.1973C746.404 94.491 748.038 93.1369 743.656 93.4142C743.204 92.5333 747.76 92.9901 747.934 92.2559L747.934 92.2722Z" fill="black"/>
<path d="M1009.94 92.2722C1015.57 94.2625 1002.5 93.7568 1009.94 92.2722Z" fill="black"/>
<path d="M124.29 95.3556C119.109 95.6003 118.691 94.5562 118.587 93.4142C120.256 93.4794 121.126 93.3326 121.439 93.0226C126.203 93.4305 121.508 94.1973 124.29 95.3392L124.29 95.3556Z" fill="black"/>
<path d="M507.282 94.9803C502.97 94.4909 508.291 93.512 508.708 93.0389C513.02 93.512 507.699 94.5072 507.282 94.9803Z" fill="black"/>
<path d="M288.017 93.4305C289.652 93.7568 291.808 93.9362 295.146 93.822C295.112 94.8498 295.912 96.0897 292.295 96.1386L291.564 95.5513L289.443 95.7471C287.809 95.2903 287.843 94.3767 288.017 93.4305Z" fill="black"/>
<path d="M290.869 96.8891L290.869 96.5139L291.565 96.6933L292.295 96.8891C296.781 97.4274 297.024 96.987 302.241 96.8891C299.007 98.2595 305.266 98.2595 302.241 99.9887L300.12 99.8093L300.815 100.38C301.059 100.707 300.259 100.739 299.389 100.772L297.268 100.592C298.45 101.098 298.902 101.62 298.694 102.126L297.824 101.163C288.226 101.359 276.506 96.3833 290.869 96.9054L290.869 96.8891Z" fill="black"/>
<path d="M364.907 94.9803C362.786 94.7683 361.326 94.4093 359.204 94.1973C358.543 93.1205 366.959 94.5072 366.333 93.4142C371.55 94.0178 363.03 93.9852 364.907 94.964L364.907 94.9803Z" fill="black"/>
<path d="M454.631 94.9803L451.779 94.9803C452.057 94.6541 451.222 94.6214 450.353 94.5888C449.797 93.8384 456.856 94.0178 454.631 94.9803Z" fill="black"/>
<path d="M1898.4 94.1973C1901.36 94.2952 1898.75 95.9103 1902.72 95.7472C1902.26 96.2692 1899.13 96.0571 1897.01 96.1387C1896.56 95.2414 1897.26 94.6541 1898.4 94.2136L1898.4 94.1973Z" fill="black"/>
<path d="M342.129 94.5888C342.338 95.4208 337.087 94.7682 335 94.9803C334.757 94.1483 340.043 94.8009 342.129 94.5888Z" fill="black"/>
<path d="M349.258 94.5888L352.11 94.5888C352.771 95.4208 350.093 95.3229 347.833 95.3556C348.111 95.0456 349.258 94.964 349.258 94.5888Z" fill="black"/>
<path d="M463.151 95.747L460.299 95.747L460.299 94.9803L463.151 94.9803L463.151 95.747Z" fill="black"/>
<path d="M621.209 94.9803L624.061 94.9803L624.061 96.1387L619.783 96.1387C619.366 95.5187 621.105 95.4698 621.209 94.9803Z" fill="black"/>
<path d="M937.291 96.1387C935.17 97.297 930.927 95.845 931.588 94.9803C934.509 95.0945 934.37 96.0245 937.291 96.1387Z" fill="black"/>
<path d="M770.712 96.5138L767.861 96.5138C767.443 95.8939 769.217 95.845 769.286 95.3555L772.138 95.3555C772.555 95.9755 770.782 96.0081 770.712 96.5138Z" fill="black"/>
<path d="M552.839 101.539C550.404 101.049 547.24 100.739 547.17 99.6135C551.135 98.2431 551.517 95.8939 559.968 95.7471C560.942 98.5857 559.481 100.772 552.839 101.539Z" fill="black"/>
<path d="M312.221 107.33C316.534 106.09 316.151 102.713 310.796 101.93C311.769 99.3688 311.943 98.602 309.37 96.5301C314.899 95.7471 326.515 96.1712 325.019 97.2969L324.289 97.8842L326.445 98.08C326.688 98.4062 325.889 98.4389 325.019 98.4715C325.123 99.0751 324.324 99.9398 326.445 100.005C324.428 100.755 321.02 101.131 320.742 102.322C320.985 102.762 323.35 102.664 325.019 102.713C321.02 104.165 323.698 105.421 326.445 106.971C323.559 108.178 319.003 107.2 312.187 107.346L312.221 107.33Z" fill="black"/>
<path d="M693.822 96.1386C696.326 96.0081 696.361 98.2921 692.396 97.6885C691.805 96.8728 693.37 96.6607 693.822 96.1386Z" fill="black"/>
<path d="M753.637 97.2806C750.542 97.3459 749.116 96.9707 749.36 96.1387C752.49 96.0734 753.881 96.4486 753.637 97.2806Z" fill="black"/>
<path d="M1378.71 97.6722L1378.01 98.3737L1380.13 98.8304C1379.92 99.6788 1376.55 99.6625 1373 99.5972C1373.18 98.912 1371.26 98.7978 1371.58 98.0474C1373.25 97.7211 1375.4 97.5416 1378.71 97.6722Z" fill="black"/>
<path d="M147.034 98.4552C148.356 100.266 140.427 99.1404 147.034 98.4552Z" fill="black"/>
<path d="M755.063 103.072L755.759 102.354L753.637 101.914C754.263 101.31 758.123 101.571 756.489 100.364C760.453 100.625 765.287 103.268 759.34 103.839L759.34 103.447L757.915 103.447C756.767 103.366 756.489 103.056 755.063 103.056L755.063 103.072Z" fill="black"/>
<path d="M755.063 104.622L756.489 104.801L757.915 104.622C758.193 105.454 756.767 105.846 753.637 105.78C753.255 105.16 754.993 105.111 755.063 104.622Z" fill="black"/>
<path d="M1210.7 100.38C1211.82 101.196 1214.15 102.534 1212.09 103.088C1205.8 103.252 1204.34 102.11 1204.96 100.38L1210.67 100.38L1210.7 100.38Z" fill="black"/>
<path d="M1300.39 101.147C1305.78 101.506 1301.43 102.697 1301.82 103.855C1300.67 103.643 1299.49 103.447 1297.57 103.464C1296.04 102.028 1301.09 102.354 1300.43 101.147L1300.39 101.147Z" fill="black"/>
<path d="M541.467 104.622C541.293 105.601 539.38 106.107 535.764 106.172C535.903 105.617 536.007 105.079 534.338 105.013C534.094 104.181 539.38 104.834 541.467 104.622Z" fill="black"/>
<path d="M765.009 105.389C768.313 105.258 770.469 105.438 772.138 105.78C772.556 106.792 762.505 107.118 765.009 105.389Z" fill="black"/>
<path d="M312.222 106.172C312.778 108.048 305.718 106.792 302.241 106.563C302.867 105.699 309.266 106.417 312.222 106.172Z" fill="black"/>
<path d="M430.392 108.472C424.619 108.635 426.01 106.841 421.871 106.547C425.627 105.421 432.304 106.775 430.392 108.472Z" fill="black"/>
<path d="M1743.23 111.963C1739.37 110.675 1732.56 110.234 1730.4 108.488C1741.28 108.456 1738.78 107.183 1748.9 106.955C1757.25 109.369 1740.55 108.864 1743.23 111.963Z" fill="black"/>
<path d="M312.221 111.963L309.37 111.963L309.37 110.413L312.221 110.413L312.221 111.963Z" fill="black"/>
<path d="M80.1246 111.18C83.5674 111.017 83.2196 111.898 87.2537 111.572C86.0017 112.42 79.2899 112.746 80.1246 111.18Z" fill="black"/>
<path d="M295.146 111.572C294.798 112.257 292.677 112.453 289.443 112.338C288.017 111.18 292.608 111.653 295.146 111.572Z" fill="black"/>
<path d="M1738.95 112.339C1738.95 112.339 1738.85 111.947 1738.95 111.947C1745.77 111.621 1732.17 114.443 1738.95 112.339Z" fill="black"/>
<path d="M312.222 116.205C313.265 115.014 310.761 114.802 310.796 113.888L315.073 113.888C314.099 115.34 319.038 116.156 312.222 116.205Z" fill="black"/>
<path d="M152.738 115.813C150.825 115.683 151.555 114.851 151.312 114.264L154.164 114.264C153.885 114.59 154.72 114.622 155.589 114.655C154.685 115.047 152.32 115.047 152.738 115.813Z" fill="black"/>
<path d="M340.703 117.755L342.129 117.951L343.555 117.755C343.312 118.081 344.112 118.114 344.981 118.13L344.251 118.717L346.407 118.913C346.789 119.549 345.05 119.582 344.981 120.071C341.225 119.892 340.182 119.778 336.461 118.913C336.009 118.032 340.564 118.489 340.703 117.771L340.703 117.755Z" fill="black"/>
<path d="M1814.42 115.813C1814.77 115.389 1817.24 115.552 1817.27 115.047C1821.13 115.373 1816.09 116.76 1814.42 115.813Z" fill="black"/>
<path d="M330.723 116.972C330.966 117.82 325.68 117.151 323.593 117.347C323.35 116.515 328.636 117.184 330.723 116.972Z" fill="black"/>
<path d="M722.304 118.522C727.555 118.832 723.486 120.104 722.304 120.838C719.174 120.789 719.243 119.876 719.452 118.913C721.121 118.978 721.991 118.832 722.304 118.522Z" fill="black"/>
<path d="M433.243 120.071C433.8 119.925 428.966 119.664 429 119.68C428.583 119.076 436.686 119.141 433.243 120.071Z" fill="black"/>
<path d="M159.866 122.388C158.719 122.176 157.536 121.98 155.589 121.996C157.71 121.556 159.067 120.887 162.718 120.838C161.988 121.409 160.631 121.817 159.866 122.388Z" fill="black"/>
<path d="M129.959 123.546L129.959 124.313C126.412 124.819 124.047 123.171 122.83 124.313C117.961 123.171 128.916 123.399 128.533 123.155C129.75 123.089 129.889 123.302 129.959 123.546Z" fill="black"/>
<path d="M359.204 123.546C358.926 123.856 357.779 123.922 357.779 124.313L354.927 124.313L354.927 123.155C357.222 123.041 357.361 123.514 359.204 123.546Z" fill="black"/>
<path d="M104.329 125.847L101.477 125.847L101.477 125.08L104.329 125.08L104.329 125.847Z" fill="black"/>
<path d="M363.482 127.005C360.178 126.907 360.213 125.977 362.056 125.455C365.36 125.553 365.325 126.483 363.482 127.005Z" fill="black"/>
<path d="M370.611 126.63C371.028 127.657 368.629 127.902 364.908 127.788C364.456 126.776 366.89 126.532 370.611 126.63Z" fill="black"/>
<path d="M1916.94 57.9149C1912.45 58.3553 1913.46 57.3112 1911.24 57.1481C1899.34 58.7143 1911.38 60.623 1919.79 60.2315C1917.5 62.0586 1909.08 62.2218 1906.96 64.0816C1910.4 65.6641 1905.53 66.2514 1905.53 67.948C1895.03 69.1879 1895.38 72.7933 1887.03 73.7395L1886.3 73.1685L1884.18 73.348C1875.73 74.6205 1867.07 72.9401 1864.25 71.4229C1861.3 71.2761 1860.5 71.7003 1858.55 71.8145C1861.44 73.3969 1861.54 74.6042 1868.5 75.6809C1868.95 76.7087 1865.54 76.6924 1862.79 76.8392C1871.42 80.2815 1871.21 86.1382 1887 87.6554C1886.06 88.047 1883.73 88.047 1884.15 88.8137L1883.45 89.401L1882.72 89.9883C1877.54 89.2542 1869.12 91.7339 1872.74 93.4632C1868.6 94.5889 1860.5 93.6264 1862.79 92.3049L1864.91 92.1092L1862.79 91.9134C1868.22 91.1303 1865.05 89.4989 1867.07 88.4385C1861.96 88.6832 1860.18 87.998 1857.09 87.6717C1857.47 86.2361 1869.26 84.1968 1861.37 83.0385C1861.3 82.3697 1862.41 82.0434 1864.22 81.8802C1857.51 81.9292 1849.86 79.5147 1841.44 78.7969C1847.49 77.5244 1840.68 76.5129 1838.59 75.322C1832.64 74.8652 1836.05 76.9534 1832.92 77.247C1826.28 77.6223 1830.97 74.9468 1824.37 75.322C1823.98 74.6857 1825.72 74.6531 1825.79 74.1637C1825.48 73.6743 1821.55 73.6579 1821.51 74.1637C1819.39 74.0005 1822.07 73.6743 1821.51 73.0054L1823.67 73.2011L1817.97 72.6138L1818.7 73.0054C1816.47 73.5764 1812.02 73.5274 1810.14 74.1637L1808.19 74.6205L1808.72 75.322C1804.13 74.6857 1799.26 74.9957 1795.92 75.7135C1793.83 78.9111 1802.66 79.2863 1803.05 82.6633C1801.76 82.9733 1799.81 83.0875 1797.34 83.0549C1797.07 84.6863 1792.96 85.0941 1793.07 86.9213C1793.14 88.618 1796.86 90.0536 1797.34 91.163C1797.76 92.7454 1795.36 91.0977 1791.64 91.5545L1791.64 91.946L1789 91.7503L1787.36 92.3213C1784.27 91.995 1782.32 91.3587 1783.09 90.0047C1776.27 89.6457 1777.7 89.9068 1768.86 89.6131C1770.5 89.0421 1770.5 88.6343 1768.86 88.0633C1765.18 88.4874 1762.01 89.0258 1760.31 89.9883C1753.63 87.9164 1752 91.5055 1746.08 91.9134L1744.66 91.9134L1744.66 92.3049C1743.51 92.0928 1742.36 91.8971 1740.38 91.9134L1741.11 91.3424L1738.99 91.5219C1733.46 89.7763 1740.55 89.2216 1736.14 87.6717C1728.77 88.7158 1727.2 86.8887 1720.49 87.6717C1721.78 85.6814 1721.46 85.6651 1714.78 85.3551C1718.09 84.1153 1705.01 82.8754 1713.36 81.4887C1708.39 80.0531 1704.87 82.2555 1699.14 81.8802L1699.83 81.3092L1697.71 81.1135C1696.42 80.1673 1704.04 79.1232 1697.71 79.1721C1698.93 78.6174 1699.83 77.9649 1703.41 78.0301C1703.66 77.7038 1702.82 77.6712 1701.99 77.6386L1702.68 76.9208L1700.56 76.4803C1696.88 75.9745 1697.81 75.2241 1699.14 74.1637C1697.88 73.5764 1697.01 74.2616 1693.43 73.7721C1695.83 70.6561 1699.31 65.9087 1711.97 66.8223C1716.87 65.5498 1711.24 64.6199 1713.39 63.739C1706.33 64.2284 1706.4 62.8091 1700.6 62.9559C1703.24 62.2218 1700.74 61.9771 1700.6 61.0308C1698.34 60.9982 1695.14 61.2103 1694.89 60.6556L1696.32 60.6556L1691.35 60.4598L1693.47 60.6556C1688.25 62.7601 1687.52 64.9952 1690.62 67.2139C1687.87 67.7522 1686.41 68.6495 1684.91 69.5305C1666.79 69.8404 1662.52 65.5662 1660.71 62.5807C1659.66 61.6997 1656.43 61.4224 1653.58 61.0308C1654.41 56.8544 1643.01 57.4744 1633.65 57.5559C1638.56 57.0828 1634.49 54.1789 1637.89 53.3143L1640.5 53.4937C1640.02 52.988 1640.16 52.4659 1640.5 51.9439L1637.89 52.1397C1636.61 51.4708 1635.25 50.8019 1630.77 50.9814C1636.12 49.9699 1625.97 47.2944 1636.47 46.7234C1631.39 45.6956 1628.68 45.043 1620.78 45.5651C1623.98 47.4738 1622.04 48.0775 1623.64 50.1983C1619.78 50.5572 1618.32 51.585 1615.08 52.1233C1617.06 53.51 1619.88 53.51 1623.64 53.6569C1625.1 55.2067 1621.41 55.3699 1619.36 55.9735L1617.2 56.4303L1617.93 57.1318C1608.47 57.1644 1604.54 60.052 1609.38 61.765C1596.2 59.9541 1594.95 64.4894 1585.17 64.8483C1580.24 66.9039 1585.17 68.4864 1579.47 70.6398L1572.38 70.6398C1579.85 69.1063 1565.87 69.1063 1570.95 67.1649C1560.9 66.4145 1560.07 65.8761 1552.45 66.7734C1556.14 65.4846 1554.33 65.5661 1553.87 63.69C1562.05 63.0212 1565.73 64.3752 1569.56 62.5317C1567.09 62.3849 1562.71 60.9003 1559.58 59.8236C1552.94 60.574 1546.33 59.2363 1542.5 60.9656C1542.5 62.7928 1550.33 64.0653 1548.21 65.2236C1546.54 64.7831 1543.2 64.7831 1539.69 64.832C1531.34 67.9806 1519.2 65.5335 1516.91 62.1239C1515.79 61.7487 1510.23 60.6556 1509.78 61.3571C1505.43 60.9656 1511.41 60.3293 1511.2 59.8073C1505.29 60.3783 1501.15 58.8121 1491.28 58.649C1490.34 59.5299 1488.22 62.5807 1489.85 64.0489L1487.73 64.2447L1488.43 64.8157C1482.58 65.1257 1470.38 66.4471 1459.94 66.7408C1457.51 66.1045 1458.45 64.571 1454.24 64.4242C1452.68 62.9233 1459.28 63.0538 1455.67 62.1076C1450.9 60.6393 1448.29 62.2054 1444.29 62.8743L1444.29 62.4991L1442.87 62.4991C1441.41 61.7323 1440.4 60.8351 1437.2 60.574C1422.49 61.4224 1420.65 68.8453 1445.72 66.7408L1446.42 67.3118L1448.54 67.1323C1447.6 69.1879 1439.5 69.3021 1437.17 70.9824C1418.87 70.5583 1407.99 69.09 1393 69.8404L1393.73 69.2531L1391.61 69.0737C1392.34 68.5027 1393.7 68.0948 1394.46 67.5238C1394.22 66.4308 1391.96 65.8761 1387.37 65.974C1388.2 65.1746 1385.59 63.4453 1388.79 63.2659C1388.58 62.4338 1385.21 62.4338 1381.66 62.4991C1383.19 62.1402 1382.11 61.0635 1385.94 61.3408C1385.73 60.4925 1382.36 60.5088 1378.81 60.574C1381.14 59.9052 1381.94 58.8447 1384.55 58.2574C1383.92 57.768 1382.71 57.458 1380.27 57.4907C1383.64 56.2019 1377.45 54.701 1384.55 54.4073C1380.83 52.6617 1372.34 55.1741 1371.72 56.7239C1367.2 56.3976 1366.33 57.0502 1364.62 57.4907C1363.23 59.0242 1368.87 58.649 1367.44 60.1988C1363.09 59.9215 1363.27 60.8677 1358.88 60.5903C1359.09 61.8302 1362.12 62.287 1367.44 62.1239C1361.98 63.8042 1370.43 64.1794 1374.57 64.4405C1375.33 67.1649 1375.02 67.1812 1373.14 70.6235C1358.78 70.2157 1366.88 75.8766 1358.88 77.1818C1359.34 78.0954 1363.3 78.0464 1364.59 78.7316L1365.28 79.1068L1365.98 79.4984C1360.69 80.0694 1358.71 80.6567 1353.18 81.815C1342.78 80.2814 1355.02 74.1637 1341.81 72.9401C1342.78 72.1733 1346.16 72.0591 1347.51 71.3903L1349.63 71.586C1348.9 71.0803 1349.15 70.5582 1349.63 70.0362L1347.51 70.232C1345.04 69.8731 1343.83 68.8779 1346.09 68.2906C1343.1 68.4537 1342.33 68.0296 1340.38 67.899C1342.19 69.5468 1340.49 69.8731 1336.11 70.6072C1334.61 73.4295 1336.28 74.751 1336.11 77.9485L1333.98 77.7528L1333.25 78.3401C1326.99 78.4869 1329.57 76.2682 1324.7 76.0235C1325.19 75.1099 1326.44 74.4247 1327.55 73.7069C1317.43 72.0102 1317.12 76.2682 1311.87 77.1818C1303.66 76.3334 1284.25 78.7642 1293.37 81.4234L1291.94 81.4234L1291.94 81.815C1294.76 84.9962 1297.16 86.595 1293.37 89.9231L1291.52 90.4288L1290.51 91.0814C1286.69 90.3146 1282.03 89.7925 1277.72 89.1563C1282.27 86.6439 1271.35 85.3062 1266.34 84.1316C1262 84.2458 1256.61 84.0663 1256.36 85.2899C1250.87 84.7189 1252.47 82.2228 1250.66 80.6567C1258.21 80.4283 1258.73 79.8083 1259.22 78.3401C1257.09 77.8833 1255.22 77.3775 1253.51 76.7902L1254.24 76.0724L1252.12 75.6156C1261.51 74.9467 1261.37 71.6839 1267.77 70.2156C1266.83 69.6936 1264.71 69.4978 1262.07 69.4489C1263.91 69.3836 1263.91 67.0833 1262.07 68.2906C1258.97 67.8012 1266.8 67.0181 1264.92 65.5825C1262.24 64.6362 1256.64 64.4731 1257.79 62.4991C1256.54 61.1613 1246.73 62.1402 1247.84 60.1825C1252.5 59.5626 1253.27 60.2641 1259.22 60.1825C1259.84 59.3668 1258.28 59.1547 1257.79 58.649C1247.77 59.2526 1241.76 59.2689 1236.44 60.574L1234.28 60.3783L1232.16 60.1825C1230.91 60.003 1229.59 59.8399 1229.31 59.4157C1223.12 59.791 1221.03 61.2755 1215.05 61.716C1217.48 65.2072 1208.02 65.4683 1199.4 65.974C1199.54 64.7667 1197.66 64.1305 1196.55 63.2659C1202.22 61.1124 1203.3 58.8774 1203.68 56.316C1197.49 54.962 1194.46 54.8804 1193.7 52.4659C1190.67 51.4871 1183.09 51.7318 1183.72 49.7415C1188.72 50.1004 1192.55 48.991 1200.79 48.5995L1202.22 48.7953L1203.64 48.5995C1204.48 49.3989 1206.63 49.8557 1207.92 50.5409C1210.56 50.2309 1213.14 49.8883 1216.48 49.7578C1217.59 50.8835 1221.66 51.1934 1223.6 52.0907C1216.48 52.988 1208.55 53.6732 1209.35 56.7239C1211.95 58.1432 1214.53 57.5396 1220.75 57.4907C1222.14 55.9571 1216.48 56.3324 1217.9 54.7825C1225.66 54.962 1228.54 53.82 1233.55 53.249C1232.51 52.8738 1230.98 52.6454 1229.27 52.4822C1234.11 51.9928 1236.16 50.7366 1242.11 50.5572C1243.39 49.301 1237.45 50.0025 1236.4 49.3989C1237.17 49.0726 1237.9 48.7626 1237.83 48.2406C1243.64 47.9469 1242.73 49.4805 1249.23 49.0073C1250.03 47.5554 1251.49 43.6237 1254.94 41.6823C1253.06 40.6382 1245.97 41.0134 1243.53 40.1325L1242.8 39.7409C1240.82 39.7246 1238.49 39.7409 1236.4 39.3494C1236.75 38.4032 1239.18 37.5875 1242.8 37.4733L1240.64 37.0328C1241.27 35.5809 1237.62 35.2709 1234.98 34.7162L1235.71 34.3247L1234.98 33.9494C1234.21 33.6395 1233.48 33.3295 1233.55 32.7911L1229.27 32.7911C1229.45 33.4763 1227.53 33.5905 1227.85 34.3247C1229.52 34.2757 1230.39 34.4226 1230.7 34.7162L1230 35.3035L1232.12 35.4993C1222.84 35.744 1217.97 39.0231 1207.92 37.8159C1206.88 36.6413 1209.38 36.4129 1209.35 35.4993L1207.92 35.4993L1208.65 34.912L1206.53 34.7162C1206.56 34.341 1208.27 34.4226 1209.38 34.3247C1209.59 32.5954 1203.36 32.6117 1202.25 31.2413C1196.06 31.747 1194.32 31.4534 1189.45 30.8498C1192.76 29.9688 1188.76 29.0715 1186.6 28.5332L1188.06 28.5332L1181.63 28.3374L1183.75 28.5332C1183.79 29.4468 1181.32 29.6752 1182.32 30.8498C1182.5 31.5839 1187.65 30.2461 1189.45 31.2413C1185.21 34.2105 1173.11 35.0425 1163.82 36.6413C1160.35 36.2987 1158.61 35.4993 1152.42 35.8745C1151.86 36.8044 1155.03 36.7228 1153.84 37.8159L1151.9 38.289L1152.38 38.9742C1147.44 38.86 1146.99 38.3869 1142.44 38.9742C1149.7 39.9693 1146.61 43.7705 1152.38 45.1572C1153.53 45.0756 1153.81 44.7657 1155.23 44.7657C1158.61 42.8406 1170.19 43.1506 1173.74 41.2908C1177.6 41.666 1177.25 43.1669 1180.86 43.6074L1182.29 43.6074L1181.59 44.1784L1183.72 44.3578C1178.92 44.8799 1179.16 46.7234 1173.77 47.066C1173.21 46.1198 1176.66 45.304 1166.64 45.5161C1164.07 46.3645 1161.84 47.3107 1155.23 47.066C1157.08 46.5439 1157.08 45.6466 1155.23 45.1409C1146.82 45.8098 1147.62 48.1101 1142.44 49.7578C1141.18 50.1656 1132.21 49.3173 1135.31 51.3076L1123.9 51.3076C1130.86 53.5427 1136.14 56.2182 1146.68 57.4907C1147.03 59.5626 1149.22 60.9982 1146.68 62.8906C1138.12 62.7601 1134.12 63.8695 1128.18 64.4405C1131.06 65.1909 1131.48 66.0066 1129.6 67.1486C1132.49 68.2906 1140.8 67.9806 1141.01 69.8567C1136.87 71.1455 1137.32 69.8078 1131.06 69.8567C1132.94 70.6235 1135.72 71.1619 1139.58 71.3903C1145.95 70.6724 1151.62 69.7752 1159.51 69.4652C1166.26 71.5697 1164.38 73.8374 1175.2 74.4736C1175.37 75.1588 1173.46 75.2893 1173.77 76.0235L1171.65 75.8277L1172.38 76.415L1166.68 76.415C1166.68 77.3286 1169.14 77.557 1168.1 78.7316C1164.14 77.4917 1154.5 77.7854 1148.17 77.1818C1143.1 77.4591 1142.16 78.8784 1138.23 79.4984C1134.82 78.9274 1139.13 76.6108 1131.1 76.415C1126.47 77.0839 1134.79 77.4265 1132.53 78.7316C1129.4 78.0138 1121.88 78.7316 1121.15 78.3401C1119.07 78.8132 1119 79.8083 1116.88 80.2651L1114.75 80.4609L1119.03 81.2276L1118.34 80.6403C1123.27 80.624 1132.66 82.9732 1133.99 81.4071C1142.19 82.2881 1147.69 85.8609 1139.65 87.9817C1145.84 89.9067 1153.39 91.4566 1163.86 92.2233C1161.22 95.0294 1155.72 95.6656 1145.36 95.6982C1141.98 96.0735 1142.99 97.6233 1138.23 97.6233C1138.12 93.3327 1134.86 87.8022 1115.45 89.14C1105.09 86.8886 1095.77 83.8705 1082.69 86.0403C1079.73 85.5509 1077.34 84.9146 1075.56 84.1152L1074.17 84.1152C1071.46 84.1479 1073.16 85.3877 1069.89 85.2735C1073.72 90.9835 1051.25 91.7829 1061.34 96.8402L1058.73 96.6445L1057.06 97.2154C1053.37 96.6934 1050.49 95.9103 1047.11 95.2904C1041.69 95.1109 1042.66 96.6608 1039.99 97.2154C1033.17 96.3345 1037.66 93.8384 1035.71 92.207C1033.55 90.3798 1028.06 88.8953 1022.91 87.9654C1023.85 86.1545 1020.65 85.4856 1020.06 84.0989C1015.43 84.001 1013.21 84.5557 1012.96 85.6488C1018.18 85.714 1018.67 88.1938 1014.39 88.7321L1012.27 88.5364L1010.15 88.7321C1010.81 87.5249 1008.13 87.2312 1007.3 86.4318C997.732 86.3176 997.35 83.7237 987.369 83.7237L989.49 83.2669L988.76 82.5491C995.437 82.6796 1000.44 82.3859 1003.02 81.3908C997.802 79.9715 999.158 76.7739 988.76 76.7576C987.578 78.3564 992.62 78.2748 994.463 79.0579C995.611 80.1509 992.446 80.053 993.037 80.9992C983.822 79.6615 979.892 82.7449 974.536 83.7074L974.536 83.3158C973.667 83.9032 971.546 84.0826 969.563 84.2947L971.685 84.4741C970.885 85.2735 969.459 85.2898 967.407 84.8657C961.182 85.4856 964.869 88.7974 957.461 89.1237C959.444 91.0161 963.373 92.4191 961.739 95.2904C960.104 95.2251 959.2 95.3719 958.887 95.6819C954.61 95.6493 950.923 93.4958 946.055 94.9152C941.256 93.4632 942.229 91.7992 938.926 90.6572C932.631 91.065 927.484 91.4076 921.85 91.0487C923.207 89.401 917.851 89.5641 917.573 88.3406L920.425 88.3406L920.425 87.5738C929.292 84.6699 914.721 83.1201 903.349 83.3158C897.785 83.8216 903.071 85.0451 900.498 86.024C895.246 86.8234 892.221 84.7515 887.7 83.7074C885.405 83.169 882.205 83.5279 880.606 82.5491C879.423 81.8639 882.031 81.1134 881.997 80.9992C881.858 80.0367 879.11 79.6941 879.18 79.4657C879.423 78.3564 881.927 75.4525 889.126 75.2241C884.048 72.9727 864.609 72.6464 857.792 75.2241C861.653 77.8996 870.103 79.3678 870.625 82.9406C866.034 83.2669 867.669 81.9455 864.921 81.7823C859.253 82.8101 861.513 84.2947 864.921 85.2572C861.235 85.0288 859.809 85.404 860.644 86.4155C850.455 86.0729 850.107 83.0874 837.865 83.3158C839.639 82.2554 830.98 81.2113 827.885 80.2325C821.903 80.673 818.878 81.8965 817.904 83.7074C825.103 82.4186 835.64 84.9146 843.534 84.4741C841.482 85.5998 837.866 86.3013 834.979 87.1823C837.761 87.0518 837.692 88.6832 844.96 88.3243C843.186 92.0439 844.543 94.181 854.906 95.2904C853.55 97.4601 859.044 97.7701 859.183 99.532L857.062 99.7278L857.758 100.299C851.011 101.098 844.821 98.7653 836.405 98.749C831.119 98.6021 832.684 100.315 826.424 99.9073C822.077 99.1079 826.32 97.4112 824.998 95.2741C818.53 92.1254 814.252 89.6131 806.462 87.5575C803.089 87.5575 802.289 88.2264 797.942 87.949C798.534 86.4645 799.507 86.5787 796.517 85.6324C794.569 86.2524 789.735 86.1055 790.848 87.5575C788.414 85.8608 784.275 86.6113 779.441 86.7907C780.415 88.4711 777.007 88.9605 778.015 90.6409L775.894 90.8366C778.781 91.685 779.546 92.9248 777.32 93.9363L776.172 91.4402C768.974 91.7992 768.974 90.233 763.792 91.0324C764.14 89.0584 776.764 88.3895 770.921 86.024C773.912 85.5509 775.06 84.572 779.441 84.4741C779.963 81.6192 772.312 80.9992 768.07 79.4657C762.018 79.4983 760.732 80.8198 758.089 81.7823C751.342 81.9455 742.37 80.3467 742.439 82.9406C729.711 82.2065 710.967 79.4657 702.551 83.3321C698.1 83.5279 698.795 82.3044 695.422 82.1738C690.936 81.9944 689.858 82.7285 686.867 82.9406C686.38 87.4433 680.085 90.3635 662.663 90.2819C662.802 89.2868 668.227 89.7273 668.366 88.7321C668.54 88.0469 666.592 87.9164 666.94 87.1986C663.984 87.8838 657.168 87.2802 654.107 86.807L656.264 86.6113L654.107 86.4318C653.655 85.5182 649.691 85.5672 648.404 84.882C648.995 83.7889 654.942 84.572 651.256 82.5654C653.551 82.4675 653.69 82.9243 655.499 82.9569L655.499 83.7237C656.542 83.4463 657.446 83.1201 659.081 82.7611L656.924 82.5654C654.107 81.0645 649.134 82.2065 646.978 80.2488C642.84 80.8035 638.076 81.1787 637.032 82.5654C632.442 80.3304 627.33 76.2029 618.531 76.3987C618.045 75.8114 620.096 75.0609 617.106 73.6905C623.678 71.5371 627.782 67.7848 624.235 64.0326C628.06 63.7716 626.982 64.832 628.477 65.1909C634.807 62.2707 642.423 59.7094 645.587 55.9245L644.857 55.3535L644.161 54.7662C655.464 53.0695 666.418 51.275 664.088 45.8913C660.68 45.2225 652.438 44.4067 655.533 43.1995L657.689 43.0037C655.742 41.9923 650.073 41.2581 651.986 39.9204L649.865 40.1161C645.622 38.7458 637.937 36.5107 628.477 37.7995L627.782 37.2285L625.66 37.0328L621.383 37.0328L622.113 36.4618C618.949 36.886 614.984 37.3591 612.133 36.4618L611.437 37.0328C598.639 38.0932 595.301 31.9102 594.362 29.6914C592.067 29.5936 591.893 30.0667 590.084 30.083C594.849 34.602 587.893 37.2612 578.678 39.7409C576.139 40.7687 584.972 40.4914 580.103 40.8992C580.103 42.6122 575.131 40.2793 572.974 40.1325C567.654 40.2303 564.872 41.0297 561.568 41.6823L559.898 41.095L557.29 41.2908L557.29 40.8992C552.004 39.121 543.762 42.4164 541.641 43.9989C528.495 40.5729 519.071 46.0708 513.159 48.2405L512.429 47.6696L510.273 47.8653C508.638 47.017 505.369 46.6255 501.752 46.3155C503.596 45.3203 504.674 45.1082 508.847 45.5487C511.838 45.4508 506.795 44.5209 510.273 44.0152C503.422 44.733 497.127 45.5814 490.346 46.3155C496.223 50.965 487.564 57.8169 507.456 59.0568C501.892 61.096 512.429 63.3637 504.604 66.0066C506.725 67.2301 509.994 68.1437 511.733 69.4815L509.195 69.3347L507.456 69.873C500.257 70.134 497.614 68.9431 500.361 67.5564C496.432 68.6821 488.224 68.6495 484.712 69.873C471.323 69.8893 469.376 66.8223 461.899 65.2398C458.491 65.6966 464.159 66.9039 464.751 67.5564C462.699 68.16 459.012 68.3232 460.473 69.873L457.865 69.6772L456.195 70.2646C453.796 69.6283 449.797 69.4162 447.675 68.7147C444.893 68.5353 443.085 70.4766 446.249 70.6398C440.79 73.2011 424.097 71.0639 416.342 70.6398C404.727 76.3008 435.851 78.8458 444.824 82.598C444.372 83.4953 440.059 83.3321 440.581 84.4741L444.406 84.8657C442.389 84.7841 440.198 84.8167 439.155 84.3599L437.729 84.5394C436.269 84.1642 434.843 83.7726 433.452 83.3811C429.696 83.3811 425.071 83.169 424.932 84.1642C422.88 83.9358 421.454 83.5605 420.654 83.0059L422.775 82.8264C420.689 82.5491 418.568 82.1249 417.072 81.6681L416.342 82.2391C415.194 82.3043 414.951 82.6306 413.49 82.6306L411.821 82.0596L409.213 82.2554C408.482 81.9454 407.752 81.6355 407.787 81.0971L402.118 81.0971L399.997 80.9013L399.301 81.4723C397.737 80.6077 392.45 80.7545 393.598 79.1557L402.153 79.1557C401.11 77.247 394.92 78.5032 389.321 78.389C387.547 77.3285 384.835 76.5292 379.34 76.4639C375.967 77.2633 373.219 79.7267 376.488 81.0971C379.409 80.9829 379.27 80.053 382.191 79.9388L382.887 80.5098L385.008 80.7056C391.616 81.4723 380.001 82.2554 383.583 84.572C387.686 85.0777 386.504 87.0191 385.008 88.0469C379.096 88.0958 380.696 86.1381 379.305 84.9635C378.053 84.8004 376.766 84.6209 376.453 84.1968C367.829 84.9309 372.558 89.3031 363.656 89.9883C364.629 91.6686 361.082 92.1254 357.952 92.6801C343.416 90.494 362.821 86.3502 366.507 84.1968C361.952 81.505 361.952 79.3189 353.71 77.247C334.165 76.0724 330.688 80.5914 308.153 78.7968C301.963 80.0693 296.085 81.4397 291.078 83.0385L291.078 82.6469C290.695 82.9243 289.86 83.2506 288.817 83.5116C287.948 83.5116 287.009 83.3811 286.105 83.2342L286.8 83.8052C283.705 84.5067 284.227 86.1871 281.097 86.9049C280.54 88.3405 286.87 87.9001 285.374 89.6131C277.55 88.21 274.42 90.9508 276.819 92.3049C273.237 92.2396 273.376 93.1695 271.151 93.4632C267.638 92.4354 267.465 91.636 266.873 89.2215L269.029 89.0257C267.917 89.0094 266.456 88.8626 264.752 88.6342L266.873 88.83C266.595 88.5037 267.43 88.4711 268.299 88.4384C272.716 84.9962 265.343 82.859 258.353 80.7219C253.797 81.5049 250.424 85.5672 254.076 86.1381C255.432 87.5412 247.92 86.5297 246.946 87.2964C249.172 87.378 251.885 89.2215 252.65 88.4384C256.753 88.2427 250.459 89.9556 251.224 88.83C247.329 90.0535 253.797 92.0275 246.946 92.6964C250.111 93.0064 250.772 93.9852 255.501 93.8547C250.841 95.3556 255.049 97.3949 254.076 97.7211C251.989 98.0311 250.285 97.2317 244.13 97.7211C241.452 97.0359 245.277 96.7423 244.13 95.4045C241.069 95.7308 242.912 97.3949 239.852 97.7211C239.609 98.5532 244.895 97.8843 246.981 98.0964C244.303 98.8305 246.842 99.0589 246.981 100.021C238.392 98.9936 235.888 100.853 237 103.496L242.704 103.496C247.051 101.849 257.692 101.898 258.353 99.2384C263.152 98.8468 260.579 100.446 261.205 101.163L262.631 101.163L261.9 101.555L262.631 101.946C263.604 103.17 262.457 103.529 264.056 103.872C263.848 104.72 260.474 104.704 256.927 104.638L256.927 105.797L254.806 105.601C257.345 106.335 255.814 107.412 256.232 108.309L255.119 106.204C251.015 106.433 249.659 106.172 248.407 106.58L246.286 106.384L246.981 106.971C240.409 106.824 238.809 106.498 232.723 106.971C231.088 109.092 238.635 108.701 241.278 109.663C237.313 111.392 243.156 111.719 242.704 113.529C240.13 113.562 239.713 113.056 237 113.138L237.696 112.567C236.966 112.779 236.235 113.007 235.853 113.22C234.462 113.317 232.549 113.317 230.567 112.942L231.297 113.529C224.898 113.595 220.099 113.22 217.074 112.371C214.917 114.231 210.188 115.406 207.093 117.004C202.676 117.086 200.694 115.65 202.815 115.079C201.181 115.014 200.277 115.161 199.964 115.471C195.651 114.884 201.146 113.774 199.964 112.763L202.085 112.583C200.868 112.436 199.512 112.306 198.677 112.224C196.903 111.67 197.912 110.903 198.26 110.267L195.651 110.446C194.017 109.875 194.017 109.467 195.651 108.896L197.808 108.701L195.651 108.505C195.373 108.178 196.208 108.146 197.112 108.113C198.225 104.263 178.993 104.834 170.056 106.58C173.082 110.642 162.058 110.283 162.962 114.688L160.84 114.492L160.145 115.079C155.728 114.59 154.337 113.285 151.625 112.371C156.771 112.828 153.085 111.36 154.476 110.821C156.493 110.055 163.205 109.859 162.996 108.505C157.084 108.701 153.955 109.663 148.738 110.055L147.104 109.484C146.06 110.038 144.6 110.642 143.765 111.033L145.887 110.838L145.887 111.604L143.765 111.8L144.461 112.371C143.209 112.616 141.922 112.844 141.609 112.371C137.297 112.485 139.627 114.41 135.906 114.688L134.236 114.1L131.628 114.296C131.802 113.611 129.889 113.481 130.202 112.746C124.29 112.306 124.638 113.562 120.221 113.513L120.221 111.197C117.126 111.131 115.701 111.507 115.944 112.355C112.675 111.963 112.988 110.577 113.092 109.272C120.674 107.526 127.42 106.514 134.445 105.405L135.141 104.818L134.445 104.247C134.063 103.464 141.748 102.273 141.539 101.539C146.026 101.359 145.295 102.876 148.634 101.93C145.643 100.462 151.59 100.168 155.763 99.6136L155.763 98.8468L157.884 99.0426L157.189 98.4716C163.518 98.2106 159.867 97.4764 161.432 95.7635C157.78 95.0946 151.173 95.2088 148.634 94.2136L148.634 93.8221C144.843 93.9036 140.044 94.3115 136.532 93.6426L135.836 94.2136C133.298 93.871 132.219 93.1369 127.281 93.4305C127.49 92.468 125.055 92.2396 124.429 91.5055C117.3 91.587 113.684 91.7339 111.632 93.8221C115.353 95.2577 120.604 96.2692 125.855 97.297C126.899 98.4879 121.926 98.0474 123.004 99.222C128.185 98.7816 136.74 99.5646 140.114 100.772C136.636 101.767 130.724 102.093 128.707 103.48C131.176 104.198 134.202 102.958 131.559 104.247L129.402 104.687L130.133 105.389C128.498 105.324 127.594 105.47 127.281 105.78C123.247 105.454 125.055 103.562 118.726 103.855L119.456 103.137L117.335 102.681C118.518 102.24 119.213 101.637 118.761 100.756C117.613 100.56 116.466 100.348 114.518 100.364C112.745 101.31 110.971 102.24 110.241 103.447C112.536 103.562 112.71 103.088 114.518 103.056L115.214 103.627L115.944 104.214C114.101 106.025 111.493 107.64 105.963 108.456C106.554 109.19 110.032 109.157 108.815 110.397C105.372 110.234 105.72 111.115 101.721 110.789L100.295 111.947C100.051 111.327 100.851 110.675 102.416 110.218L100.295 110.397C99.008 110.577 97.756 110.74 97.443 111.164C95.4956 110.789 94.5914 110.136 93.1656 109.614C88.8534 109.728 88.0534 110.805 81.7589 110.397C80.6808 109.206 85.6539 109.663 84.6106 108.456C80.5765 108.293 68.9264 109.516 66.1095 107.298L49.0345 107.298L49.0345 104.997C46.1133 105.666 46.2523 104.704 43.3311 105.372C43.2615 106.025 44.4092 106.384 46.1828 106.531C42.0792 106.514 41.9052 107.167 40.4794 109.223C35.9933 109.027 35.4369 109.924 30.5334 109.598C30.7769 108.505 25.7343 108.847 27.6818 107.281C18.3617 108.015 19.579 105.878 13.4584 105.748C18.2575 105.014 20.2049 104.1 17.7358 102.273C19.6137 102.746 19.9614 102.436 22.0132 102.273C19.5441 99.9562 4.90326 98.4553 6.36387 94.9477C5.98133 94.1484 0.0347385 94.8499 0.660712 93.7894C0.417278 92.9411 1.84304 92.5659 4.93813 92.6311C3.33842 92.0438 0.312949 91.8318 0.660712 90.7061L0.278012 90.7061L0.278016 -22.7747L577.391 -22.7746C578.26 -24.977 584.311 -25.7764 593.006 -25.858C594.049 -24.3082 597.909 -23.5251 601.908 -22.7746L1298.41 -22.7746C1298.62 -22.9214 1298.83 -23.0683 1299.24 -23.1661L1300.67 -23.1661L1299.94 -23.7535L1299.24 -24.3244C1297.82 -25.4827 1302.44 -25.0096 1304.95 -25.0912C1304.63 -24.667 1303.35 -24.4876 1302.09 -24.3244L1302.82 -23.7535L1302.09 -23.1661C1302.37 -23.0519 1302.62 -22.9214 1302.79 -22.7746L1379.58 -22.7746C1381.49 -23.3619 1383.02 -24.0471 1386.11 -24.3244C1387.57 -23.7698 1389.1 -23.2967 1390.11 -22.7746L1667.45 -22.7746C1670.41 -23.9492 1672.98 -25.238 1680.81 -25.0912L1680.11 -25.6622L1685.78 -26.0537L1685.09 -25.4664C1687.21 -25.0096 1687.31 -24.0145 1689.36 -23.5414L1691.48 -23.7371L1693.61 -23.5414C1699.9 -23.1172 1700.7 -24.1776 1705.01 -24.3081C1706.23 -23.9981 1706.44 -23.4108 1706.47 -22.7583L1784.72 -22.7583C1784.58 -23.8187 1784.48 -24.8954 1789.03 -24.6833C1790.46 -23.9166 1794.32 -23.8024 1796.16 -23.1335L1796.86 -22.742L1920 -22.742L1920 55.5983C1920 55.5983 1919.86 55.5983 1919.79 55.5983C1916.59 55.7614 1919.76 57.6375 1916.94 57.9149Z" fill="black"/>
<path d="M1901.05 76.2518C1896.91 76.5781 1891.9 76.6433 1887.73 76.2518L1888.42 76.8391C1883.73 78.1116 1885.02 75.795 1879.87 76.0723C1881.61 75.3871 1880.91 74.0331 1884.15 73.7557L1885.57 73.9515L1887 74.1473C1889.78 74.4572 1892.07 75.4687 1889.88 76.056L1901.57 74.914C1901.29 75.2566 1901.33 75.8276 1901.01 76.2681L1901.05 76.2518Z" fill="black"/>
<path d="M1892.74 87.639L1894.86 87.8348L1897.01 87.639C1897.92 88.0306 1900.28 88.0306 1899.86 88.7973L1897.01 88.7973C1897.01 89.1725 1898.75 89.1073 1899.86 89.1889C1899.38 90.0861 1898.4 90.8529 1895.59 91.1139L1894.89 90.5429L1894.2 91.1139C1892.8 91.1139 1893.08 91.587 1892.77 91.8807C1889.88 91.636 1891.83 90.0861 1888.49 89.9556L1889.22 89.3683L1888.49 88.781C1887.83 87.5738 1890.3 86.9212 1892.77 87.6227L1892.74 87.639Z" fill="black"/>
<path d="M1892.74 87.2638C1892.01 86.9539 1891.24 86.6276 1891.31 86.1055C1896 86.0892 1894.72 84.4578 1899.86 84.5557C1902.12 85.2735 1898.54 85.8608 1902.72 86.4971C1901.46 87.0517 1900.59 87.7206 1897.01 87.6554L1895.34 87.0681L1892.74 87.2638Z" fill="black"/>
<path d="M1895.55 93.039C1892.35 92.8106 1897.29 92.4354 1894.16 91.8807L1895.55 91.8807L1895.55 91.4892C1899.1 91.5545 1895.97 92.8106 1895.55 93.039Z" fill="black"/>
<path d="M1380.13 69.8893C1378.64 69.3346 1378.92 68.0295 1380.13 67.1811C1381.8 67.2464 1382.64 67.0996 1382.98 66.7896C1387.64 67.3443 1386.57 67.6543 1385.84 69.1062L1383.68 69.2857L1384.41 69.873C1381.94 69.9545 1380.69 69.2204 1380.13 69.873L1380.13 69.8893Z" fill="black"/>
<path d="M1374.43 79.1394C1382.15 79.0904 1385.52 77.0186 1397.21 77.2143C1397.35 78.1606 1406.04 80.1672 1400.06 80.2977C1409.17 80.5587 1417.8 83.5279 1425.69 85.3224C1420.3 87.2149 1423.32 88.6342 1425.69 90.3472C1423.67 90.3145 1421.66 90.2819 1421.45 90.7224C1416.37 90.0372 1417.41 87.7043 1412.89 86.8723C1408.41 86.6928 1408.86 87.8348 1407.19 88.4058C1405.97 89.6457 1409.45 89.613 1410.04 90.3472C1410.7 91.5544 1406.21 91.3586 1405.76 92.2722C1394.39 87.7695 1379.47 84.2131 1367.3 79.9225L1368.03 79.3352L1367.3 78.7642C1370.57 77.9648 1372.24 79.1557 1374.43 79.1394Z" fill="black"/>
<path d="M1303.24 91.4891L1302.55 92.0765L1303.24 92.6474C1303.24 93.561 1300.77 93.7894 1301.82 94.9641C1297.78 95.2903 1298.13 94.4257 1294.69 94.5725C1293.5 93.4795 1296.7 93.5774 1296.11 92.6311L1298.23 92.1907L1297.54 91.4728L1303.21 91.4728L1303.24 91.4891Z" fill="black"/>
<path d="M1233.48 63.7062C1231.36 63.1189 1231.32 61.977 1226.35 62.1564C1226.73 61.357 1230.14 61.3896 1232.05 60.9981L1233.72 61.5854L1236.33 61.406C1238.31 62.9558 1233.24 62.6132 1233.48 63.7226L1233.48 63.7062Z" fill="black"/>
<path d="M1180.79 76.8228L1175.09 76.8228L1175.79 76.4313L1175.09 76.0397C1177.6 76.1213 1182.22 75.6482 1180.79 76.8065L1180.79 76.8228Z" fill="black"/>
<path d="M1068.29 98.0637L1070.41 98.4553L1072.57 98.8305C1077.37 101.588 1058 105.177 1055.5 100.756C1059.39 101.702 1059.18 99.1894 1059.74 98.0474L1062.35 98.2432L1063.98 97.6722C1066.28 97.558 1066.45 98.0474 1068.26 98.0474L1068.29 98.0637Z" fill="black"/>
<path d="M632.581 56.3649L633.311 55.7939L631.19 55.5982L631.19 54.4399C634.946 54.4399 639.571 54.2278 639.745 55.2066L637.589 55.6634L638.284 56.3812L632.581 56.3812L632.581 56.3649Z" fill="black"/>
<path d="M634.007 58.6978C631.572 58.192 628.408 57.8984 628.303 56.7564L630.459 56.9522L632.581 56.7564C633.798 57.2132 634.459 57.7842 634.007 58.6978Z" fill="black"/>
<path d="M608.377 42.8568L606.255 42.6611L604.134 42.8568C601.074 42.5306 604.656 40.3934 601.282 40.1487C606.047 38.7131 607.021 40.3608 614.115 40.1487L614.81 40.736L616.967 40.9318C615.541 41.9596 611.228 42.2043 608.412 42.8732L608.377 42.8568Z" fill="black"/>
<path d="M555.725 45.1735L550.022 45.1735L550.752 44.5862L548.631 44.7819L548.631 42.4653C552.526 42.4327 551.482 43.1016 554.299 42.4653L555.969 43.0363L558.577 42.8569C560.072 44.2925 555.03 43.9499 555.725 45.1735Z" fill="black"/>
<path d="M409.039 82.6143L410.708 83.2016L413.316 83.0058C414.916 83.8541 417.003 84.5883 416.168 86.1055L414.046 85.9097L413.351 86.497C408.169 85.9586 403.579 85.2898 403.37 83.3973L405.526 83.5931L406.222 83.0058C407.369 82.9405 407.648 82.6143 409.073 82.6143L409.039 82.6143Z" fill="black"/>
<path d="M1177.94 38.9905C1177.73 39.4473 1175.37 39.3167 1173.67 39.382C1174.19 38.8763 1176.17 38.7784 1176.52 38.2237C1178.74 38.3705 1175.27 38.9089 1177.91 38.9905L1177.94 38.9905Z" fill="black"/>
<path d="M1216.37 42.4816C1212.82 41.046 1222.49 40.3608 1216.37 42.4816Z" fill="black"/>
<path d="M1644.99 63.7063C1647.04 65.8434 1654.9 66.4308 1653.51 69.4978C1651.81 69.9383 1648.47 69.922 1644.99 69.8893C1648.74 67.8664 1640.22 66.8386 1637.86 64.4731L1640.95 64.5546L1640.75 63.7226L1645.02 63.7226L1644.99 63.7063Z" fill="black"/>
<path d="M1815.81 81.456C1815.32 82.4838 1808.58 81.8149 1807.26 82.6143C1803.99 82.3044 1809.72 81.2766 1810.11 80.6893C1812.23 80.9014 1813.69 81.2766 1815.78 81.456L1815.81 81.456Z" fill="black"/>
<path d="M312.222 86.8722C312.256 87.2474 313.96 87.1658 315.073 87.2637C314.83 88.993 312.395 90.135 307.979 90.7386L307.283 90.1676L305.162 89.9719C306.831 88.732 305.892 86.8232 312.291 86.8885L312.222 86.8722Z" fill="black"/>
<path d="M336.426 93.0389C335.174 93.7894 335.591 92.6311 333.574 92.6474C329.158 92.1416 337.678 92.1417 336.426 93.0389Z" fill="black"/>
<path d="M708.08 93.4305C705.855 93.3652 706.376 93.1531 705.229 93.0389C696.778 92.1743 720.356 93.8383 708.08 93.4305Z" fill="black"/>
<path d="M259.535 115.813C260.161 115.242 261.344 115.96 263.778 115.813L263.778 116.597C260.613 116.809 261.761 115.846 259.535 115.813Z" fill="black"/>
<path d="M256.684 111.572C258.909 111.115 262.248 110.348 265.239 111.18C266.908 110.299 264.474 110.038 269.481 109.63C268.995 106.922 270.49 104.916 272.333 101.914C274.454 102.485 274.489 103.643 279.462 103.464C280.992 103.366 280.401 102.697 282.314 102.697L283.009 103.268L283.74 102.697C284.992 103.007 286.974 103.121 289.443 103.088L288.747 103.659L290.904 103.855C287.635 104.883 282.766 105.242 289.478 106.172L289.478 107.705C285.131 107.983 285.305 107.053 280.923 107.314C276.68 108.097 276.471 110.707 278.071 111.947C275.741 113.627 272.159 114.981 268.09 116.205L268.09 115.813C267.43 116.221 267.708 117.053 265.795 117.314C264.787 116.972 264.578 116.531 263.813 116.205C264.23 115.96 265.03 115.569 265.934 115.226L263.813 115.422C261.935 115.03 258.562 115.03 256.684 114.655C259.501 113.888 257.588 112.436 256.684 111.555L256.684 111.572Z" fill="black"/>
<path d="M283.74 101.914L283.009 101.343L282.314 101.914C278.002 101.441 283.322 100.446 283.74 99.9887C288.017 100.103 286.383 101.62 283.74 101.914Z" fill="black"/>
<path d="M980.031 100.756C980.379 100.331 982.848 100.495 982.883 99.9725C984.587 100.152 982.5 101.637 987.16 101.898C987.021 102.876 981.874 102.811 980.031 102.289C978.675 101.571 984.309 101 980.031 100.739L980.031 100.756Z" fill="black"/>
<path d="M1294.69 103.855C1294.13 105.34 1293.89 105.372 1290.41 106.563C1289.09 106.286 1291.35 104.752 1287.56 104.247C1287.25 104.133 1290.51 104.671 1294.69 103.855Z" fill="black"/>
<path d="M1089.65 105.78C1091.32 104.671 1091.32 106.4 1089.65 106.547C1088.43 106.612 1088.29 106.4 1088.22 106.156C1084.08 105.307 1090.38 106.629 1089.65 105.78Z" fill="black"/>
<path d="M61.6235 124.688C67.8832 122.861 68.6484 118.065 80.1245 116.596C82.9066 118.538 89.236 119.533 94.3481 120.838C88.5405 123.644 80.6809 125.879 68.7178 127.021L67.9876 126.45L65.8663 126.646C61.9714 126.45 70.248 124.182 61.5887 124.721L61.6235 124.688Z" fill="black"/>
<path d="M144.183 120.071C146.026 119.566 146.026 118.652 144.183 118.146L146.339 117.967L144.183 117.771C146.026 116.221 147.139 117.869 151.312 117.771L150.582 118.342L152.703 118.522C150.512 119.207 150.373 120.447 144.148 120.071L144.183 120.071Z" fill="black"/>
<path d="M115.735 120.447L117.857 120.642L118.552 120.055C118.309 119.712 119.109 119.696 119.978 119.664L119.978 120.055L121.404 120.055C122.273 120.169 126.899 121.018 127.107 120.055C130.202 119.99 127.768 121.425 128.533 121.98C123.351 121.866 119.282 122.045 115.7 122.372L116.431 121.801L114.31 121.605C113.892 120.985 115.631 120.936 115.735 120.447Z" fill="black"/>
<path d="M119.978 118.522L119.283 118.13L118.553 117.755C120.396 117.216 124.743 117.363 128.533 117.363C128.012 118.016 129.646 118.097 131.385 118.146C130.064 119.484 125.299 120.104 121.404 119.696L122.135 119.125L119.978 119.305L119.978 118.538L119.978 118.522Z" fill="black"/>
<path d="M107.18 121.605C110.136 121.442 110.936 121.882 112.884 121.996L112.154 122.388L112.884 122.779L112.884 123.171L109.789 123.106L110.032 123.938C107.737 124.036 107.598 123.579 105.755 123.546L106.45 123.155L105.755 122.763C105.337 122.143 107.076 122.094 107.18 121.605Z" fill="black"/>
<path d="M196.903 120.071C193.147 121.018 188.661 118.946 196.903 120.071Z" fill="black"/>
<path d="M148.46 120.838L148.46 121.605C146.443 121.572 144.426 121.54 144.182 121.996C140.879 122.045 146.965 119.484 148.46 120.838Z" fill="black"/>
<path d="M139.94 125.455L140.948 126.124L142.791 126.63C143.417 126.972 144.043 127.331 145.643 127.413C145.365 127.837 144.217 127.625 144.217 127.413C139.87 127.135 140.044 128.065 135.697 127.788L135.697 125.847C137.992 125.961 138.131 125.488 139.975 125.455L139.94 125.455Z" fill="black"/>
<path d="M292.295 124.313C294.103 124.395 294.138 125.455 292.295 125.455L290.869 125.455L290.869 125.847C288.922 125.732 289.687 124.884 289.443 124.313C290.73 124.541 291.982 124.77 292.295 124.313Z" fill="black"/>
<path d="M1200.72 68.3395C1202.46 70.8192 1211.68 71.2923 1214.95 73.3479C1208.65 75.0609 1197.42 73.0869 1199.3 76.4476C1195.09 76.5128 1190.46 77.4754 1187.92 76.8391C1185.94 76.1865 1189.45 74.702 1192.17 74.131C1190.05 73.299 1188.69 74.4083 1185.04 73.7394C1178.78 70.5908 1194.53 70.8518 1192.17 67.5727C1197.56 66.9201 1198.64 69.3673 1200.69 68.3395L1200.72 68.3395Z" fill="black"/>
<path d="M702.342 98.0637C701.925 100.021 704.568 102.778 696.674 102.697C691.457 101.604 698.134 101.049 695.248 99.6136L697.404 99.4178L696.708 98.8305C701.299 99.3036 697.786 97.5906 702.377 98.0637L702.342 98.0637Z" fill="black"/>
<path d="M588.693 60.4271L591.302 58.6978C590.745 59.2362 589.841 59.693 588.693 60.4271Z" fill="black"/>
<path d="M575.652 65.2398L574.922 64.2772C575.513 64.5546 575.756 64.8808 575.652 65.2398Z" fill="black"/>
<path d="M552.839 66.3981L554.96 68.9104C554.091 68.0947 552.491 67.2953 552.839 66.3981Z" fill="black"/>
<path d="M526.513 67.7684L523.661 67.3769C524.879 67.4421 525.644 67.6216 526.513 67.7684Z" fill="black"/>
<path d="M1523.24 69.6935C1524.7 69.6935 1525.78 69.7914 1526.82 69.8893L1523.24 69.6935Z" fill="black"/>
<path d="M1916.21 72.7768C1917.11 72.4016 1918.47 72.2058 1920 72.059L1920 72.2874L1916.21 72.7768Z" fill="black"/>
<path d="M1425.38 73.6089L1425.65 75.0935C1425.17 74.5715 1425.1 74.0657 1425.38 73.6089Z" fill="black"/>
<path d="M525.088 75.485L530.791 76.627C529.434 76.4965 527.418 76.0723 525.088 75.485Z" fill="black"/>
<path d="M588.45 79.9224L594.849 82.4348C592.136 81.9617 588.867 81.717 587.337 80.8686C587.476 80.6239 588.241 80.2161 588.485 79.9224L588.45 79.9224Z" fill="black"/>
<path d="M495.91 84.3599L495.214 85.5182C495.214 84.9798 495.736 84.6535 495.91 84.3599Z" fill="black"/>
<path d="M426.114 86.4807L428.235 87.0517C427.296 86.9211 426.531 86.7417 426.114 86.4807Z" fill="black"/>
<path d="M1218.53 86.6765L1188.62 86.497C1198.6 86.1871 1208.65 86.2686 1218.53 86.6765Z" fill="black"/>
<path d="M896.742 89.3846L891.039 88.9931C893.229 88.7973 895.107 89.1236 896.742 89.3846Z" fill="black"/>
<path d="M388.382 93.2347L389.112 95.1597C388.556 94.5235 388.416 93.8709 388.382 93.2347Z" fill="black"/>
<path d="M406.917 90.1514C404.935 90.1024 403.162 89.8251 401.214 89.7598L406.917 90.1514Z" fill="black"/>
<path d="M711.627 90.1514L714.444 89.7598C713.575 89.9067 712.81 90.0208 711.627 90.1514Z" fill="black"/>
<path d="M549.292 91.7012L556.421 91.897C554.021 91.8807 551.691 91.9133 549.292 91.7012Z" fill="black"/>
<path d="M566.367 92.0764L573.948 92.7127C571.062 92.7127 568.94 92.3048 566.367 92.0764Z" fill="black"/>
<path d="M442.285 92.9574L433.973 92.468C436.756 92.6311 439.642 92.6311 442.285 92.9574Z" fill="black"/>
<path d="M281.618 95.1598L280.193 94.393C280.958 94.5725 281.688 94.7519 281.618 95.1598Z" fill="black"/>
<path d="M291.564 95.5513L291.564 96.7096C291.044 96.3181 291.044 96.0081 291.564 95.5513Z" fill="black"/>
<path d="M324.324 97.8679C324.985 97.6232 325.923 97.5253 326.897 97.4274L324.324 97.8679Z" fill="black"/>
<path d="M326.897 97.4274L329.575 96.9706C328.914 97.2317 327.906 97.3295 326.897 97.4274Z" fill="black"/>
<path d="M1818.7 96.9544C1819.18 97.1665 1819.22 97.5417 1819.39 97.8843L1816.54 96.5302C1817.13 96.726 1817.86 96.8402 1818.7 96.9544Z" fill="black"/>
<path d="M953.427 100.364L958.539 101.571C956.279 101.343 954.888 100.837 953.427 100.364Z" fill="black"/>
<path d="M949.428 99.4178C951.097 99.6136 952.28 99.9888 953.427 100.364L949.428 99.4178Z" fill="black"/>
<path d="M966.642 100.756C966.816 101.506 965.842 102.256 964.834 102.436C962.26 102.648 959.165 102.338 958.504 101.571C960 101.196 961.982 101.147 963.895 101.033L966.642 100.756Z" fill="black"/>
<path d="M977.91 98.4879C974.223 99.1567 970.015 99.8746 966.642 100.772L977.145 97.6885C977.318 97.9332 977.631 98.2105 977.91 98.5042L977.91 98.4879Z" fill="black"/>
<path d="M404.518 104.671C405.527 105.275 408.1 105.65 408.309 106.351L398.919 104.622C400.727 104.622 402.64 104.573 404.518 104.671Z" fill="black"/>
<path d="M398.919 104.622L397.632 106.172C397.354 105.617 398.223 105.111 398.919 104.622Z" fill="black"/>
<path d="M398.919 104.622L394.085 100.576C395.963 101.914 398.675 103.17 398.919 104.622Z" fill="black"/>
<path d="M756.489 104.818L759.341 103.48C758.471 103.872 757.602 104.41 756.489 104.818Z" fill="black"/>
<path d="M332.844 108.684C333.4 108.423 333.609 108.178 334.27 107.917L332.844 108.684Z" fill="black"/>
<path d="M348.528 118.717L344.251 118.717C345.711 118.538 346.894 118.701 348.528 118.717Z" fill="black"/>
<path d="M342.129 117.951L340.147 116.335C341.155 116.841 342.651 117.265 342.129 117.951Z" fill="black"/>
<path d="M340.147 116.335C339.73 116.123 339.382 115.895 339.278 115.634L340.147 116.335Z" fill="black"/>
<path d="M680.989 117.951L685.962 121.425C682.311 120.528 681.859 119.174 680.989 117.951Z" fill="black"/>
<path d="M172.421 119.664C171.621 119.892 169.882 119.941 169.117 120.251L172.421 118.962C172.525 119.158 172.595 119.403 172.421 119.664Z" fill="black"/>
<path d="M306.518 124.117L308.674 124.884C307.979 124.639 307.005 124.378 306.518 124.117Z" fill="black"/>
<path d="M1894.86 90.543L1895.55 91.897C1894.93 91.4729 1894.96 90.9508 1894.86 90.543Z" fill="black"/>
<path d="M1813.69 74.7183L1808.19 74.6041C1810.59 74.6857 1812.4 74.4899 1813.69 74.7183Z" fill="black"/>
<path d="M1745.32 93.6263L1744.62 91.8807C1745.42 92.3049 1745.39 92.9575 1745.32 93.6263Z" fill="black"/>
<path d="M1735.41 92.8595L1741.11 91.3097C1738.89 91.9133 1737.84 92.6801 1737.46 93.0064C1736.9 92.9411 1736.28 92.8759 1735.41 92.8595Z" fill="black"/>
<path d="M1617.17 56.4302C1621.06 56.3976 1623.78 56.9849 1627.15 57.3275L1617.17 56.4302Z" fill="black"/>
<path d="M1493.33 65.8271L1487.66 64.2936C1490.69 64.3588 1493.71 64.8972 1493.33 65.8271Z" fill="black"/>
<path d="M1444.19 62.548C1443.46 63.0863 1442.8 63.5268 1441.34 63.902L1444.19 62.548Z" fill="black"/>
<path d="M1446.35 67.3606L1446.35 65.8108C1447.11 66.1697 1447.25 66.806 1446.35 67.3606Z" fill="black"/>
<path d="M1383.68 69.302L1393.66 69.302C1390.53 69.612 1386.81 69.5793 1383.68 69.302Z" fill="black"/>
<path d="M1334.54 79.1394L1333.85 77.8016C1334.44 78.2911 1334.68 78.8131 1334.54 79.1394Z" fill="black"/>
<path d="M1291.87 81.456L1295.42 81.6518C1294.17 81.6028 1292.77 81.5865 1291.87 81.456Z" fill="black"/>
<path d="M1302.51 92.0764L1304.67 91.4891C1304.15 91.6849 1303.94 91.8644 1302.51 92.0764Z" fill="black"/>
<path d="M1291.42 90.4614L1298.23 92.207C1295.07 91.897 1293.44 91.1139 1291.42 90.4614Z" fill="black"/>
<path d="M1234.18 60.4271C1234.07 60.8187 1234.04 61.1939 1233.73 61.5854L1234.18 60.4271Z" fill="black"/>
<path d="M1203.33 48.1916L1202.11 48.8442C1202.15 48.5342 1202.74 48.3874 1203.33 48.1916Z" fill="black"/>
<path d="M1236.33 39.382L1234.18 40.3445C1234.66 39.953 1235.64 39.6593 1236.33 39.382Z" fill="black"/>
<path d="M1208.55 34.9445L1199.99 36.2986C1202.29 35.6297 1205.45 35.2545 1208.55 34.9445Z" fill="black"/>
<path d="M1151.79 38.3052C1153.46 38.5336 1154.12 38.8762 1155.13 39.2025L1151.79 38.3052Z" fill="black"/>
<path d="M1171.54 75.8602L1175.82 76.4475C1174.99 76.3986 1173.25 76.2028 1171.54 75.8602Z" fill="black"/>
<path d="M1072.5 97.0033C1074.24 96.726 1076.95 96.6607 1078 96.987C1077.72 97.9006 1073.54 98.4226 1070.45 98.4389C1070.66 97.7211 1071.35 97.3622 1072.5 97.0033Z" fill="black"/>
<path d="M1058.56 96.7097L1062.38 98.2595C1061.2 97.7538 1059.56 97.2317 1058.56 96.7097Z" fill="black"/>
<path d="M1012.06 88.6015C1011.54 89.3683 1009.42 89.9556 1007.09 90.3471L1012.06 88.6015Z" fill="black"/>
<path d="M856.853 99.793C859.357 100.543 861.131 101.522 862.557 102.485L856.853 99.793Z" fill="black"/>
<path d="M644.683 55.4023C642.318 55.5002 639.954 55.7286 637.554 55.6471L644.683 55.4023Z" fill="black"/>
<path d="M633.311 55.7939L630.46 56.9522C631.294 56.4464 632.338 56.1691 633.311 55.7939Z" fill="black"/>
<path d="M618.844 39.6429L614.775 40.7523C615.888 40.3118 617.349 39.9692 618.844 39.6429Z" fill="black"/>
<path d="M627.608 37.2611C625.869 38.3215 622.183 38.9251 618.845 39.643L627.608 37.2611Z" fill="black"/>
<path d="M551.448 51.7317L549.326 51.5359L548.631 52.1232C546.092 52.0253 541.502 52.5147 542.928 51.3564L545.049 50.8997L544.353 50.1981C549.013 48.6483 541.05 47.2616 542.928 45.1897C544.075 45.3855 545.223 45.5813 547.205 45.5649L547.901 46.1523C548.005 45.8097 548.04 45.516 548.353 45.0592C549.048 44.9287 549.709 44.7819 550.787 44.6024L548.84 45.6465C553.082 46.9843 554.056 49.6435 551.483 51.748L551.448 51.7317Z" fill="black"/>
<path d="M549.292 51.5359L551.413 52.5148C550.474 52.1885 550.022 51.8949 549.292 51.5359Z" fill="black"/>
<path d="M545.014 50.8997C543.275 50.5082 542.753 50.1819 541.467 49.6272L545.014 50.8997Z" fill="black"/>
<path d="M559.725 41.1112L555.934 43.0526C557.047 42.2695 558.542 41.7801 559.725 41.1112Z" fill="black"/>
<path d="M512.29 47.6858L510.446 51.6338C510.829 50.3287 510.933 49.0562 512.29 47.6858Z" fill="black"/>
<path d="M510.447 51.6338C510.273 52.3516 509.995 53.0694 509.438 53.8525L510.447 51.6338Z" fill="black"/>
<path d="M512.498 70.6724C514.446 71.1618 516.463 71.6186 516.95 72.3364L512.498 70.6724Z" fill="black"/>
<path d="M509.021 69.3509L512.499 70.6723C511.038 70.2971 509.647 69.9056 509.021 69.3509Z" fill="black"/>
<path d="M457.691 69.6935C460.577 70.3787 462.977 71.1781 465.272 72.0101L457.691 69.6935Z" fill="black"/>
<path d="M414.012 85.8934C416.099 86.5949 417.559 87.378 418.29 88.21L414.012 85.8934Z" fill="black"/>
<path d="M399.788 80.8849L405.492 83.5931C403.162 82.6958 399.788 82.0922 399.788 80.8849Z" fill="black"/>
<path d="M382.713 80.4934L383.409 79.7266C383.27 79.9876 383.096 80.2324 382.713 80.4934Z" fill="black"/>
<path d="M261.657 101.539L264.509 101.359C263.639 101.457 262.874 101.555 261.657 101.539Z" fill="black"/>
<path d="M246.007 106.368L252.406 107.33C250.181 107.036 247.433 107.02 246.007 106.368Z" fill="black"/>
<path d="M161.431 115.634L160.562 114.459C161.223 114.835 161.292 115.226 161.431 115.634Z" fill="black"/>
<path d="M161.433 115.634L161.988 116.401C161.641 116.156 161.502 115.879 161.433 115.634Z" fill="black"/>
<path d="M157.71 99.0262C157.084 98.7652 156.458 98.5205 156.284 98.2595L157.71 99.0262Z" fill="black"/>
<path d="M520.81 57.3274C517.437 56.4791 520.01 55.3045 519.384 54.2441L520.81 57.3274Z" fill="black"/>
<path d="M1640.92 64.5383C1638.76 63.9999 1636.75 63.4616 1635.7 62.7274L1640.92 64.5383Z" fill="black"/>
<path d="M1896.7 80.5424C1898.4 80.0856 1900.7 79.8409 1902.72 79.5309L1896.7 80.5424Z" fill="black"/>
<path d="M307.249 90.1514L304.919 91.6196C305.475 91.0976 305.962 90.5755 307.249 90.1514Z" fill="black"/>
<path d="M304.918 91.6196C304.466 92.0438 304.014 92.4843 302.971 92.8595L304.918 91.6196Z" fill="black"/>
<path d="M1362.78 93.1042L1366.6 93.2348C1365.28 93.1858 1363.65 93.1858 1362.78 93.1042Z" fill="black"/>
<path d="M1745.32 103.659L1748.17 100.185C1749.67 101.212 1750.64 102.256 1751.33 103.317C1750.12 103.659 1749.14 103.855 1746.78 103.937C1746.29 103.839 1745.81 103.757 1745.32 103.659Z" fill="black"/>
<path d="M288.713 103.659C290.174 103.529 291.217 103.513 292.295 103.464L288.713 103.659Z" fill="black"/>
<path d="M295.842 106.172L289.443 106.955C291.39 106.547 293.129 106.009 295.842 106.172Z" fill="black"/>
<path d="M290.869 108.684L289.443 106.955C290.765 107.379 290.765 108.064 290.869 108.684Z" fill="black"/>
<path d="M809.175 106.743L811.54 105.454C810.983 105.911 810.67 106.384 809.175 106.743Z" fill="black"/>
<path d="M811.54 105.454C811.783 105.242 812.131 105.014 812.722 104.818L811.54 105.454Z" fill="black"/>
<path d="M64.2315 128C62.3188 127.902 61.2408 127.38 59.502 127.201L68.0222 126.434C67.3267 127.054 66.5267 127.69 64.2315 128Z" fill="black"/>
<path d="M146.338 117.951C144.495 117.934 141.504 117.967 139.94 117.755L146.338 117.951Z" fill="black"/>
<path d="M153.885 117.918C153.085 118.097 152.146 118.228 150.616 118.326L154.163 117.559C154.059 117.673 153.955 117.804 153.85 117.918L153.885 117.918Z" fill="black"/>
<path d="M119.978 120.071C120.396 119.827 121.196 119.451 122.135 119.109L119.978 120.071Z" fill="black"/>
<path d="M113.788 118.375C114.622 118.114 117.022 118.146 119.282 118.13L113.614 118.717C113.683 118.603 113.753 118.505 113.788 118.375Z" fill="black"/>
<path d="M109.788 123.089L113.614 123.726C112.153 123.612 110.971 123.302 109.788 123.089Z" fill="black"/>
<path d="M112.153 122.388C113.405 122.192 114.796 122.013 116.431 121.817L112.153 122.388Z" fill="black"/>
<path d="M195.756 122.453C195.06 122.535 194.4 122.6 193.322 122.584L195.443 121.23C195.513 121.54 196.173 121.768 195.721 122.47L195.756 122.453Z" fill="black"/>
<path d="M166.265 123.726C166.023 123.497 165.989 123.285 166.265 122.959L166.265 123.726Z" fill="black"/>
<path d="M145.191 125.422C144.217 125.618 141.957 125.879 140.913 126.124L146.338 124.117C146.095 124.737 145.573 125.145 145.191 125.422Z" fill="black"/>
<path d="M291.599 125.944L292.99 126.825C292.295 126.499 291.947 126.205 291.599 125.944Z" fill="black"/>
<path d="M697.369 99.4177L693.822 99.222C694.761 99.222 696.117 99.3199 697.369 99.4177Z" fill="black"/>
</g>
<defs>
<clipPath id="clip0_174_980">
<rect width="155" height="1920" fill="white" transform="translate(1920 -27) rotate(90)"/>
</clipPath>
</defs>
</svg>
