<svg width="213" height="114" viewBox="0 0 213 114" fill="none" xmlns="http://www.w3.org/2000/svg">
<g id="Group 1171275975">
<path id="Exclude" fill-rule="evenodd" clip-rule="evenodd" d="M39.9071 47.621L35.8782 23.0327L5.4874 25.9162L8.33606 56.8192L0 60.6275L3.63524 75.6877L8.33606 74.1043V94.0042H52.6631H72.3166V113.391H101.935H120.02L121.406 94.0042H151.387L167.007 102.009L169.856 94.0042H184.362L183.993 111.297L193.826 113.382L212.865 111.297L208.702 68.9334L206.778 41.4687L176.438 41.6602H173.519L173.142 37.2381H153.573L151.387 41.6602L101.935 41.1915V26.3086L76.1971 22.198L71.3548 46.1077L39.9071 47.621ZM117.218 75.6262C117.336 75.7581 117.456 75.8963 117.577 76.0345C117.697 76.1726 117.818 76.3108 117.936 76.4426L118.13 76.4171C116.761 74.6313 115.469 72.7944 114.252 71.0341C114.227 71.0469 114.208 71.066 114.187 71.0873C114.166 71.1085 114.142 71.1319 114.109 71.1532V71.0341L114.058 71.1106L114.151 71.2297L114.201 71.2042L114.151 71.2552L114.489 71.7144C114.756 72.1231 115.029 72.5319 115.325 72.9757C115.589 73.3722 115.872 73.7966 116.187 74.2741C116.331 74.4697 116.694 74.9459 117.218 75.6262ZM125.624 84.4788C124.881 83.8495 124.163 83.2032 123.445 82.4974L122.963 82.5229L123.056 82.6164L122.862 82.7865C123.108 83.0714 123.353 83.3523 123.598 83.6329C123.974 84.0643 124.35 84.4949 124.729 84.938C125.709 86.0265 126.647 87.0895 127.576 88.1695L127.314 88.4076L127.289 88.3821C126.573 87.5883 125.862 86.7787 125.149 85.9658L125.147 85.9638C124.952 85.7411 124.756 85.5181 124.56 85.2952L123.242 83.824C123.935 84.938 124.34 85.7799 124.18 85.9925C123.943 86.2561 123.098 85.7969 121.375 84.2832L121.134 84.0597L121.133 84.0592C120.665 83.6252 120.198 83.1927 119.744 82.7355L112.537 83.1692L107.941 84.0111H103.15L103.1 84.1046C103.007 84.1982 102.931 84.3002 102.863 84.3938C102.825 84.4405 102.789 84.4958 102.753 84.5511C102.717 84.6064 102.681 84.6616 102.643 84.7084C102.626 84.7902 102.7 84.9762 102.74 85.0765C102.758 85.1222 102.77 85.1501 102.762 85.1421C102.762 85.1421 102.424 85.0231 102.381 85.1166C102.36 85.1433 102.337 85.1687 102.313 85.194C102.256 85.2574 102.198 85.3207 102.162 85.4057C102.149 85.4184 102.137 85.4302 102.125 85.4414C102.112 85.4531 102.099 85.4642 102.087 85.4752C102.039 85.5178 101.992 85.5592 101.942 85.6268C101.926 85.6425 101.909 85.6622 101.891 85.6834C101.849 85.7313 101.8 85.7871 101.748 85.8224C101.655 85.899 101.528 85.899 101.435 85.8479C101.317 85.7714 101.072 85.6268 100.886 85.6779C100.84 85.6962 100.801 85.7119 100.767 85.7254C100.664 85.7671 100.614 85.7873 100.562 85.795C100.514 85.8022 100.464 85.7985 100.367 85.7913C100.29 85.7856 100.183 85.7777 100.024 85.7714C99.9523 85.8905 99.8932 86.018 99.8341 86.1456C99.7749 86.2731 99.7158 86.4007 99.644 86.5197C99.644 86.5232 99.6444 86.5329 99.6451 86.547C99.6495 86.6358 99.6624 86.9001 99.6186 86.8854C99.5426 86.8344 99.3567 87.149 99.3567 87.2001C99.3451 87.2351 99.3282 87.263 99.3116 87.2903C99.2947 87.3183 99.2781 87.3456 99.268 87.3793C99.1781 87.534 99.0694 87.8038 99.0694 87.8038C99.0517 87.7384 99.0133 87.802 98.9831 87.8519C98.9738 87.8674 98.9653 87.8815 98.9584 87.8901L99.0018 87.8464C99.0084 87.8707 99.0133 87.8922 99.0169 87.9081C99.0272 87.9532 99.0272 87.9532 99.0272 87.8464C99.0399 87.8336 99.0525 87.8272 99.0652 87.8209C99.0734 87.8167 99.0817 87.8126 99.0899 87.8066C99.0944 87.8035 99.0988 87.7998 99.1032 87.7953C99.0905 87.8208 99.0842 87.8442 99.0779 87.8676C99.0715 87.891 99.0652 87.9144 99.0525 87.9399C99.0525 87.9399 99.0018 87.9399 99.0018 87.9654C99.0809 87.9885 99.2561 87.9907 99.4596 87.9932C99.9307 87.9991 100.554 88.0069 100.489 88.2801L100.463 88.3311L100.438 88.3821C99.8071 88.1902 99.4081 88.0885 99.166 88.0267C98.9238 87.965 98.8384 87.9432 98.8343 87.9112C98.8321 87.8937 98.854 87.8732 98.8879 87.8415C98.9252 87.8065 98.9771 87.7579 99.0272 87.6848C99.0272 87.6848 99.1032 87.5402 99.0525 87.5147C99.0421 87.5147 99.036 87.519 99.0324 87.5223C99.03 87.5245 99.0287 87.5262 99.028 87.526C99.0272 87.5258 99.0272 87.5228 99.0272 87.5147C99.0104 87.4978 98.9936 87.5145 98.9916 87.5128C98.9905 87.512 98.9933 87.5064 99.0018 87.4892C99.0226 87.4509 99.0547 87.4282 99.0837 87.4078C99.1254 87.3785 99.1604 87.3538 99.1455 87.2936C99.1455 87.2751 99.1388 87.2577 99.1327 87.2419C99.122 87.214 99.1131 87.1908 99.1455 87.1745C99.1927 87.1354 99.2189 87.1165 99.2355 87.1045C99.2467 87.0964 99.2535 87.0915 99.2595 87.0857C99.2689 87.0765 99.2762 87.065 99.2949 87.0353C99.3004 87.0266 99.3067 87.0165 99.3144 87.0045C99.3144 86.9534 99.3651 86.8854 99.3905 86.8599C99.4191 86.8312 99.4154 86.8267 99.4068 86.8161C99.4002 86.8079 99.3905 86.7961 99.3905 86.7664C99.3905 86.7002 99.4634 86.6263 99.5327 86.5561C99.5881 86.4999 99.6411 86.4461 99.6524 86.4007C99.6524 86.3895 99.6513 86.3674 99.6498 86.338L99.6498 86.3374C99.6413 86.166 99.6204 85.7459 99.7284 85.7459C99.7031 85.7714 99.7284 85.8224 99.7538 85.8394C99.7791 85.8139 99.7791 85.7884 99.7791 85.7459H99.7284C99.7284 85.7459 99.7538 85.7204 99.7791 85.7204C99.7719 85.6936 99.7667 85.664 99.7614 85.6339C99.7483 85.5587 99.7344 85.4798 99.6862 85.4312C99.5819 85.2576 99.5385 85.1012 99.4964 84.9493C99.4499 84.7814 99.4049 84.6189 99.2807 84.4448C99.2807 84.4448 99.3313 84.3938 99.3989 84.3002L95.0139 84.7594C94.7267 84.785 94.4648 84.6829 94.2451 84.4958C94.0254 84.3002 93.9325 84.0366 93.9578 83.7475L94.2451 77.1569V54.6641C94.2451 54.4005 94.338 54.1538 94.5577 53.9668C94.7774 53.7712 95.0139 53.6776 95.3012 53.7031L97.5571 53.9412C97.2858 53.6182 97.017 53.2879 96.7455 52.9541L96.7449 52.9535L96.744 52.9523C96.5084 52.6628 96.2709 52.3709 96.0278 52.0789C95.3097 51.237 95.0731 50.6077 95.3097 50.0039C95.5293 49.4257 96.2221 48.9154 97.3712 48.2691L97.4641 48.2436C99.3313 48.3627 100.7 48.9154 101.773 49.7148C102.542 50.0294 102.871 50.225 102.922 50.3441C102.973 50.4887 102.922 50.5652 102.804 50.6077C103.716 51.5516 104.46 52.6827 105.22 53.8647C105.347 54.0814 105.488 54.2982 105.629 54.5149L105.629 54.5153C105.676 54.5875 105.723 54.6598 105.769 54.7321L105.82 54.7831L122.49 56.4924C122.566 56.3734 122.659 56.2543 122.752 56.1778C122.862 56.1055 122.969 56.0332 123.077 55.9608C123.133 55.9232 123.189 55.8856 123.246 55.848C123.298 55.8134 123.35 55.7787 123.402 55.7441C123.426 55.7012 123.444 55.6619 123.46 55.6253C123.48 55.5821 123.498 55.5428 123.521 55.506C123.359 55.5839 123.203 55.65 123.028 55.724L122.921 55.7696C122.895 55.6931 123.115 55.5315 123.157 55.506C123.132 55.4804 123.107 55.4804 123.081 55.4804C123.073 55.4424 123.061 55.4234 123.052 55.4105C123.048 55.4034 123.044 55.3981 123.043 55.3924C123.041 55.3764 123.06 55.3574 123.132 55.2849C123.29 55.1255 123.286 55.192 123.279 55.3002L123.279 55.3005C123.277 55.325 123.276 55.3517 123.276 55.3784C123.384 55.3195 123.485 55.2648 123.585 55.2101L123.588 55.2085L123.592 55.2065C123.692 55.1518 123.792 55.0971 123.901 55.0382C123.939 54.9915 123.975 54.9426 124.011 54.8938L124.011 54.8936C124.047 54.8448 124.082 54.7959 124.12 54.7491C124.264 54.6045 124.433 54.3664 124.526 54.2219C124.619 54.0773 124.72 53.9327 124.813 53.8137C124.834 53.7887 124.855 53.7612 124.878 53.7326L124.878 53.7323C124.939 53.6541 125.007 53.5675 125.075 53.499C125.098 53.4638 125.12 53.4285 125.141 53.393C125.194 53.3087 125.246 53.2232 125.312 53.1334C125.337 53.0143 125.092 52.6061 125.092 52.6231C125.092 52.6231 125.548 52.7932 125.616 52.6997C125.66 52.6313 125.717 52.5685 125.771 52.5098C125.811 52.4662 125.849 52.4249 125.878 52.385C125.924 52.3126 125.977 52.2748 126.032 52.2352C126.067 52.2097 126.103 52.1835 126.14 52.1469C126.158 52.1285 126.177 52.1077 126.197 52.086L126.197 52.086C126.261 52.0175 126.331 51.9411 126.402 51.9088C126.495 51.8323 126.689 51.8578 126.782 51.9088C126.951 52.0279 127.289 52.2234 127.525 52.1724C127.592 52.1518 127.647 52.134 127.694 52.1189C127.819 52.0787 127.884 52.0578 127.95 52.0526C128.022 52.0469 128.096 52.0599 128.25 52.0872C128.338 52.1028 128.452 52.1229 128.607 52.1469C128.704 52.0024 128.799 51.8642 128.894 51.726C128.989 51.5878 129.084 51.4496 129.181 51.305C129.181 51.305 129.156 50.7948 129.257 50.8458C129.35 50.9056 129.68 50.4874 129.852 50.2695L129.852 50.2694C129.9 50.2085 129.936 50.1633 129.95 50.1485C129.976 50.0975 130.001 50.072 130.026 50.055C130.064 49.9851 130.111 49.9247 130.154 49.8703C130.16 49.8626 130.166 49.8551 130.172 49.8476C130.18 49.8372 130.188 49.8269 130.195 49.8168C130.228 49.784 130.25 49.7547 130.273 49.7244C130.286 49.7076 130.299 49.6905 130.314 49.6723C130.321 49.6723 130.345 49.662 130.372 49.6498C130.439 49.6207 130.53 49.5807 130.483 49.6468C130.508 49.6468 130.457 49.6978 130.457 49.6978C130.406 49.7913 130.221 49.9614 130.221 49.9614C130.221 49.9614 130.102 50.157 130.145 50.1825C130.157 50.1825 130.164 50.1761 130.167 50.1729C130.168 50.1718 130.169 50.171 130.169 50.1712C130.17 50.1714 130.17 50.1744 130.17 50.1825C130.183 50.1953 130.195 50.1889 130.202 50.1857C130.204 50.1847 130.205 50.184 130.206 50.1844C130.206 50.185 130.205 50.1883 130.201 50.1972L130.195 50.208C130.145 50.2689 130.096 50.292 130.056 50.3105C130.001 50.336 129.966 50.3526 129.976 50.4461V50.5227C129.991 50.5801 129.933 50.6023 129.865 50.6285C129.822 50.6451 129.775 50.6632 129.739 50.6927C129.714 50.7693 129.646 50.8628 129.57 50.9309C129.527 50.9596 129.533 50.9641 129.546 50.9746C129.556 50.9828 129.57 50.9947 129.57 51.0244C129.552 51.0929 129.533 51.1112 129.508 51.1361C129.499 51.1453 129.488 51.1553 129.477 51.169C129.439 51.1945 129.41 51.2242 129.38 51.254C129.35 51.2838 129.321 51.3135 129.283 51.339C129.232 51.3646 129.207 51.3901 129.19 51.4156V51.3901C129.19 51.3901 129.165 51.4411 129.139 51.4666C129.155 51.4666 129.161 51.4569 129.169 51.4434C129.174 51.4351 129.18 51.4253 129.19 51.4156L129.19 51.4486C129.193 51.6106 129.203 52.2149 129.072 52.2149C129.135 52.1507 129.009 52.0564 128.936 52.0027C128.923 51.9924 128.911 51.9837 128.903 51.9768C128.89 52.0152 128.877 52.0514 128.864 52.0877C128.852 52.1237 128.839 52.1598 128.827 52.1979C128.866 52.1979 128.909 52.2047 128.952 52.2113C128.992 52.2174 129.03 52.2235 129.063 52.2235C129.042 52.2446 129.016 52.2632 128.99 52.2815C128.923 52.3294 128.857 52.3754 128.894 52.4616C128.911 52.5118 128.884 52.5584 128.856 52.6061C128.842 52.6311 128.827 52.6564 128.818 52.6827C128.818 52.6944 128.818 52.7217 128.817 52.7596V52.7598C128.812 52.969 128.801 53.499 128.843 53.499C128.843 53.499 128.463 53.9327 128.505 54.0093C128.576 54.0993 128.39 54.3302 128.262 54.489L128.262 54.4891C128.221 54.5403 128.186 54.584 128.168 54.6131C128.14 54.6499 128.113 54.6859 128.087 54.7214L128.087 54.7216C127.971 54.8744 127.863 55.0189 127.787 55.1913C127.743 55.2756 127.595 55.4349 127.452 55.5902C127.349 55.7014 127.247 55.8106 127.187 55.8886C127.044 56.0587 126.9 56.2267 126.757 56.3946C126.613 56.5626 126.469 56.7305 126.326 56.9006L130.88 57.3853C131.361 57.4364 131.741 57.8445 131.741 58.3548V81.0857C131.741 81.596 131.336 82.0042 130.829 82.0552L127.28 82.2763L127.762 82.7865L127.542 82.9821L128.455 84.0451L128.505 84.0706L128.244 84.3342V84.3087H128.218C128.084 84.1621 127.945 84.0006 127.796 83.8279L127.796 83.8277C127.625 83.6298 127.441 83.4171 127.238 83.1947C127.134 83.0695 127.02 82.9385 126.901 82.8018C126.77 82.6507 126.632 82.4925 126.495 82.3273H126.402C126.664 82.6164 126.928 82.912 127.192 83.2075C127.456 83.503 127.72 83.7985 127.982 84.0876C129.325 85.5843 130.643 87.0555 131.86 88.4756L131.598 88.7138L131.547 88.6372C131.078 88.1184 130.611 87.5995 130.144 87.0807C129.678 86.5621 129.211 86.0434 128.742 85.5248L128.505 85.7459H128.48C127.787 84.972 127.069 84.1557 126.351 83.3308L126.275 83.3818C126.706 84.1301 126.942 84.6829 126.824 84.853C126.655 85.0741 126.3 84.972 125.624 84.4873H125.599L125.624 84.4788ZM99.268 87.3793C99.2752 87.3669 99.2822 87.3553 99.2891 87.3446L99.2637 87.3956C99.265 87.39 99.2664 87.3846 99.268 87.3793ZM110.847 62.105L111.996 63.7718L112.951 65.1494L113.095 65.3419L113.095 65.342C113.335 65.6627 113.578 65.9873 113.838 66.3059C113.867 66.2551 113.896 66.2045 113.925 66.1542C113.964 66.0869 114.003 66.0202 114.041 65.9539L114.041 65.9537C114.233 65.622 114.419 65.3007 114.582 64.9793C114.582 64.9578 114.573 64.959 114.566 64.9599C114.557 64.9611 114.552 64.9617 114.582 64.9028C114.688 64.75 114.74 64.7139 114.872 64.6217L114.872 64.6217L114.92 64.5881C114.933 64.602 114.94 64.6232 114.947 64.6466C114.952 64.6664 114.959 64.6877 114.97 64.7072C114.981 64.6737 114.997 64.6418 115.013 64.6102C115.034 64.5695 115.054 64.5291 115.063 64.4861C115.052 64.4752 115.037 64.4642 115.021 64.4533L115.021 64.4533C115.001 64.4387 114.98 64.4241 114.97 64.4096C114.92 64.4351 114.877 64.4606 114.827 64.5031C114.827 64.4521 114.945 64.282 114.996 64.265C115.046 64.214 115.072 64.1885 115.114 64.1715C115.114 64.197 115.139 64.2225 115.165 64.2225C115.283 64.0014 115.359 63.8823 115.545 63.6952C115.552 63.6804 115.562 63.6663 115.572 63.6525C115.577 63.6453 115.583 63.6382 115.588 63.6312C115.608 63.605 115.628 63.5792 115.638 63.5507V63.7207C115.638 63.7207 115.731 63.6017 115.781 63.5252C115.832 63.4316 116.145 63.0659 116.238 62.9724C116.333 62.8936 116.606 62.7587 116.772 62.6767C116.857 62.6349 116.914 62.6067 116.905 62.6067C116.981 62.6067 117.023 62.6067 117.099 62.5812L110.847 62.0965V62.105ZM120.753 75.6683L120.753 75.6688L120.753 75.669C120.843 75.7823 120.937 75.9013 121.037 76.0259L121.113 76.0004C121.031 75.9099 120.949 75.8194 120.867 75.7286C120.709 75.5548 120.55 75.3798 120.395 75.201L120.386 75.2095C120.501 75.3505 120.622 75.5035 120.753 75.6683ZM105.333 64.4813L105.332 64.4804L105.332 64.48C104.924 63.9029 104.521 63.3333 104.147 62.7853C103.975 62.5404 103.802 62.2862 103.63 62.0321C103.515 61.8627 103.4 61.6934 103.285 61.5267L102.398 61.4502L101.562 61.9604V77.259C101.562 77.3355 101.587 77.378 101.638 77.4291C101.689 77.4801 101.756 77.5056 101.832 77.5056L104.418 77.3355C104.481 77.2547 104.559 77.1817 104.633 77.1138L104.633 77.1137C104.667 77.0817 104.7 77.0509 104.73 77.0209C104.771 76.9869 104.812 76.9543 104.853 76.9216C104.956 76.8401 105.058 76.7585 105.161 76.6552C105.305 76.5361 105.423 76.3661 105.474 76.196C105.474 76.196 105.837 75.7878 105.981 75.5922C106.074 75.4476 106.361 75.2095 106.361 75.2095L106.361 75.2094C106.623 74.8948 106.885 74.5802 107.172 74.2656C107.172 74.2656 107.341 73.9765 107.459 73.8574C107.983 73.1601 108.515 72.4798 109.065 71.808C109.259 71.5699 109.808 71.0341 109.808 71.0341L109.901 70.9151C108.646 69.1986 107.435 67.4673 106.247 65.7697L105.998 65.413H105.989C105.771 65.1017 105.551 64.7904 105.333 64.4813ZM121.13 62.9044L121.079 62.9554C120.722 63.4044 120.345 63.8271 119.967 64.2524L119.812 64.4266C119.643 64.6222 119.186 65.0048 119.186 65.0048L119.167 65.0336C119.125 65.0984 119.087 65.1559 119.043 65.2004C118.955 65.2889 118.867 65.3754 118.78 65.4613L118.779 65.4615C118.607 65.6316 118.437 65.7992 118.274 65.9743C118.274 65.9743 117.894 66.3144 117.868 66.4335C117.868 66.5365 117.811 66.6077 117.736 66.7022C117.73 66.7099 117.723 66.7178 117.717 66.7259C117.711 66.7331 117.705 66.7406 117.699 66.7481C117.393 67.1594 117.279 67.2524 117.041 67.4461C116.944 67.5248 116.827 67.6201 116.669 67.7601C116.609 67.8295 116.545 67.9011 116.482 67.9732L116.482 67.9733C116.366 68.1045 116.248 68.2377 116.145 68.3639H116.052L115.765 68.7721L116.026 69.1122C117.843 71.4083 119.719 73.6533 121.729 75.9409L124.653 75.5582V63.4231C124.653 63.2785 124.56 63.185 124.433 63.185L121.13 62.9214V62.9044ZM114.497 76.9273C113.61 75.8388 112.723 74.7078 111.886 73.5938H111.861C111.692 73.5938 111.38 73.8829 111.312 73.9595C111.145 74.1273 110.966 74.3026 110.786 74.48L110.785 74.4802C110.416 74.8421 110.038 75.2131 109.732 75.5497C109.542 75.792 109.362 76.0448 109.183 76.2977L109.183 76.298C109.003 76.551 108.824 76.804 108.634 77.0464L113.331 76.7572L113.956 77.1654L114.506 76.9273H114.497ZM100.793 87.8549L100.717 87.9314C100.717 87.9314 100.692 87.9569 100.666 87.9569L100.666 87.9569C100.692 87.9314 100.717 87.9059 100.717 87.8804C100.717 87.8931 100.736 87.8804 100.755 87.8676C100.774 87.8549 100.793 87.8421 100.793 87.8549ZM98.8498 87.7783L98.9005 87.6848C98.9258 87.7613 98.9511 87.7783 98.9258 87.6848C98.9258 87.6848 98.9511 87.6848 98.9511 87.6593V87.7358C98.9511 87.7358 98.8582 87.8123 98.8582 87.7868L98.8498 87.7783ZM130.356 49.7403L130.305 49.7658C130.339 49.6865 130.33 49.695 130.28 49.7913C130.28 49.7913 130.229 49.8168 130.204 49.8424C130.204 49.9189 130.297 49.8168 130.297 49.7913H130.305L130.356 49.7403ZM99.23 87.6593C99.1896 87.5983 99.2296 87.5104 99.2603 87.4428C99.2682 87.4255 99.2755 87.4095 99.2807 87.3956C99.2915 87.4283 99.2977 87.4548 99.3032 87.4783C99.3106 87.51 99.3168 87.5365 99.3313 87.5657C99.3313 87.5657 99.2807 87.7358 99.2384 87.6593H99.23ZM130.66 49.5022L130.609 49.5277V49.5022C130.609 49.5022 130.66 49.4767 130.66 49.5022ZM130.727 49.3389C130.727 49.3363 130.727 49.334 130.726 49.3322L130.728 49.3321C130.728 49.3321 130.778 49.2811 130.778 49.3066L130.728 49.3576C130.728 49.3509 130.728 49.3442 130.727 49.3389ZM130.702 49.3576C130.707 49.3481 130.711 49.3413 130.714 49.3366C130.718 49.3341 130.722 49.3325 130.726 49.3322C130.724 49.3264 130.721 49.326 130.714 49.3366C130.694 49.349 130.677 49.3831 130.677 49.3831L130.702 49.3576ZM130.415 49.8849L130.414 49.8858C130.402 49.8509 130.298 49.9189 130.322 49.9189C130.321 49.9199 130.319 49.921 130.317 49.9223C130.315 49.913 130.312 49.9117 130.306 49.9329C130.28 49.9607 130.246 50.0124 130.246 50.0124L130.297 49.9869C130.3 49.9613 130.304 49.944 130.306 49.9329C130.31 49.9288 130.314 49.9252 130.317 49.9223C130.321 49.9367 130.322 49.9702 130.322 49.9702L130.322 49.9614L130.414 49.8858C130.415 49.8879 130.415 49.8904 130.415 49.8934V49.8849ZM103.919 106.164L104.084 106.164H104.084C105.456 106.165 109.276 106.168 110.264 105.679C110.771 105.415 111.008 103.987 111.101 103.366C111.429 100.987 111.422 100.927 111.342 100.259C111.294 99.8626 111.221 99.2517 111.177 97.8129C111.169 97.7072 111.173 97.4969 111.178 97.2472C111.19 96.6939 111.205 95.9469 111.101 95.7125C110.906 95.2788 110.045 95.3043 109.571 95.3723C102.745 96.1462 95.8419 96.92 88.9476 97.6854L92.7327 32.2052C92.7421 32.035 92.791 31.8553 92.8389 31.6793C92.9202 31.3807 92.9986 31.0926 92.8764 30.8786C92.5891 30.3939 91.4907 30.3259 90.9078 30.3004C87.6161 30.2185 86.6101 30.2251 84.746 30.2372C83.8972 30.2427 82.8704 30.2493 81.3689 30.2493C81.0056 30.2493 80.6001 30.3684 80.4564 30.6575C80.2431 31.054 80.3963 32.5895 80.4518 33.145L80.4564 33.1917C80.9127 37.521 80.3245 74.7213 80.0419 92.5921L80.0418 92.5991C79.9686 97.2258 79.9159 100.556 79.9073 101.682C79.9031 102.014 79.8842 102.339 79.8661 102.651V102.651C79.7735 104.245 79.7005 105.5 81.7069 105.543C84.7437 105.603 87.7934 105.72 90.8455 105.837L90.846 105.837C95.2066 106.005 99.5718 106.172 103.911 106.172L103.919 106.164ZM165.85 45.0972H156.607C156.488 45.0972 156.387 45.1737 156.37 45.3183L153.666 70.3708C153.641 70.6089 153.447 70.779 153.21 70.8045C152.99 70.83 152.779 70.6599 152.729 70.4388L147.913 51.0159C147.862 50.8968 147.769 50.8203 147.676 50.8203L137.495 51.1094C137.377 51.135 137.275 51.203 137.259 51.3305L134.073 85.2612C134.073 85.3377 134.099 85.4057 134.149 85.4568C134.2 85.5078 134.242 85.5333 134.318 85.5333H143.063C143.181 85.5333 143.283 85.4397 143.3 85.3122L145.623 68.4914C145.648 68.3979 145.716 68.3214 145.817 68.2703C145.91 68.2448 146.012 68.2959 146.079 68.3639L161.6 89.5982C161.862 89.9383 162.267 90.0829 162.656 89.9638C163.045 89.8448 163.324 89.5046 163.349 89.0964L166.103 45.3438C166.103 45.2672 166.078 45.2247 166.027 45.1737C165.976 45.1227 165.934 45.0972 165.858 45.0972H165.85ZM171.308 88.127L192.607 82.4294L192.32 107.575L203.726 106.368L201.496 54.3154L168.798 54.409C168.537 54.409 168.317 54.6301 168.317 54.8937L168.08 85.8309C168.055 87.3021 170.353 88.6032 171.316 88.127H171.308ZM192.126 64.1629L175.431 64.5966L175.836 77.1654L192.346 73.3557L192.126 64.1629ZM14.8798 69.9753V85.8039H50.5418V52.8118L47.1091 50.3326L26.3222 56.0538V31.4526L13.5449 32.4062V59.4865L5.53516 61.5842C6.36156 64.3812 8.12879 70.2423 8.58648 71.3102C9.04418 72.3782 12.9727 70.8652 14.8798 69.9753ZM51.4954 84.469L54.1653 52.8118H75.1429L73.808 62.9192L59.505 61.5842L68.2775 69.9753L59.505 72.8359L75.1429 74.3615V84.469H51.4954ZM41.878 62.9502L26.0618 69.3278V75.4501H41.878V62.9502Z" fill="black"/>
<g id="head">
<path id="Vector 5" d="M171.199 13.6989L101.942 27.5035L105.601 49.706L173.143 37.2451L158.954 27.5035L171.199 13.6989Z" fill="#A6F805"/>
<g id="blockchain Community">
<path id="Vector" d="M152.201 35.209L152.068 34.5016C150.945 32.9567 150.27 31.8188 150.043 31.0878L151.212 30.981C151.476 31.6415 151.913 32.4089 152.523 33.2833C152.821 32.0787 153.027 31.0026 153.14 30.0552L154.225 29.9548C154.016 31.3328 153.719 32.7495 153.334 34.2051C153.426 34.7586 153.512 35.2436 153.59 35.6601C153.669 36.0766 153.761 36.4938 153.865 36.9118L152.628 37.0124C152.465 36.4532 152.323 35.8521 152.201 35.209Z" fill="black"/>
<path id="Vector_2" d="M148.561 37.7334C148.295 36.6609 148.086 35.7235 147.935 34.9212C147.782 34.1127 147.641 33.2671 147.512 32.3843L146.421 32.7523L146.017 31.7249C146.598 31.5073 147.177 31.3184 147.756 31.1583L149.457 30.7417L149.824 31.7285C149.491 31.8105 149.116 31.9098 148.701 32.0265C148.83 32.9154 148.965 33.7273 149.104 34.4623C149.243 35.1972 149.454 36.2483 149.738 37.6156L148.561 37.7334Z" fill="black"/>
<path id="Vector_3" d="M145.233 31.7589C145.361 32.737 145.539 33.8324 145.769 35.0451C145.998 36.2577 146.247 37.3557 146.515 38.339L145.254 38.4632C144.938 37.2288 144.685 36.1094 144.495 35.1049C144.304 34.0944 144.13 33.0204 143.972 31.8831L145.233 31.7589Z" fill="black"/>
<path id="Vector_4" d="M142.392 32.182L143.209 36.4522C143.342 37.1565 143.46 37.9175 143.564 38.7352L142.516 38.8287C141.387 37.1835 140.487 35.9613 139.815 35.162C139.993 36.0673 140.269 37.5121 140.644 39.4965L139.547 39.5802C139.457 39.204 139.378 38.8383 139.311 38.483C139.031 37.0009 138.787 35.2581 138.579 33.2547L139.824 33.1432C140.746 34.7006 141.532 35.8684 142.18 36.6466C141.793 34.804 141.475 33.3544 141.225 32.298L142.392 32.182Z" fill="black"/>
<path id="Vector_5" d="M135.14 38.0152C135.201 38.3337 135.325 38.6052 135.513 38.8297C135.702 39.0541 135.891 39.1484 136.08 39.1126C136.276 39.0755 136.416 38.9602 136.5 38.7668C136.584 38.5733 136.624 38.331 136.62 38.04C136.612 37.5277 136.547 36.947 136.424 36.2978C136.3 35.6424 136.079 34.6914 135.761 33.4448L137.035 33.3373C137.359 34.5827 137.564 35.4321 137.649 35.8853C137.735 36.3385 137.789 36.6582 137.812 36.8442C137.833 37.0242 137.848 37.237 137.856 37.4828C137.865 37.7286 137.858 37.9614 137.836 38.1813C137.814 38.4011 137.771 38.6249 137.706 38.8529C137.641 39.0808 137.552 39.2815 137.439 39.4552C137.191 39.8511 136.797 40.1 136.258 40.2018C135.725 40.3025 135.224 40.1499 134.754 39.744C134.284 39.338 133.993 38.8411 133.882 38.2531C133.638 36.9608 133.447 35.5695 133.312 34.079L134.584 33.9623C134.702 35.3291 134.888 36.68 135.14 38.0152Z" fill="black"/>
<path id="Vector_6" d="M128.067 41.6451C127.717 40.0619 127.466 38.8661 127.313 38.0577C127.16 37.2492 127.049 36.3758 126.98 35.4374L128.733 35.2488C129.093 35.98 129.524 37.0181 130.026 38.3633C130.157 37.1776 130.231 35.9076 130.248 34.5533L132.013 34.3813C132.42 36.2645 132.706 37.6441 132.872 38.5199C133.036 39.3896 133.155 40.1696 133.228 40.8598L131.947 40.9783C131.881 40.1916 131.639 38.5435 131.222 36.0343L131.147 36.039C131.131 36.2894 131.11 36.7183 131.086 37.3256C131.032 38.5854 130.954 39.6659 130.851 40.567L130.002 40.6515C129.743 40.0913 129.428 39.3643 129.056 38.4704C128.689 37.5692 128.412 36.9079 128.225 36.4867L128.149 36.4914C128.591 38.5266 128.975 40.2048 129.301 41.5261L128.067 41.6451Z" fill="black"/>
<path id="Vector_7" d="M121.816 42.8267C121.466 41.2436 121.215 40.0478 121.062 39.2393C120.909 38.4309 120.798 37.5574 120.729 36.6191L122.482 36.4304C122.842 37.1616 123.273 38.1998 123.775 39.5449C123.906 38.3593 123.98 37.0893 123.997 35.735L125.762 35.5629C126.169 37.4462 126.455 38.8257 126.621 39.7015C126.785 40.5712 126.904 41.3512 126.978 42.0415L125.696 42.16C125.63 41.3732 125.388 39.7252 124.971 37.2159L124.896 37.2206C124.88 37.4711 124.859 37.8999 124.835 38.5072C124.781 39.767 124.703 40.8475 124.6 41.7486L123.751 41.8331C123.492 41.273 123.177 40.5459 122.805 39.652C122.438 38.7508 122.161 38.0896 121.974 37.6683L121.898 37.673C122.34 39.7082 122.724 41.3865 123.05 42.7077L121.816 42.8267Z" fill="black"/>
<path id="Vector_8" d="M118.673 43.6874C118.091 43.7974 117.549 43.6303 117.046 43.1861C116.548 42.7346 116.199 41.976 115.997 40.9103C115.795 39.8385 115.847 38.9247 116.155 38.1688C116.468 37.4117 116.922 36.977 117.516 36.8647C118.11 36.7524 118.653 36.9226 119.145 37.3752C119.643 37.8267 119.991 38.5822 120.192 39.6418C120.392 40.7013 120.336 41.6127 120.023 42.3759C119.711 43.1391 119.261 43.5763 118.673 43.6874ZM117.732 37.9562C117.463 38.0072 117.275 38.29 117.169 38.8048C117.063 39.3134 117.078 39.9291 117.214 40.6518C117.35 41.3684 117.533 41.8856 117.764 42.2035C118.001 42.514 118.244 42.6456 118.495 42.5981C118.747 42.5507 118.922 42.2701 119.021 41.7565C119.127 41.2417 119.112 40.6261 118.977 39.9095C118.84 39.1868 118.657 38.6696 118.427 38.3578C118.203 38.045 117.971 37.9111 117.732 37.9562Z" fill="black"/>
<path id="Vector_9" d="M112.99 38.9668C112.721 39.0178 112.548 39.3961 112.472 40.1019C112.395 40.8016 112.405 41.4087 112.502 41.9231C112.706 43.0011 113.09 43.4868 113.653 43.3803C113.812 43.3502 113.937 43.2568 114.028 43.1C114.124 42.936 114.183 42.7759 114.204 42.6196C114.231 42.4622 114.257 42.2479 114.282 41.9768L115.466 41.8481C115.449 42.6316 115.319 43.2524 115.076 43.7107C114.839 44.1679 114.439 44.4497 113.875 44.5562C113.214 44.6813 112.656 44.5299 112.2 44.1021C111.75 43.667 111.452 43.0636 111.306 42.2919C111.136 41.3916 111.148 40.4822 111.343 39.5637C111.434 39.1087 111.608 38.7175 111.863 38.3901C112.123 38.0555 112.452 37.8505 112.851 37.7753C113.34 37.6827 113.726 37.7778 114.008 38.0608C114.149 38.1992 114.268 38.3447 114.367 38.4973C114.471 38.6488 114.563 38.8502 114.643 39.1017C114.775 39.5016 114.892 39.9362 114.994 40.4055L113.788 40.5193C113.639 39.7292 113.471 39.247 113.286 39.0727C113.199 38.9813 113.1 38.946 112.99 38.9668Z" fill="black"/>
<path id="Vector_10" d="M154.876 21.0999L155.692 25.3701C155.826 26.0745 155.944 26.8355 156.048 27.6532L155 27.7466C153.871 26.1015 152.97 24.8792 152.299 24.08C152.476 24.9853 152.753 26.4301 153.128 28.4145L152.03 28.4982C151.94 28.122 151.862 27.7562 151.794 27.401C151.514 25.9188 151.27 24.176 151.063 22.1727L152.308 22.0611C153.23 23.6185 154.015 24.7864 154.663 25.5646C154.277 23.7219 153.959 22.2724 153.708 21.2159L154.876 21.0999Z" fill="black"/>
<path id="Vector_11" d="M149.512 22.2279C149.64 23.206 149.819 24.3014 150.048 25.5141C150.277 26.7267 150.526 27.8247 150.794 28.808L149.533 28.9322C149.217 27.6978 148.964 26.5784 148.775 25.5739C148.583 24.5634 148.409 23.4894 148.251 22.352L149.512 22.2279Z" fill="black"/>
<path id="Vector_12" d="M146.787 29.2324L146.334 27.9954L144.976 28.3093L144.953 30.1024L143.646 30.2353L144.031 23.2639L145.759 23.0896L148.14 29.0909L146.787 29.2324ZM145.021 24.3232L144.983 27.2898L146.005 27.0585L145.021 24.3232Z" fill="black"/>
<path id="Vector_13" d="M139.31 25.9735L139.519 27.0283L140.882 26.6851C140.701 25.7297 140.525 24.7132 140.353 23.6356L141.586 23.5166C141.715 24.5008 141.887 25.5625 142.103 26.7017C142.317 27.8348 142.566 28.9676 142.85 30.1002L141.655 30.2214C141.5 29.7051 141.307 28.8663 141.074 27.7049L139.739 28.0428C139.922 28.9091 140.117 29.7889 140.324 30.6822L139.054 30.8082C138.742 29.5286 138.484 28.3468 138.279 27.2627C138.074 26.1787 137.921 25.237 137.821 24.4376L139.055 24.3186C139.121 24.8707 139.206 25.4223 139.31 25.9735Z" fill="black"/>
<path id="Vector_14" d="M135.098 26.0657C134.829 26.1167 134.656 26.495 134.58 27.2008C134.503 27.9005 134.513 28.5075 134.61 29.022C134.814 30.1 135.198 30.5857 135.761 30.4792C135.92 30.4491 136.045 30.3556 136.136 30.1989C136.232 30.0349 136.291 29.8748 136.312 29.7185C136.339 29.5611 136.365 29.3468 136.39 29.0757L137.574 28.947C137.557 29.7305 137.427 30.3513 137.184 30.8096C136.947 31.2668 136.547 31.5486 135.983 31.6551C135.322 31.7801 134.763 31.6287 134.308 31.201C133.858 30.7659 133.56 30.1625 133.414 29.3908C133.244 28.4905 133.256 27.5811 133.451 26.6626C133.542 26.2076 133.716 25.8164 133.971 25.489C134.231 25.1544 134.56 24.9494 134.958 24.8742C135.448 24.7816 135.834 24.8767 136.116 25.1596C136.256 25.298 136.376 25.4436 136.475 25.5962C136.579 25.7477 136.671 25.9491 136.751 26.2006C136.883 26.6005 137 27.0351 137.102 27.5044L135.896 27.6182C135.746 26.8281 135.579 26.3459 135.394 26.1715C135.307 26.0802 135.208 26.0449 135.098 26.0657Z" fill="black"/>
<path id="Vector_15" d="M129.228 32.5896C129.008 31.6607 128.786 30.6082 128.564 29.4323C128.342 28.2563 128.183 27.2461 128.087 26.4016L129.368 26.2831C129.45 27.0541 129.597 28.0001 129.809 29.1209C130.341 27.7072 130.722 26.5346 130.952 25.6031L132.196 25.8436C131.922 26.8089 131.518 27.9446 130.985 29.2507C131.781 30.1087 132.511 30.732 133.175 31.1204L132.51 32.2356C131.669 31.6778 130.81 30.8601 129.934 29.7823C130.146 30.9031 130.339 31.8055 130.512 32.4895L129.228 32.5896Z" fill="black"/>
<path id="Vector_16" d="M125.387 27.9012C125.118 27.9521 124.945 28.3305 124.869 29.0363C124.792 29.7359 124.802 30.343 124.899 30.8575C125.103 31.9354 125.487 32.4211 126.05 32.3146C126.21 32.2845 126.335 32.1911 126.425 32.0344C126.521 31.8703 126.58 31.7102 126.601 31.5539C126.628 31.3965 126.655 31.1823 126.679 30.9111L127.864 30.7825C127.847 31.5659 127.717 32.1868 127.473 32.6451C127.236 33.1022 126.836 33.384 126.273 33.4905C125.611 33.6156 125.053 33.4642 124.598 33.0364C124.148 32.6013 123.85 31.9979 123.704 31.2262C123.533 30.3259 123.546 29.4165 123.74 28.498C123.831 28.043 124.005 27.6518 124.26 27.3245C124.52 26.9898 124.85 26.7849 125.248 26.7096C125.738 26.617 126.124 26.7122 126.405 26.9951C126.546 27.1335 126.665 27.279 126.764 27.4316C126.869 27.5831 126.961 27.7846 127.04 28.036C127.173 28.4359 127.29 28.8706 127.391 29.3398L126.185 29.4536C126.036 28.6635 125.868 28.1813 125.683 28.007C125.596 27.9156 125.498 27.8803 125.387 27.9012Z" fill="black"/>
<path id="Vector_17" d="M121.296 34.4694C120.714 34.5794 120.172 34.4123 119.669 33.9681C119.171 33.5166 118.822 32.758 118.62 31.6923C118.418 30.6205 118.47 29.7067 118.778 28.9507C119.091 28.1937 119.545 27.759 120.139 27.6467C120.733 27.5344 121.276 27.7046 121.768 28.1572C122.265 28.6087 122.614 29.3642 122.815 30.4238C123.015 31.4833 122.959 32.3947 122.646 33.1579C122.334 33.9211 121.884 34.3582 121.296 34.4694ZM120.355 28.7382C120.086 28.7892 119.898 29.072 119.792 29.5868C119.685 30.0954 119.7 30.7111 119.837 31.4338C119.972 32.1504 120.156 32.6676 120.387 32.9855C120.623 33.296 120.867 33.4276 121.118 33.3801C121.369 33.3326 121.545 33.0521 121.644 32.5385C121.75 32.0237 121.735 31.4081 121.6 30.6915C121.463 29.9688 121.28 29.4515 121.049 29.1398C120.825 28.8269 120.594 28.6931 120.355 28.7382Z" fill="black"/>
<path id="Vector_18" d="M115.781 35.1312C115.463 33.8846 115.205 32.7376 115.007 31.6903C114.808 30.6369 114.661 29.6751 114.566 28.8049L115.809 28.6842C115.916 29.755 116.061 30.7712 116.243 31.7327C116.424 32.6943 116.573 33.3988 116.69 33.8462C116.904 33.7739 117.435 33.6102 118.281 33.3551L118.666 34.3861C118.217 34.528 117.585 34.7426 116.771 35.0298L115.781 35.1312Z" fill="black"/>
<path id="Vector_19" d="M109.442 30.0589C110.117 29.703 110.742 29.4706 111.318 29.3618C111.9 29.2518 112.422 29.3148 112.886 29.5507C113.348 29.7805 113.622 30.1221 113.707 30.5753C113.836 31.2551 113.558 31.8659 112.874 32.4075C113.639 32.5611 114.085 32.9747 114.212 33.6484C114.306 34.1445 114.129 34.6378 113.683 35.1282C113.235 35.6124 112.727 35.9084 112.157 36.016C112.084 36.0299 111.552 36.086 110.562 36.1844C110.399 34.8514 110.232 33.7347 110.062 32.8344C109.892 31.934 109.685 31.0089 109.442 30.0589ZM112.491 30.9383C112.457 30.7546 112.336 30.6188 112.129 30.5311C111.927 30.436 111.722 30.4082 111.514 30.4476C111.312 30.4858 111.101 30.5636 110.882 30.6811C111.046 31.4114 111.163 31.9634 111.233 32.337C111.51 32.2592 111.802 32.0741 112.108 31.7815C112.413 31.4827 112.541 31.2017 112.491 30.9383ZM112.147 34.857C112.349 34.8188 112.549 34.6987 112.745 34.4966C112.941 34.2884 113.019 34.0802 112.979 33.8719C112.939 33.6576 112.772 33.4957 112.478 33.3862C112.185 33.2767 111.826 33.243 111.403 33.285C111.527 34.01 111.618 34.5544 111.674 34.918C111.787 34.9156 111.945 34.8952 112.147 34.857Z" fill="black"/>
</g>
</g>
</g>
</svg>
